<svg width="130" height="34" viewBox="0 0 130 34" fill="none" xmlns="http://www.w3.org/2000/svg">
<path d="M18.4919 1.55566C20.2934 4.65096 22.1105 7.73716 23.8925 10.8442C21.0122 15.9259 18.1735 21.0323 15.1957 26.0581C14.0532 27.9873 12.9419 29.9347 11.8124 31.8704C8.1497 31.8925 4.48696 31.8912 0.824219 31.886C0.935999 31.6351 1.04648 31.3829 1.18165 31.1437C6.94871 21.2793 12.7379 11.4279 18.4919 1.55566Z" fill="#AE285D"/>
<path d="M98.1925 9.16504C100.218 12.9402 102.241 16.7141 104.264 20.4906C103.55 20.5049 102.837 20.4685 102.124 20.4932C101.646 19.6612 101.231 18.7941 100.763 17.9569C98.9646 17.9036 97.1644 17.94 95.3642 17.9361C94.9301 18.798 94.457 19.6378 93.9969 20.4841C93.2937 20.4776 92.5905 20.4984 91.8887 20.4919C93.9605 16.6998 96.0388 12.9103 98.1925 9.16504ZM96.265 16.3215C97.492 16.3384 98.7202 16.3358 99.9485 16.3462C99.3337 15.2022 98.78 14.0257 98.121 12.9064C97.4894 14.0387 96.8707 15.1762 96.265 16.3215Z" fill="#AE285D"/>
<path d="M105.443 9.12012C108.501 11.7773 111.558 14.4358 114.577 17.1372C114.66 14.6997 114.567 12.2622 114.641 9.82472C115.294 9.83772 115.948 9.84812 116.602 9.85982C116.581 13.6142 116.592 17.3699 116.588 21.1243C114.58 19.4538 112.651 17.6897 110.667 15.988C109.564 15.0442 108.471 14.09 107.417 13.0929C107.391 15.5616 107.428 18.0316 107.375 20.5003C106.725 20.5029 106.075 20.486 105.427 20.4912C105.432 16.7004 105.399 12.9109 105.443 9.12012Z" fill="#AE285D"/>
<path d="M40.8301 20.4763C42.9422 16.705 44.9997 12.9038 47.1599 9.16113C49.172 12.9402 51.1957 16.7141 53.2311 20.4802C52.5072 20.4971 51.7845 20.4958 51.0605 20.4815C50.6212 19.6378 50.1715 18.7993 49.7517 17.9452C47.9463 17.9218 46.1422 17.9413 44.3368 17.9413C43.8663 18.7928 43.4413 19.6716 42.9331 20.5023C42.2312 20.4828 41.5307 20.4971 40.8301 20.4763ZM45.2142 16.3319C46.4477 16.3267 47.6824 16.3436 48.9172 16.3397C48.2959 15.2022 47.75 14.0244 47.0832 12.9116C46.4555 14.0504 45.8355 15.1905 45.2142 16.3319Z" fill="#AE285D"/>
<path d="M70.8874 10.1384C71.9194 9.63009 73.1282 9.56379 74.2447 9.78869C75.2117 9.99279 75.989 10.6805 76.5791 11.4423C76.0553 11.7075 75.5354 11.9766 75.0206 12.2587C74.3266 11.1732 72.6746 10.8274 71.6673 11.6737C71.133 12.0559 71.1759 12.9971 71.779 13.2883C73.1308 14.0332 74.775 14.1931 75.9734 15.224C77.1952 16.2601 77.1484 18.331 76.0163 19.4178C74.801 20.6502 72.876 20.918 71.2604 20.4565C69.9074 20.1146 68.8897 18.8705 68.709 17.5029C69.3628 17.3599 70.023 17.2416 70.6846 17.1389C70.7639 17.7798 71.007 18.4857 71.6114 18.8081C72.568 19.3216 73.9548 19.1929 74.6151 18.266C75.0804 17.6355 74.9427 16.667 74.3071 16.2055C72.9787 15.315 71.2149 15.2604 70.023 14.1385C69.394 13.6029 69.1327 12.7085 69.3472 11.9142C69.5174 11.1043 70.179 10.505 70.8874 10.1384Z" fill="#AE285D"/>
<path d="M53.8631 9.89895C54.6052 9.80145 55.3552 9.83525 56.1013 9.84305C56.8993 11.0313 57.6961 12.2195 58.4954 13.4064C59.3364 12.2338 60.1539 11.0443 60.9832 9.86385C61.7487 9.83915 62.5143 9.82615 63.2799 9.84955C62.0659 11.5383 60.8441 13.2231 59.6275 14.9105C60.8662 16.789 62.218 18.5934 63.428 20.4914C62.6989 20.4953 61.9697 20.4888 61.2405 20.4823C60.3125 19.1472 59.391 17.8069 58.4629 16.4718C57.5037 17.8121 56.5367 19.1459 55.5891 20.494C54.8509 20.5083 54.1113 20.4979 53.373 20.4992C54.6572 18.6168 56.009 16.7825 57.3438 14.9352C56.1961 13.2478 55.0263 11.576 53.8631 9.89895Z" fill="#AE285D"/>
<path d="M65.0787 9.85253C65.7365 9.83303 66.393 9.83433 67.0508 9.84863C67.0547 13.3963 67.0521 16.944 67.0521 20.4917C66.3839 20.493 65.717 20.4917 65.0488 20.4917C65.0735 16.9453 65.0618 13.3989 65.0787 9.85253Z" fill="#AE285D"/>
<path d="M84.2696 9.84277C85.9567 9.91557 87.7763 9.61007 89.3308 10.4369C90.8464 11.2481 91.196 13.6544 89.7988 14.7438C90.6787 15.0909 91.53 15.7448 91.7614 16.7081C92.1318 17.8898 91.4781 19.1976 90.4447 19.8099C88.5614 20.8447 86.3427 20.3624 84.2982 20.5028C84.2345 16.9499 84.2748 13.397 84.2696 9.84277ZM86.227 11.3742C86.2309 12.3882 86.2283 13.4009 86.2218 14.4136C86.9549 14.3837 87.7672 14.4279 88.3924 13.9755C89.0306 13.4074 89.0072 12.2309 88.3027 11.7252C87.6866 11.3352 86.9263 11.3794 86.227 11.3742ZM86.2387 15.8059C86.2309 16.8394 86.2348 17.8742 86.2543 18.9077C87.2382 18.8557 88.2975 19.0377 89.2048 18.5502C90.0093 18.155 90.1575 16.8628 89.4101 16.335C88.5094 15.6356 87.3006 15.828 86.2387 15.8059Z" fill="#AE285D"/>
<path d="M118.875 9.84308C119.53 9.83788 120.185 9.84048 120.842 9.84178C120.844 11.2432 120.829 12.6459 120.858 14.0486C122.473 12.6277 124.118 11.2432 125.742 9.83398C126.638 9.83918 127.535 9.84308 128.432 9.84048C126.495 11.4291 124.574 13.0346 122.672 14.6622C124.543 16.6382 126.482 18.5479 128.397 20.4823C127.508 20.4732 126.618 20.5434 125.733 20.4407C124.209 18.8859 122.696 17.322 121.187 15.7542C121.077 15.8998 120.968 16.0454 120.86 16.191C120.821 17.6249 120.856 19.0575 120.831 20.4914C120.172 20.4875 119.513 20.5044 118.855 20.5005C118.861 16.9489 118.87 13.396 118.875 9.84308Z" fill="#AE285D"/>
<path d="M18.4922 20.4265C22.1679 20.4252 25.8437 20.3992 29.5194 20.4603C31.7082 24.2771 33.9672 28.0523 36.1365 31.8795C32.4608 31.8977 28.7863 31.8834 25.1106 31.8808C22.9231 28.051 20.6381 24.2797 18.4922 20.4265Z" fill="#AE285D"/>
</svg>
