<svg width="111" height="37" viewBox="0 0 111 37" fill="none" xmlns="http://www.w3.org/2000/svg">
<path d="M23.8364 36.2534L6.40625 36.2744V35.8124L19.2374 35.3083C21.6734 35.2242 24.0464 35.0982 26.3354 34.3001C31.0185 32.7248 34.7775 29.5322 35.8695 25.5834C37.0455 21.3406 34.3365 17.2238 29.2335 16.8668C33.5595 15.6065 37.2555 12.855 38.2425 9.32633C39.5236 4.74746 37.2135 2.41602 33.3075 1.57586C39.7966 1.47084 44.8576 3.65525 43.1356 9.85143C42.1486 13.3801 38.3686 16.0686 34.0635 17.2448C39.1246 17.6229 41.8756 22.4328 40.5526 26.6336C39.1665 31.0024 35.6385 33.712 30.9345 35.2873C28.6455 36.0224 26.2934 36.1484 23.8364 36.2534Z" fill="#F15A29"/>
<path d="M14.7001 34.0472L6.46806 34.4463C6.46806 34.2362 6.44706 34.1732 6.42606 33.9632L27.2163 27.956L27.2373 27.62L6.17406 32.6819C6.11106 32.4929 6.09006 32.4299 6.00606 32.2408L28.1193 19.9745L27.9723 19.6384L5.33405 31.2116C5.18705 31.0226 5.20805 31.0016 5.06105 30.8336L31.3743 6.02786L31.1433 5.7548L4.05303 29.9934C3.92703 29.9094 3.86404 29.8254 3.71704 29.7414L22.9532 1.70103L22.6172 1.59601L2.58302 29.2163C2.47802 29.1742 2.35202 29.1532 2.24702 29.1112L13.2511 1.99509L12.9571 1.95308L0.567008 28.8592C0.420006 28.8592 0.252002 28.8592 0.105001 28.8802H0L7.98007 0.0207157L22.9112 0.0627262C29.9673 -0.336349 35.5533 1.57501 33.7053 8.14926C32.7183 11.6779 29.0223 14.4295 24.7172 15.6057L24.6962 15.6897C29.7993 16.0467 32.6763 20.1635 31.5003 24.4063C30.4083 28.3551 26.4602 31.4427 21.7772 33.018C19.4882 33.8371 17.1362 33.9632 14.7001 34.0472Z" fill="#F15A29"/>
<path d="M77.2371 1.13421C76.9011 2.41546 76.3131 2.47847 75.5781 2.47847H74.1501C72.9531 2.47847 72.8691 1.97437 73.1001 1.13421H74.5071C74.3601 1.5753 74.1921 1.97437 74.9481 1.97437C75.4521 1.97437 75.5991 1.84835 75.7881 1.17622L77.2371 1.13421ZM89.5012 7.79248L88.4302 6.40621L88.3462 6.76328C88.0732 7.81348 88.0942 8.25457 88.7452 8.25457C89.0812 8.25457 89.3122 8.10754 89.5012 7.79248ZM88.6822 5.73409L89.7532 7.12035L89.8582 6.74228C90.0682 5.90212 90.2362 5.31401 89.4802 5.31401C89.0812 5.31401 88.8502 5.48204 88.6822 5.73409ZM95.7173 5.04096L96.0113 3.82273H92.0003L90.4883 9.70384H89.1442L89.5012 8.4226C89.1232 8.84268 88.4302 8.9687 87.8842 8.9687C86.4142 8.9687 86.6452 7.54043 86.8762 6.67927C87.0862 5.81811 87.5482 4.57887 88.9762 4.57887C89.4802 4.57887 90.0472 4.7259 90.2572 5.08297L90.5722 3.82273H87.2962L87.5062 3.1716H97.1243L95.9483 1.70132L96.9353 0.98719L98.1953 3.1716H98.5733L97.5653 0.5251L98.7623 0L99.4553 3.19261H108.527L108.317 3.84373H107.561L106.049 9.74585H104.705L106.217 3.84373H105.041L104.579 5.33501H102.689C102.08 5.33501 101.912 6.07015 101.66 7.16236C101.366 8.46461 101.114 9.26276 101.975 9.26276C102.038 9.26276 102.122 9.24176 102.248 9.19975C102.164 8.4016 102.626 7.45641 103.571 7.45641C104.432 7.45641 104.453 7.93951 104.327 8.35959C104.159 8.9477 103.865 9.26276 103.277 9.43079C103.571 9.99789 104.306 10.0399 104.306 10.0399L102.857 10.8381C102.521 10.439 102.332 10.1029 102.269 9.68284C101.912 9.78786 101.513 9.80886 101.219 9.80886C99.4763 9.80886 99.7703 8.10754 100.064 6.95232C100.358 5.75509 100.883 4.7259 102.311 4.7259C102.815 4.7259 103.403 4.76791 103.403 4.76791L103.655 3.86473H99.8543L98.3423 9.76685H96.9983L98.5103 3.86473H97.4183L96.8723 5.94413H95.5073C95.6333 5.48204 95.4023 5.31401 94.8353 5.31401C94.3103 5.31401 94.1633 5.39803 93.9533 6.13317C93.8063 6.76328 93.9743 6.91031 94.6043 6.88931H95.6753C96.4733 6.88931 96.6203 7.18337 96.3263 8.35959C95.9693 9.68284 95.3393 9.76685 94.5203 9.76685H92.9453C91.5593 9.76685 91.5173 9.15774 91.8323 8.14955H93.3863C93.2393 8.67465 92.9243 9.19975 93.8273 9.19975C94.3733 9.19975 94.5623 9.07372 94.7723 8.29657C94.9403 7.75047 94.9823 7.45641 94.1633 7.45641C94.1633 7.45641 93.4283 7.45641 93.0713 7.45641C92.1473 7.45641 92.2943 6.67927 92.4623 6.02815C92.7983 4.83092 93.0293 4.68389 94.4153 4.68389C95.2343 4.64188 95.6123 4.7259 95.7173 5.04096ZM58.358 8.25457C58.841 8.25457 59.051 7.81348 59.324 6.74228C59.534 5.90212 59.702 5.31401 59.114 5.31401C58.5049 5.31401 58.358 5.90212 58.1479 6.74228C57.8749 7.81348 57.8539 8.25457 58.358 8.25457ZM58.6099 9.72485C58.9669 8.4436 58.9669 8.4436 58.9669 8.4436L58.6099 9.72485ZM53.9269 7.72947L52.8559 6.3222C52.8139 6.44822 52.7719 6.59525 52.7509 6.74228C52.4779 7.79248 52.4989 8.23356 53.1289 8.23356C53.5069 8.25457 53.7379 8.08654 53.9269 7.72947ZM53.1079 5.69208L54.1579 7.05734L54.2419 6.74228C54.4519 5.90212 54.6199 5.31401 53.8639 5.31401C53.5069 5.31401 53.2759 5.46104 53.1079 5.69208ZM54.1579 3.19261L52.9819 1.72233L53.9689 1.0082L55.2289 3.19261H55.6069L54.5989 0.546105L55.7959 0.0210053L56.4889 3.21361H64.364L64.154 3.86473H61.424L61.088 5.22999C61.445 4.80991 61.907 4.66289 62.453 4.66289C63.923 4.66289 63.608 6.04915 63.377 6.93131C63.167 7.79248 62.789 9.01071 61.361 9.01071C61.088 9.01071 60.815 8.9477 60.668 8.82167L60.773 8.4436C60.815 8.4436 60.857 8.48561 60.899 8.48561C61.508 8.48561 61.676 7.75047 61.907 6.91031C62.18 5.86011 62.201 5.39803 61.697 5.39803C61.277 5.39803 61.025 5.71308 60.773 6.53224L59.975 9.76685H58.631L58.988 8.48561C58.61 8.90569 58.1689 9.03171 57.6229 9.03171C56.1529 9.03171 56.4889 7.56143 56.6989 6.70027C56.9089 5.83911 57.2659 4.66289 58.7149 4.66289C59.2399 4.66289 59.555 4.78891 59.744 5.14598L60.059 3.88574H56.4049L54.8929 9.76685H53.5489L53.9059 8.48561C53.5069 8.90569 52.8349 9.03171 52.2889 9.03171C50.8189 9.03171 51.1129 7.51943 51.3229 6.65827C51.5329 5.81811 51.9529 4.64188 53.3809 4.64188C53.9059 4.64188 54.4729 4.78891 54.6619 5.14598L54.9769 3.88574H51.6799L51.8899 3.23461H54.1579V3.19261ZM67.976 9.70384H65.96L66.128 9.03171H67.892C68.333 9.03171 69.005 8.77967 69.215 7.8975C69.362 7.33039 69.11 6.70027 68.312 6.70027H66.989L67.157 5.96513H68.69C69.236 5.96513 69.6561 5.50305 69.8031 4.89393C69.9291 4.43184 69.8871 3.80172 69.089 3.80172H67.451L67.619 3.12959H69.5931C70.6011 3.12959 71.6931 3.57068 71.3991 4.76791C71.1891 5.67108 70.7271 6.11216 69.6561 6.28019C70.7481 6.42722 70.9581 7.16236 70.7481 8.02352C70.3491 9.64083 68.648 9.70384 67.976 9.70384ZM80.1562 3.82273H79.0851L78.2451 7.03633C78.1401 7.41441 78.1611 7.68746 78.6231 7.68746C79.0851 7.68746 79.2531 7.26738 79.3371 6.88931L80.1562 3.82273ZM72.1341 3.19261H84.2302L84.0202 3.84373H81.5632L81.1642 5.39803C81.5422 5.01995 82.0042 4.87293 82.5292 4.87293C83.2012 4.87293 83.7052 5.20899 83.5582 5.7971L82.6972 9.17874H81.2692L82.0252 6.28019C82.1302 5.90212 82.1092 5.60807 81.6682 5.60807C81.3322 5.60807 81.1222 5.88111 80.9752 6.17517L80.6182 7.54043C80.5552 7.81348 80.1561 9.47279 80.1141 9.74585H78.6441L79.0851 7.93951C78.6861 8.31758 78.2661 8.4436 77.7411 8.4436C77.0691 8.4436 76.5651 8.10754 76.7121 7.51943L77.6571 3.84373H76.5231L75.0111 9.74585H73.6671L75.1791 3.84373H74.1081L72.5961 9.74585H71.2521L72.0501 6.65827H70.9581L71.1471 6.00714H72.2391L72.7851 3.86473H71.9451L72.1341 3.19261ZM57.0349 1.5753H58.3159L58.0219 2.6465H56.7409L57.0349 1.5753ZM76.5651 9.28376H77.8461L77.5521 10.355H76.2711L76.5651 9.28376ZM92.9033 10.334H94.1843L93.8903 11.4052H92.6093L92.9033 10.334Z" fill="#F15A29"/>
<path d="M52.9609 18.2326H53.8849C54.6829 18.2326 54.8509 18.6317 54.7039 19.3248C54.4729 20.375 53.7169 20.396 53.3809 20.396H52.4989L52.9609 18.2326ZM53.6329 15.124H54.6199C55.1449 15.124 55.4389 15.5441 55.3339 16.0902C55.1869 16.8253 54.6409 17.0563 54.3049 17.0563H53.2339L53.6329 15.124ZM53.4859 21.5512C54.1579 21.5512 55.8589 21.4672 56.2579 19.5348C56.4889 18.5056 56.3419 17.7705 55.2499 17.6025V17.5814C56.1529 17.4134 56.7199 16.7833 56.9089 15.9011C57.2449 14.2838 56.3209 13.9268 55.1239 13.9268H52.2889L50.6719 21.5092H53.4859" fill="#F15A29"/>
<path d="M59.6827 18.9864C59.5566 19.5535 59.4516 20.7508 58.5695 20.7508C58.0864 20.7508 58.1284 20.2887 58.1914 19.9106C58.4014 18.9444 58.9265 19.0074 59.6827 18.9864ZM61.342 17.9152C61.552 16.949 61.468 16.1299 59.5986 16.1299C59.0315 16.1299 58.5274 16.2139 58.1284 16.487C57.7293 16.739 57.4352 17.1381 57.3092 17.7682H58.7585C58.8425 17.3481 58.9685 16.97 59.4936 16.97C60.0397 16.97 60.0187 17.3061 59.9347 17.7472L59.8507 18.1463C58.4854 18.1253 57.0992 18.1883 56.7421 19.9526C56.5531 20.8768 56.7631 21.6539 57.7923 21.6539C58.4434 21.6539 58.9265 21.3809 59.3466 20.8558H59.3676L59.2836 21.5489H60.6699C60.7119 21.2338 60.7329 20.8768 60.7959 20.5617L61.342 17.9152Z" fill="#F15A29"/>
<path d="M63.9653 16.2349H62.4741L61.3398 21.5489H62.8311L63.6083 17.8942C63.7133 17.4321 63.8603 17.0541 64.3434 17.0541C64.8265 17.0541 64.8265 17.4321 64.7215 17.8942L63.9443 21.5489H65.4356L66.3388 17.2851C66.4858 16.55 65.9607 16.1299 65.2676 16.1299C64.7005 16.1299 64.2804 16.2979 63.8813 16.781H63.8603L63.9653 16.2349Z" fill="#F15A29"/>
<path d="M67.6217 21.5507L68.2308 18.6522H68.2518L69.0079 21.5507H70.6882L69.638 18.6102L71.6334 16.2367H70.0791L68.2728 18.4631H68.2518L69.218 13.9473H67.7267L66.1094 21.5297H67.6217V21.5507Z" fill="#F15A29"/>
<path d="M74.6348 20.7087C74.0887 20.7087 74.0257 20.3517 74.3618 18.7344C74.5928 17.6212 74.7609 17.0751 75.391 17.0751C76.0211 17.0751 75.9581 17.6212 75.727 18.7344C75.391 20.3517 75.1809 20.7087 74.6348 20.7087ZM74.4248 21.6539C76.3362 21.6539 76.8402 20.4777 77.1973 18.8184C77.5124 17.3691 77.5544 16.1299 75.601 16.1299C73.6476 16.1299 73.1645 17.3691 72.8705 18.8184C72.5134 20.4777 72.5134 21.6539 74.4248 21.6539Z" fill="#F15A29"/>
<path d="M81.1259 13.9263C80.9579 13.9053 80.7899 13.9053 80.6008 13.9053C78.7945 13.9053 78.7525 14.7034 78.4374 16.2367H77.7653L77.5763 17.1399H78.2484L77.3242 21.5297H78.8155L79.7397 17.1399H80.4328L80.6218 16.2367H79.9287L80.0547 15.5856C80.1598 15.0395 80.3488 14.8084 80.9369 14.8504L81.1259 13.9263Z" fill="#F15A29"/>
<path d="M83.9804 18.2326H84.9044C85.7024 18.2326 85.8704 18.6317 85.7234 19.3248C85.4924 20.375 84.7364 20.396 84.4004 20.396H83.5184L83.9804 18.2326ZM84.6314 15.124H85.5974C86.1434 15.124 86.4165 15.5441 86.3114 16.0902C86.1644 16.8253 85.6184 17.0563 85.2824 17.0563H84.2114L84.6314 15.124ZM84.4844 21.5512C85.1564 21.5512 86.8365 21.4672 87.2565 19.5348C87.4875 18.5056 87.3405 17.7705 86.2485 17.6025V17.5814C87.1515 17.4134 87.7185 16.7833 87.9075 15.9011C88.2435 14.2838 87.3195 13.9268 86.1224 13.9268H83.3084L81.6914 21.5092H84.4844V21.5512Z" fill="#F15A29"/>
<path d="M90.6797 18.9864C90.5537 19.5535 90.4487 20.7508 89.5665 20.7508C89.0834 20.7508 89.1254 20.2887 89.2094 19.9106C89.4195 18.9444 89.9446 19.0074 90.6797 18.9864ZM92.36 17.9152C92.5701 16.949 92.4861 16.1299 90.6167 16.1299C90.0496 16.1299 89.5455 16.2139 89.1674 16.487C88.7683 16.739 88.4743 17.1381 88.3483 17.7682H89.7975C89.8816 17.3481 90.0076 16.97 90.5327 16.97C91.0788 16.97 91.0578 17.3061 90.9738 17.7472L90.8898 18.1463C89.5245 18.1253 88.1382 18.1883 87.7812 19.9526C87.5921 20.8768 87.8022 21.6539 88.8314 21.6539C89.4825 21.6539 89.9656 21.3809 90.3857 20.8558H90.4067L90.3226 21.5489H91.6879C91.7299 21.2338 91.7509 20.8768 91.8349 20.5617L92.36 17.9152Z" fill="#F15A29"/>
<path d="M93.5131 16.2349L92.3789 21.5489H93.8702L94.4793 18.6504C94.5843 18.1253 94.7734 17.3691 96.0546 17.4531L96.3277 16.1299C95.7395 16.1299 95.1934 16.2979 94.7734 16.928H94.7524L94.8994 16.2559H93.5131V16.2349Z" fill="#F15A29"/>
<path d="M97.6505 20.7087C97.1044 20.7087 97.0413 20.3517 97.3774 18.7344C97.6085 17.6212 97.7765 17.0751 98.4066 17.0751C99.0367 17.0751 98.9737 17.6212 98.7427 18.7344C98.4066 20.3517 98.1966 20.7087 97.6505 20.7087ZM97.4404 21.6539C99.3518 21.6539 99.8559 20.4777 100.213 18.8184C100.528 17.3691 100.57 16.1299 98.6166 16.1299C96.6633 16.1299 96.1802 17.3691 95.8861 18.8184C95.5291 20.4777 95.5291 21.6539 97.4404 21.6539Z" fill="#F15A29"/>
<path d="M102.397 20.7311C101.872 20.7311 101.893 20.1849 102.166 18.8407C102.397 17.7695 102.544 17.0344 103.174 17.0344C103.783 17.0344 103.615 17.7695 103.384 18.8407C103.111 20.1849 102.901 20.7311 102.397 20.7311ZM104.287 21.5502L105.904 13.9678H104.413L103.825 16.7613H103.804C103.594 16.2992 103.258 16.1522 102.733 16.1522C101.242 16.1522 100.927 17.8115 100.695 18.8617C100.464 19.9539 100.044 21.6552 101.578 21.6552C102.145 21.6552 102.586 21.4872 102.985 20.9621H103.006L102.88 21.5502H104.287Z" fill="#F15A29"/>
<path d="M108.173 18.9864C108.047 19.5535 107.942 20.7508 107.06 20.7508C106.577 20.7508 106.619 20.2887 106.682 19.9106C106.892 18.9444 107.438 19.0074 108.173 18.9864ZM109.854 17.9152C110.064 16.949 109.98 16.1299 108.11 16.1299C107.543 16.1299 107.039 16.2139 106.64 16.487C106.241 16.739 105.947 17.1381 105.821 17.7682H107.27C107.354 17.3481 107.48 16.97 108.005 16.97C108.53 16.97 108.53 17.3061 108.446 17.7472L108.362 18.1463C106.997 18.1253 105.611 18.1883 105.254 19.9526C105.065 20.8768 105.275 21.6539 106.304 21.6539C106.955 21.6539 107.438 21.3809 107.858 20.8558H107.879L107.795 21.5489H109.182C109.224 21.2338 109.245 20.8768 109.329 20.5617L109.854 17.9152Z" fill="#F15A29"/>
<path d="M82.2832 36.1353H109.98V25.5342H82.2832V36.1353Z" fill="#152B75"/>
<path fill-rule="evenodd" clip-rule="evenodd" d="M87.7595 29.1664V29H88.5569L88.838 29.0115L89.0961 29.0459L89.3199 29.0918L89.5551 29.1606L89.8017 29.2524L90.0427 29.3729L90.2205 29.4819L90.4213 29.6253L90.5934 29.7744L90.7483 29.9408L90.8745 30.1014L90.9892 30.285L91.081 30.4743L91.1498 30.6579L91.2015 30.8644L91.2244 31.0537L91.2301 31.2602L91.2129 31.461L91.1728 31.6446L91.1154 31.8281L91.0294 32.0232L90.9204 32.2182L90.7941 32.4075L90.6393 32.5911L90.4672 32.7632L90.2779 32.9181L90.0828 33.0385L89.8763 33.1418L89.6641 33.2221L89.4461 33.2795L89.2223 33.3196L88.8667 33.354L88.6028 33.3713L88.2988 33.377H87.9431H87.7538V32.5739V31.6216H87.8456H88.7634L88.8495 31.6159C89.4059 31.4782 89.3944 30.8127 88.8208 30.7267L88.706 30.721H87.7825H87.748V30.0613L87.7595 29.1664Z" fill="white"/>
<path fill-rule="evenodd" clip-rule="evenodd" d="M85.127 29V33.3885H87.5248V29H85.127Z" fill="white"/>
<path fill-rule="evenodd" clip-rule="evenodd" d="M86.2851 33.0275H85.3214V31.0484V31.0254L85.3271 31.0197L85.3788 31.0082L85.4075 30.9967L85.4304 30.9795L85.4476 30.9566L85.4591 30.9336L85.4706 30.8935L85.4763 30.8648V30.8304L85.4648 30.7845L85.4419 30.7443L85.3902 30.6812L85.3386 30.6181L85.3099 30.5665L85.2927 30.5206L85.287 30.4862L85.2812 30.4518L85.287 30.4116L85.2985 30.3715L85.3099 30.3428L85.3386 30.3026L85.3788 30.2682L85.4132 30.2453L85.4533 30.2223L85.4763 30.2108L85.482 30.2051V30.1936L85.4476 30.142L85.4304 30.1018L85.4247 30.0789L85.4189 30.0445L85.4132 30.0043L85.4189 29.9642L85.4304 29.9297L85.4476 29.8896L85.482 29.8322L85.505 29.8035L85.5279 29.7806L85.5566 29.7576L85.5968 29.7347L85.6426 29.7175L85.6885 29.706L85.7344 29.7003L85.7746 29.6945L85.8377 29.7003L85.8836 29.706L85.8893 29.7003L85.8951 29.6888L85.9123 29.6487L85.9352 29.6085L85.9696 29.5626L86.0098 29.5224L86.0614 29.488L86.1016 29.4651L86.136 29.4536L86.2106 29.4364L86.2851 29.4307L86.3655 29.4364L86.3827 29.4421L86.4113 29.4479L86.4572 29.4651L86.5089 29.488L86.549 29.511L86.5949 29.5454L86.6236 29.5741L86.658 29.6257L86.681 29.6716L86.6924 29.6945L86.6982 29.7003H86.7154L86.8014 29.6831L86.8588 29.6773H86.9047L86.9506 29.6831L87.0022 29.7003L87.0424 29.7232L87.0653 29.7404L87.0883 29.7634L87.1284 29.815L87.1399 29.838L87.1514 29.8724L87.1628 29.9125L87.1686 29.9584L87.1628 30.0215L87.1514 30.0617L87.1284 30.1018L87.0768 30.1707V30.1764L87.0825 30.1822L87.1112 30.1879L87.1456 30.1936L87.1743 30.2051L87.2145 30.228L87.2489 30.2567L87.2718 30.2854L87.2948 30.3198L87.3062 30.36L87.312 30.3887V30.4403L87.2948 30.4919L87.2661 30.5493L87.2374 30.5952L87.1915 30.6583L87.1514 30.7271L87.1284 30.7902L87.1227 30.8419L87.1284 30.882L87.1456 30.9222L87.1628 30.9451L87.1858 30.9681L87.2145 30.9853L87.2431 30.9967L87.2833 31.0082L87.289 31.014V31.0426V31.0943V33.016H86.3597L86.2851 33.0275Z" fill="white"/>
<path fill-rule="evenodd" clip-rule="evenodd" d="M86.2962 33.0265V33.0208V33.0151L86.279 32.9979L86.2503 32.9749L86.2044 32.9405L86.1814 32.9118L86.1585 32.8717L86.1528 32.8659H86.1413L86.0667 32.8774H86.0266L85.9405 32.8544L85.9233 32.8487L85.9176 32.843V32.8372L85.9405 32.8028V32.7971L85.9348 32.7913L85.9118 32.7856L85.8545 32.7627L85.8086 32.7569L85.8028 32.7512L85.7971 32.7455L85.8028 32.7397L85.8258 32.7168L85.8545 32.7053L85.9004 32.6881L85.9061 32.6823V32.6766V32.6709L85.843 32.5963L85.8143 32.5504L85.8028 32.5275L85.7741 32.4873L85.7684 32.4701V32.4586L85.7799 32.4471L85.7856 32.4242L85.7914 32.4185L85.8086 32.4127L85.82 32.407L85.8315 32.3898L85.8372 32.384H85.8717H85.8831L85.9004 32.3668H85.9061L85.9176 32.3726H85.929L85.9405 32.3611L85.952 32.3554H85.9635L85.9807 32.3611H85.9921L85.9979 32.3554L86.0093 32.3439L86.0208 32.3382L86.0495 32.3439H86.0552L86.0724 32.3267L86.0782 32.3037L86.0724 32.2578L86.0667 32.2349L86.061 32.1603L86.0438 32.0743L86.038 32.0169L86.0323 31.971V31.9309L86.0266 31.8678L86.0151 31.776L86.0093 31.7588L85.9921 31.7071L85.9807 31.6612L85.9749 31.6153L85.9692 31.5809L85.9462 31.4433V31.3629V31.3285V31.2941L85.952 31.2138L85.9749 31.1277L86.0036 31.0532V31.0474H85.9979H85.9864L85.9749 31.0532L85.9635 31.0646L85.9405 31.0933L85.8889 31.1507L85.8717 31.1679L85.8602 31.1794L85.8545 31.2023L85.843 31.2195L85.8315 31.2425L85.8258 31.2539L85.8143 31.2654L85.8086 31.2769L85.8028 31.2941V31.3629L85.7971 31.3974L85.7914 31.426L85.7856 31.4433L85.7799 31.449L85.7512 31.4547L85.7397 31.4605L85.7225 31.4662L85.6881 31.4719H85.6766L85.6652 31.4605L85.6594 31.4433V31.4318L85.6709 31.4031V31.3916V31.3859L85.6594 31.3801L85.6537 31.3744L85.6479 31.3687V31.3572L85.6652 31.2998L85.6766 31.2654L85.6881 31.2425L85.7168 31.2138L85.7225 31.1851L85.7397 31.1679L85.7512 31.1507L85.7684 31.1335L85.8028 31.0819L85.8258 31.036L85.8487 30.9843V30.9729L85.843 30.9556L85.8143 30.9155L85.7741 30.8409L85.7627 30.8294L85.7455 30.8237L85.734 30.818L85.7225 30.8008L85.711 30.7835L85.7053 30.7663V30.7434L85.6881 30.7147L85.6824 30.709H85.6766L85.6709 30.7204L85.6652 30.7262H85.6594L85.6537 30.7204V30.709L85.6652 30.6688V30.6516L85.6594 30.6287V30.6114L85.6652 30.5942L85.6881 30.5656L85.7168 30.5426V30.5369L85.6996 30.5197L85.6938 30.5139L85.6996 30.5082L85.7053 30.5025L85.7397 30.491L85.7455 30.4852V30.4738L85.7397 30.468L85.7168 30.4738L85.711 30.468V30.4623V30.4451L85.7053 30.4394L85.6881 30.4336L85.6537 30.4164L85.6365 30.3992L85.625 30.382V30.3705L85.6307 30.3648L85.6594 30.3533L85.6709 30.3476H85.6824L85.6996 30.3418L85.7225 30.3361L85.7397 30.3304H85.7627L85.7741 30.3246H85.7856L85.7971 30.3304H85.82L85.8487 30.3361L85.8602 30.3418L85.8717 30.3533V30.3648L85.8545 30.3935L85.8372 30.4164L85.8258 30.4221L85.82 30.4336V30.4394L85.8258 30.4566V30.468L85.82 30.4738H85.8086L85.7914 30.468H85.7799L85.7741 30.4738V30.4852V30.5082L85.7971 30.5598L85.8028 30.5942L85.7971 30.6688L85.8028 30.6803L85.82 30.6975L85.8258 30.7204L85.8372 30.7377L85.843 30.7549L85.8602 30.7835L85.8889 30.8122H85.8946H85.9004L85.9061 30.8065L85.9405 30.6688L85.9577 30.6287L85.9921 30.5656L85.9979 30.5426L86.0093 30.5139L86.0266 30.4967L86.038 30.4795V30.468V30.4566L86.0151 30.4336L85.9749 30.3992L85.9176 30.3361L85.8889 30.2845L85.8717 30.2386L85.8602 30.1984L85.8545 30.1525L85.8487 30.1181V30.0665L85.8545 30.0148L85.8717 29.9632L85.9004 29.9001L85.9176 29.8714L85.9577 29.8255L85.9749 29.8083L85.9864 29.7969L86.0208 29.7739L86.0667 29.7452L86.1298 29.7223L86.1585 29.7165L86.2101 29.7051H86.2503L86.3019 29.7108L86.3478 29.7165L86.388 29.728L86.4281 29.7452L86.4797 29.7739L86.5084 29.7969L86.5371 29.8198L86.5658 29.8542L86.5887 29.8829L86.6289 29.9403L86.6518 29.9976L86.6633 30.0493L86.6691 30.0894V30.1353V30.1697L86.6576 30.2214L86.6404 30.273L86.6232 30.3189L86.5945 30.359L86.5773 30.382L86.5543 30.4107L86.5199 30.4451L86.497 30.4623L86.4912 30.4738V30.4852L86.5084 30.5082L86.5199 30.5254L86.5371 30.5656L86.5486 30.577L86.5658 30.5942L86.5945 30.6344L86.6232 30.686L86.6346 30.709V30.7262L86.6289 30.7491L86.6232 30.7663V30.7778V30.7835H86.6289L86.6346 30.7778L86.6576 30.7606L86.6633 30.7491V30.7262L86.6691 30.7147L86.692 30.6975L86.6977 30.6803L86.7207 30.6573V30.6459L86.7092 30.5426L86.7149 30.5139L86.7436 30.4795L86.7494 30.468V30.4623L86.7436 30.4566H86.7207H86.7092L86.7035 30.4508V30.4394L86.7092 30.4221V30.4107L86.7035 30.4049L86.6863 30.3935H86.6633L86.6576 30.3877L86.6518 30.382V30.3705L86.6633 30.3418L86.6805 30.3246L86.6863 30.3189H86.7092L86.7322 30.3074L86.7494 30.3132L86.7608 30.3074H86.778H86.7953L86.8067 30.3017H86.8182H86.8469L86.8641 30.3074L86.8813 30.3132L86.8928 30.3189L86.8985 30.3304L86.8928 30.3418L86.8756 30.3648L86.8411 30.3935L86.8354 30.3992L86.8411 30.4164V30.4279L86.8354 30.4336L86.8182 30.4394L86.8354 30.4508L86.8411 30.4623V30.4738L86.8297 30.491V30.4967L86.8354 30.5025L86.8526 30.5254L86.8584 30.5426V30.5598L86.8469 30.5942V30.6057L86.8641 30.6287L86.8756 30.6516V30.6573H86.8698H86.8641H86.8584L86.8526 30.6516L86.8469 30.6459H86.8354L86.8297 30.6516L86.8067 30.7032V30.7319L86.801 30.7377L86.7838 30.7549L86.778 30.7721L86.7723 30.7835L86.7551 30.795L86.7436 30.8065L86.7092 30.8639L86.6633 30.9155V30.9212L86.692 30.9614L86.7207 31.0015L86.7379 31.013L86.7608 31.0302L86.7895 31.0417L86.801 31.0474H86.8125L86.8239 31.0417L86.8469 31.0302L86.8641 31.0245H86.91L86.9272 31.0187L86.9387 31.0245L86.9444 31.036L86.9501 31.0417H86.9616L86.9903 31.0474L87.019 31.0532L87.0419 31.0646L87.0477 31.0761V31.0876L87.0305 31.1163L87.0247 31.122H87.0075L86.996 31.1277V31.1335L87.0018 31.1392V31.145L86.996 31.1507H86.9846L86.9157 31.145L86.8641 31.1507H86.8239H86.801L86.778 31.145H86.7666L86.7494 31.1507H86.7322L86.7149 31.145L86.692 31.1392L86.6748 31.1335L86.6518 31.1105L86.6117 31.0876L86.5601 31.0532L86.5371 31.0302L86.497 30.9843H86.4912L86.4855 30.9901L86.474 31.0187L86.4683 31.0474L86.474 31.0819L86.4912 31.1564L86.5027 31.2195L86.5084 31.3056V31.3572L86.5027 31.4375L86.4912 31.5178L86.4797 31.5809L86.4683 31.6612L86.4396 31.7817V31.8219V31.8563L86.4453 31.885L86.4568 31.9423V31.9882V32.0112V32.08L86.4511 32.1259L86.4568 32.1661V32.2119L86.4511 32.2636V32.2865L86.4568 32.3095L86.4683 32.3267L86.474 32.3324H86.4855L86.5027 32.3267L86.5142 32.3209H86.5256L86.5428 32.3382H86.5486L86.5773 32.3324H86.5887L86.6002 32.3382L86.6117 32.3439H86.6232L86.6461 32.3382H86.6633L86.6691 32.3439L86.6805 32.3611L86.6863 32.3668H86.7207L86.7322 32.3726L86.7494 32.3955L86.7608 32.4013H86.778H86.801L86.8067 32.407L86.8125 32.4299L86.8182 32.4357L86.8469 32.4414L86.8584 32.4471L86.8641 32.4529L86.8584 32.4586V32.4644L86.8641 32.4758L86.8698 32.4816V32.4873L86.8411 32.5102L86.7895 32.5676L86.7551 32.602L86.7092 32.6479L86.6691 32.6823L86.6633 32.6881L86.6691 32.6938L86.7149 32.7168L86.7436 32.7397L86.7666 32.7627L86.7723 32.7741V32.7856H86.7666H86.7207L86.6518 32.7913L86.6461 32.7971V32.8086L86.6576 32.8315V32.8372L86.6518 32.843H86.6346L86.5945 32.8487L86.5314 32.8602L86.4797 32.8544L86.4453 32.8487H86.4281L86.4224 32.8544L86.4052 32.8831L86.3822 32.9175L86.365 32.9348L86.3306 32.9749L86.3249 32.9864V32.9979V33.0036L86.2962 33.0265ZM86.4109 32.3783L86.4052 32.3668L86.4109 32.3783ZM86.0266 30.9843L86.0208 30.9958V31.0073H86.0266H86.0323H86.0438L86.0552 31.0015L86.061 30.9901L86.0667 30.9671V30.9384L86.061 30.9155L86.0552 30.9098H86.0495H86.0438L86.038 30.9212L86.0266 30.9843ZM86.4855 30.4107L86.497 30.4279H86.5027L86.5199 30.4164L86.5371 30.3992L86.5543 30.3877L86.5773 30.3648L86.6059 30.3246L86.6289 30.2845L86.6461 30.2386L86.6576 30.1869L86.6633 30.1353V30.0952L86.6518 30.0321L86.6404 29.9919L86.6289 29.969L86.5945 29.9173L86.5601 29.8772L86.5314 29.8485L86.497 29.8255L86.4511 29.8026L86.3994 29.7796L86.3363 29.7682H86.2847H86.2503L86.2159 29.7739L86.1642 29.7911L86.1126 29.8141L86.0724 29.837L86.0438 29.86L86.0093 29.8886L85.9864 29.9173L85.952 29.9747L85.9348 30.0148L85.929 30.0378L85.9176 30.0837L85.9118 30.1353L85.9176 30.1755L85.9233 30.2214L85.9405 30.273L85.9635 30.3132L85.9864 30.3476L86.0151 30.382L86.038 30.3992L86.0667 30.4221H86.0724L86.0782 30.4164L86.0954 30.3877L86.1011 30.3705V30.3189L86.1126 30.2959L86.1241 30.2558L86.1298 30.2271L86.1355 30.2042L86.1413 30.1812L86.1642 30.1468L86.17 30.1296L86.1757 30.0894V30.0607L86.1814 30.0435V30.0263V30.0034L86.1872 29.9919L86.2044 29.9804L86.2388 29.946L86.2618 29.9059V29.8829L86.2675 29.8714L86.279 29.86L86.2904 29.8542H86.3019L86.3134 29.86L86.3191 29.8772L86.3249 29.9059L86.3421 29.9403L86.365 29.969L86.388 29.9919L86.3994 30.0091L86.4052 30.0263V30.0435L86.3994 30.0665L86.4052 30.1238L86.4109 30.1411L86.4224 30.1583L86.4396 30.1812L86.4453 30.2042L86.4568 30.2673V30.2959L86.4683 30.3476L86.474 30.382L86.4855 30.4107ZM86.7895 30.4107H86.801H86.8297L86.8526 30.4049L86.8698 30.3935L86.8756 30.382L86.8813 30.3648V30.3533H86.8698L86.8584 30.3476H86.8526L86.8411 30.3533H86.8297L86.8182 30.3476H86.8125L86.8067 30.3533L86.801 30.359H86.7953L86.7895 30.3533H86.7838L86.7723 30.3648H86.7666L86.7494 30.3533H86.7436H86.7379V30.359V30.3705L86.7436 30.382L86.7608 30.3877L86.7895 30.4107ZM85.7168 30.4279L85.7512 30.4336L85.7856 30.4279L85.8258 30.4164L85.843 30.4107L85.8545 30.3992V30.3877L85.843 30.382H85.8372L85.82 30.3877H85.8143L85.8086 30.3763L85.8028 30.3705H85.7971L85.7914 30.3763V30.3877L85.7856 30.3935L85.7799 30.3877L85.7741 30.3763H85.7684H85.7627L85.7569 30.3877L85.7512 30.3935H85.7455L85.7397 30.3877L85.734 30.382L85.7225 30.3877H85.711H85.7053L85.6996 30.3935L85.6881 30.3992V30.4049V30.4107L85.7053 30.4279H85.7168ZM86.9042 30.3705L86.8985 30.3763V30.382L86.9042 30.3763V30.3705ZM86.3019 30.2042L86.2962 30.1984H86.2904V30.2042V30.2099H86.2962L86.3019 30.2042ZM86.4109 30.1812L86.4052 30.1869V30.1927L86.4109 30.1984H86.4166V30.1927L86.4109 30.1812ZM86.256 30.1984H86.2445H86.2388V30.2042V30.2099H86.2445H86.2503L86.256 30.1984ZM86.1987 30.1812L86.1929 30.1755V30.1697L86.1987 30.164H86.2101L86.2159 30.1697L86.2216 30.1755H86.2273L86.2216 30.164V30.1583L86.2101 30.164L86.1929 30.1755L86.1814 30.1927V30.2042V30.2099H86.1872L86.1987 30.2042L86.2044 30.1984L86.1987 30.1812ZM86.3765 30.164L86.3708 30.1755V30.1812H86.3822L86.388 30.1755L86.3937 30.164V30.1583L86.388 30.1525L86.3708 30.1468V30.1525L86.3765 30.164ZM86.3535 30.1468L86.3478 30.164L86.3535 30.1697H86.3593V30.164V30.1583L86.365 30.1468H86.3535ZM86.2388 30.1525L86.2445 30.164L86.2503 30.1755V30.1697V30.1583L86.2445 30.1525H86.2388ZM86.3708 30.1009L86.365 30.1181V30.1238H86.3708L86.3765 30.1181V30.1124V30.0952L86.3708 30.0837L86.3593 30.078L86.3306 30.0722L86.2904 30.0665L86.2618 30.0722L86.2388 30.078L86.2331 30.0837L86.2445 30.0894L86.2503 30.0952V30.1066L86.2445 30.1124H86.2331H86.2273L86.2216 30.1066L86.2159 30.0952L86.2101 30.0837H86.2044L86.1987 30.0952L86.1929 30.1124L86.1987 30.1238H86.2101L86.2445 30.1181L86.2618 30.1124L86.279 30.1066L86.3019 30.1124H86.3191H86.3249L86.3306 30.1009L86.3421 30.0952H86.3535H86.3593L86.3708 30.1009ZM86.2847 30.0837L86.2904 30.078H86.2962L86.3076 30.0837L86.3134 30.0894V30.0952L86.3019 30.1066H86.2962L86.2904 30.1009L86.2847 30.0952V30.0837ZM86.3134 30.0435L86.3478 30.0493H86.3535V30.0435V30.0378L86.3478 30.0321L86.2962 30.0263L86.2618 30.0321L86.256 30.0378V30.0435V30.0493H86.2618L86.2847 30.0435H86.3134ZM86.3306 30.0034L86.3593 30.0091H86.3708L86.3421 30.0034H86.2962L86.2388 30.0091L86.2273 30.0148V30.0206L86.2331 30.0263H86.2388L86.2732 30.0206L86.3306 30.0034ZM86.2847 29.9632H86.3019H86.3249V29.9575H86.3191L86.3076 29.9517H86.2847L86.2732 29.9575V29.9632H86.2847Z" fill="#ED1C24"/>
<path fill-rule="evenodd" clip-rule="evenodd" d="M86.3715 32.3283L86.3601 32.311L86.3199 32.2479L86.3142 32.225L86.3084 32.2078V32.1963L86.297 32.1562L86.2912 32.1504V32.1332L86.2855 32.1045L86.274 32.0816L86.2568 31.9898L86.2511 31.9324L86.2453 31.898V31.8865L86.2511 31.898L86.2625 31.9267V31.9439L86.2683 31.9554V31.9726L86.274 32.007L86.2912 32.0816L86.3084 32.1332L86.3314 32.1906L86.3658 32.2537L86.3887 32.2938L86.4117 32.3397V32.3455H86.4002H86.3945H86.3887V32.334L86.3715 32.3283ZM86.2052 32.2537L86.188 32.2078L86.1765 32.1562L86.1708 32.1275L86.1535 32.0586L86.1478 32.0127V31.9726V31.9554L86.1535 31.921V31.9037V31.8923L86.1593 31.898L86.1765 31.9783L86.1937 32.1103L86.1994 32.1619L86.2109 32.202L86.2224 32.2537V32.2652V32.2709L86.2166 32.2594L86.2052 32.2537ZM86.4232 31.9841L86.4002 31.9726L86.3773 31.9611L86.3543 31.9382L86.3256 31.9037L86.3027 31.8521L86.2912 31.8062L86.2855 31.7489L86.2797 31.6858L86.2855 31.68H86.2912L86.297 31.6858V31.7144L86.3027 31.7603V31.8005L86.3142 31.8406L86.3314 31.8865L86.3486 31.9152L86.3773 31.9439L86.3887 31.9554L86.4117 31.9726L86.4346 31.9841L86.4461 31.9898V31.9955L86.4404 32.0013L86.4346 31.9955V31.9898L86.4232 31.9841ZM86.0675 31.7947L86.0904 31.7661L86.1306 31.7259L86.1593 31.6972L86.1822 31.6685L86.2166 31.6112L86.2511 31.5481L86.274 31.4965L86.2855 31.4678L86.3142 31.3932L86.3371 31.3186L86.3773 31.1924L86.4232 31.0777L86.4461 31.0261L86.4576 30.9916L86.4805 30.9343L86.5551 30.7851L86.5781 30.7507L86.601 30.7105L86.6067 30.6991V30.6819L86.5953 30.6589L86.5781 30.636L86.5608 30.6245L86.5379 30.6188L86.4748 30.5614L86.4576 30.5499H86.4461H86.4404L86.4346 30.5557V30.6188V30.636L86.4174 30.5729L86.4117 30.5557L86.406 30.5499H86.4002L86.3945 30.5614L86.3887 30.5958V30.6188V30.636L86.3715 30.7105L86.3601 30.7909L86.3543 30.8367L86.3314 30.9285L86.3027 31.0261L86.2855 31.0834L86.2568 31.1637L86.2511 31.1809L86.2453 31.1982L86.2511 31.1867L86.274 31.135L86.297 31.0719L86.3084 31.0375L86.3142 31.0203V31.0088L86.3256 30.9802L86.3371 30.94L86.3543 30.8769L86.3658 30.8253L86.3715 30.8023L86.3773 30.7851L86.383 30.7564L86.3887 30.7278L86.3945 30.6876L86.4002 30.6704L86.406 30.636L86.4117 30.6245V30.6015L86.4232 30.5212L86.4289 30.5098H86.4346L86.492 30.5384L86.5436 30.5671L86.5781 30.5843L86.6182 30.613L86.6412 30.6474L86.6698 30.6933L86.6813 30.7163V30.7278L86.6698 30.745L86.6067 30.854L86.5723 30.9343L86.5608 30.9629L86.5379 31.0088L86.5092 31.0777L86.4633 31.2383L86.4346 31.3186L86.4232 31.3416L86.4002 31.4047L86.3945 31.4276L86.3199 31.594L86.3027 31.6284L86.2912 31.6513L86.274 31.6743L86.2396 31.7202L86.1994 31.7603L86.1593 31.7947L86.1249 31.8177H86.1134H86.1076L86.1019 31.812L86.0675 31.7947ZM86.0273 31.1293L86.0388 31.1006L86.0847 31.0146L86.0962 30.9744L86.1019 30.9457L86.0904 30.8826L86.079 30.8482V30.8253L86.0847 30.8023L86.1134 30.7622L86.1535 30.722L86.1994 30.6819L86.2797 30.636L86.3314 30.6073L86.3371 30.6015H86.3429V30.6073L86.3371 30.6245L86.3142 30.6532L86.2912 30.6761L86.2568 30.6991L86.188 30.7507L86.1363 30.7966L86.1191 30.8138L86.1134 30.831V30.854V30.8941L86.1191 30.94V30.9687V30.9744L86.1249 30.9802H86.1363L86.1765 30.9572L86.188 30.9515H86.1937L86.188 30.9687L86.1593 31.0031L86.1363 31.0203L86.1134 31.0375L86.0904 31.0605L86.0732 31.0892L86.0388 31.158V31.1465L86.0273 31.1293ZM86.4977 30.7679V30.7392V30.7163V30.7105L86.5035 30.722V30.7564L86.4977 30.7851L86.492 30.7966V30.7851L86.4977 30.7679Z" fill="white"/>
<path fill-rule="evenodd" clip-rule="evenodd" d="M86.2907 32.9634L86.2506 32.9405L86.2276 32.9233L86.2104 32.9003L86.1989 32.8774V32.8544L86.2047 32.843L86.2161 32.82L86.2391 32.8028L86.2735 32.7971H86.2964H86.3251L86.371 32.8143L86.394 32.8257L86.4054 32.843L86.4112 32.8602V32.8774L86.4054 32.9061L86.394 32.9233L86.3768 32.9405L86.3251 32.9806H86.3137L86.3022 32.9749L86.2907 32.9634ZM86.5374 32.8659L86.4972 32.8544L86.4685 32.8372L86.4456 32.82L86.4341 32.8085V32.8028V32.7971L86.4456 32.7913L86.4915 32.7799H86.5087L86.5431 32.7856L86.5718 32.7971L86.612 32.82L86.6292 32.8315L86.6349 32.8372V32.843L86.6292 32.8487L86.5775 32.8659H86.5374ZM86.0268 32.843H86.0096L85.9752 32.8372L85.9695 32.8315V32.8257L85.9809 32.8143L86.0039 32.8028L86.0383 32.7913L86.0785 32.7799H86.0957L86.1473 32.7913L86.1702 32.7971L86.176 32.8028V32.8143L86.153 32.8315L86.1186 32.8487L86.0842 32.8544L86.044 32.8602L86.0268 32.843ZM86.6693 32.7799L86.6349 32.7741L86.6234 32.7684L86.6177 32.7626V32.7569V32.7512L86.6234 32.7454H86.6464L86.6865 32.7512L86.7152 32.7626L86.721 32.7684V32.7741V32.7799L86.7152 32.7856H86.6808L86.6693 32.7799ZM86.3079 32.7569L86.285 32.7512L86.262 32.734L86.2391 32.711L86.2219 32.6709L86.2104 32.625V32.5848L86.2161 32.5676L86.2219 32.5332L86.2391 32.5045L86.2792 32.4529L86.3137 32.4184L86.3251 32.4127H86.3366L86.3481 32.4184L86.394 32.4701L86.4227 32.516L86.4399 32.5733L86.4456 32.6078L86.4399 32.6536L86.4341 32.6766L86.4227 32.7053L86.3997 32.734L86.3825 32.7512L86.3653 32.7626L86.3251 32.7684L86.3079 32.7569ZM85.9637 32.7569H85.9465L85.8777 32.7397L85.8719 32.734V32.7282L85.8777 32.7225L85.9006 32.711L85.9293 32.7053H85.9465L85.9752 32.7168L86.0211 32.7397V32.7454V32.7512L86.0154 32.7569L85.9924 32.7626L85.9637 32.7569ZM86.4456 32.7225L86.4628 32.6766L86.4743 32.625V32.5791L86.4858 32.5504L86.503 32.5217L86.5202 32.5045L86.5603 32.4701L86.5947 32.4529L86.612 32.4471H86.6234L86.6292 32.4529V32.4643L86.612 32.5045L86.6005 32.5561L86.589 32.5963L86.5661 32.6536L86.5431 32.6881L86.5202 32.711L86.4915 32.734L86.4628 32.7454H86.4513H86.4456V32.7397V32.7225ZM86.5546 32.7053L86.5718 32.6766L86.589 32.6364L86.6062 32.5791L86.6177 32.5561L86.6406 32.5274L86.6865 32.4988L86.7267 32.4873H86.7382H86.7439V32.493V32.5045L86.721 32.5389L86.6693 32.6307L86.6406 32.6709L86.6005 32.7053L86.5603 32.734L86.5489 32.7397H86.5431L86.5546 32.7053ZM86.1817 32.7225L86.1588 32.7053L86.1416 32.6823L86.1071 32.6307L86.0899 32.5905L86.0727 32.5332L86.0613 32.4988L86.044 32.4529V32.4471L86.0498 32.4414H86.0727L86.1014 32.4471L86.153 32.4701L86.1702 32.4815L86.1875 32.5045L86.1932 32.516L86.1875 32.5619V32.602V32.625L86.1932 32.6651L86.2104 32.7168V32.7225H86.2047H86.1932H86.1817ZM86.0899 32.7225L86.067 32.711L86.0555 32.6995L86.0326 32.6823L86.0211 32.6709L85.9924 32.625L85.9695 32.5791L85.9465 32.516L85.935 32.4873V32.4758L85.9408 32.4701H85.958L85.9924 32.4873L86.0154 32.4988L86.0268 32.5102L86.0383 32.5389L86.0498 32.5561V32.5676V32.5848L86.0842 32.6594L86.1071 32.6995L86.1186 32.711V32.7168V32.7225H86.1071H86.0899ZM86.6923 32.6364L86.7382 32.5561L86.7496 32.5389L86.7726 32.5217L86.7898 32.516L86.8185 32.5045H86.8357L86.8472 32.5102V32.516V32.5217L86.8242 32.5447L86.7554 32.6192L86.7152 32.6536L86.698 32.6651H86.6923V32.6594V32.6364ZM85.9408 32.6364L85.9178 32.6135L85.8834 32.5733L85.8662 32.5332L85.849 32.4988V32.493V32.4873L85.8605 32.4815L85.8949 32.493L85.9121 32.5045L85.9236 32.516L85.9465 32.5848L85.9695 32.6364V32.6422V32.6479H85.9637L85.9408 32.6364ZM86.4456 32.4988L86.4399 32.4815V32.4701L86.4513 32.4643L86.4685 32.4586H86.48L86.4858 32.4643L86.4915 32.4758V32.4873L86.4743 32.516L86.4628 32.5217H86.4571L86.4513 32.5102L86.4456 32.4988ZM86.6406 32.4701L86.6521 32.4529L86.6636 32.4471H86.6751L86.6808 32.4529L86.6865 32.4701V32.4815L86.6751 32.4873L86.6349 32.5045H86.6292V32.4988V32.4873L86.6406 32.4701ZM86.7841 32.4643L86.7783 32.4586L86.7668 32.4529H86.7324H86.7152L86.7095 32.4471L86.7037 32.4242L86.698 32.4184L86.6923 32.4127H86.6521L86.6464 32.407L86.6406 32.3898L86.6349 32.384H86.6292L86.6005 32.3955H86.589L86.5718 32.384L86.5489 32.3898L86.5316 32.3955L86.5259 32.3898L86.5087 32.3726V32.3668L86.5259 32.3726L86.5316 32.3668L86.5546 32.3496H86.5661L86.5718 32.3553L86.5833 32.3783L86.589 32.384H86.6005L86.6292 32.3668H86.6406H86.6464L86.6521 32.3726L86.6579 32.3898L86.6636 32.3955L86.6751 32.3898L86.6923 32.384H86.7037H86.7095L86.7152 32.3898L86.721 32.407L86.7267 32.4127L86.7554 32.407H86.7726L86.7783 32.4127V32.4299L86.7841 32.4357L86.7955 32.4414H86.83H86.8357L86.8414 32.4471V32.4586L86.8472 32.4643L86.8644 32.4701L86.8013 32.4873H86.7955H86.7898V32.4815L86.7841 32.4643ZM86.1875 32.4701L86.176 32.4586V32.4471L86.1875 32.4357L86.1932 32.4299H86.2047L86.2219 32.4414L86.2276 32.4529V32.4586L86.2219 32.4701L86.2161 32.4758H86.2104L86.1875 32.4701ZM86.503 32.4471L86.4915 32.4299V32.4242L86.5087 32.4299L86.5202 32.4242L86.5316 32.4184H86.5374L86.5489 32.4299L86.5546 32.4357L86.589 32.4242H86.5947H86.6005V32.4299L86.5947 32.4357L86.5489 32.4529L86.5144 32.4701H86.503L86.4972 32.4643L86.503 32.4471ZM85.8949 32.4357L85.8834 32.4414V32.4471V32.4643V32.4701H85.8719L85.8261 32.4586L85.8203 32.4529V32.4471H85.8261L85.8433 32.4414L85.8605 32.4242L85.8662 32.4184L85.8834 32.4242H85.8949L85.9121 32.407L85.9178 32.4012L85.9408 32.407H85.9523L85.9637 32.3955L85.9695 32.3898H85.9809L85.9982 32.4012H86.0096L86.0211 32.3955L86.0383 32.3726L86.044 32.3668L86.0727 32.3726L86.0899 32.3668H86.0957V32.3726V32.3783L86.0785 32.384L86.0613 32.4012L86.044 32.4127H86.0326L86.0211 32.407L85.9982 32.4012H85.9752L85.9695 32.407L85.9523 32.4299L85.9408 32.4357H85.9236H85.8949ZM85.9924 32.4357L85.9982 32.4414V32.4471V32.4529H85.9924L85.9867 32.4471L85.9924 32.4357ZM86.0899 32.4127H86.1014L86.1071 32.4184V32.4242H86.0957H86.0899H86.0842V32.4184L86.0899 32.4127Z" fill="white"/>
<path fill-rule="evenodd" clip-rule="evenodd" d="M85.9645 30.9036L85.9473 30.8979V30.8922V30.8864H85.953H85.9645L86.0046 30.8979V30.9036H85.9932H85.9759H85.9645ZM85.9817 30.8692L85.9645 30.8635L85.9587 30.8578V30.852H85.9702L86.0161 30.8692H86.0046H85.9817ZM85.9817 30.8405L85.9587 30.8291L85.953 30.8233V30.8176H85.9645L86.0161 30.8405H85.9989H85.9817ZM86.0448 30.7832L86.039 30.8061L86.0333 30.8119H86.0218L85.9874 30.8061L85.9702 30.7947L85.9587 30.7832V30.7717L85.9702 30.7201L85.9817 30.6857L85.9932 30.657L86.0104 30.6226L86.0276 30.6053L86.0563 30.5824L86.0964 30.5594L86.1136 30.5537H86.1194V30.5594V30.5824L86.1251 30.6111L86.1366 30.6398L86.1423 30.657V30.6684L86.0907 30.7201L86.0849 30.7258H86.0792H86.0735L86.0677 30.7143H86.062H86.0563L86.0505 30.7258L86.0448 30.743V30.7832Z" fill="white"/>
<path fill-rule="evenodd" clip-rule="evenodd" d="M85.7584 31.4153L85.7699 31.3981H85.7756V31.4153L85.7641 31.4382L85.7584 31.444H85.7527V31.4382L85.7584 31.4153ZM85.7183 31.4038L85.7125 31.421L85.7068 31.4325H85.701V31.4268L85.7068 31.4153L85.7183 31.3809V31.3522L85.724 31.3407L85.7469 31.3235V31.3178H85.7355L85.7183 31.3235L85.7125 31.3292V31.3407L85.7068 31.3579L85.701 31.3637H85.6953V31.3579V31.3522L85.701 31.335L85.7183 31.2776L85.7297 31.2547L85.7469 31.2375L85.7699 31.2202H85.7871L85.8043 31.226L85.8215 31.2375L85.8273 31.2432V31.2604L85.8215 31.3006V31.3292V31.3522L85.8158 31.3637L85.8043 31.3694L85.7756 31.3751H85.7469H85.7355L85.7297 31.3809L85.7183 31.4038ZM85.7986 31.3981L85.8043 31.3923L85.81 31.3981V31.4153L85.8043 31.421L85.7986 31.4268H85.7928L85.7986 31.3981ZM86.8713 31.1571L86.8369 31.1514L86.8254 31.1457L86.8197 31.1399V31.1285V31.1113L86.8312 31.094L86.8369 31.0883L86.8656 31.0826L86.877 31.0768L86.8885 31.0654L86.9057 31.0539L86.9172 31.0481L86.9746 31.0424H86.9803V31.0481V31.0539L86.9688 31.0596L86.9516 31.0654L86.9459 31.0711L86.9287 31.1055L86.9229 31.1113V31.117L86.9287 31.1227H86.9344L86.9459 31.1113L86.9574 31.094L86.9631 31.0883L86.986 31.0826L86.9918 31.1055L86.9803 31.117L86.9688 31.1342L86.9574 31.1399L86.9115 31.1514H86.8713V31.1571ZM86.9918 31.1457V31.1399L86.9975 31.1342H87.009L87.0205 31.1399L87.0319 31.1457V31.1514H87.0262H87.009L86.9918 31.1457ZM85.8445 31.1457L85.8273 31.1399L85.8215 31.1342V31.1227L85.8445 31.0596L85.8674 31.0195L85.9076 30.9621L85.919 30.9334L85.9248 30.9277H85.942L85.9994 30.9392L86.0051 30.9449V30.9564L85.9936 30.9965L85.9707 31.0424L85.9477 31.0768L85.919 31.117L85.8789 31.1571L85.8617 31.1686H85.8502L85.8445 31.1457ZM87.0262 31.117H87.0032H86.9975L87.009 31.1113L87.0434 31.117L87.0549 31.1227H87.0606H87.0491L87.0377 31.117H87.0262ZM86.6763 31.0826L86.6418 31.0596L86.6132 31.0367L86.5959 31.0137L86.5787 30.985L86.573 30.9564L86.5787 30.9392L86.6017 30.876L86.6132 30.8588L86.6189 30.8531H86.6304L86.6418 30.8646L86.6705 30.9449L86.682 30.9621L86.7451 31.0309L86.7508 31.0424L86.7451 31.0481L86.7279 31.0711L86.7164 31.094L86.7107 31.0998L86.6992 31.094L86.6763 31.0826ZM85.8617 30.9334L85.8273 30.8875L85.8043 30.8416V30.8302L85.81 30.8244L85.8387 30.8072H85.8502L85.8559 30.8129L85.8789 30.8416L85.9076 30.876L85.9133 30.8933L85.9076 30.9277L85.8961 30.9449L85.8904 30.9506H85.8789L85.8674 30.9449L85.8617 30.9334ZM86.6648 30.876L86.6533 30.8359V30.8244L86.6591 30.8129L86.682 30.79L86.7049 30.7785H86.7164L86.7279 30.7843L86.7566 30.8072V30.8129L86.7508 30.8244L86.7279 30.8588L86.7049 30.8818L86.682 30.899L86.6705 30.9047H86.6648L86.6591 30.899L86.6648 30.876ZM85.7355 30.7384L85.7297 30.7269L85.724 30.7097L85.7297 30.6925V30.6867H85.7355H85.7412H85.7469L85.7527 30.681L85.7699 30.6351V30.6179L85.7641 30.6007V30.5892L85.7699 30.5835H85.7756H85.7814L85.7871 30.5892L85.7986 30.6179L85.8043 30.6408L85.81 30.6638V30.7154L85.8043 30.7269L85.7871 30.7384L85.7814 30.7441H85.7699L85.7355 30.7384ZM86.7967 30.7097L86.791 30.704V30.6925L86.7967 30.6523L86.7853 30.572V30.5548L86.791 30.5376V30.5548V30.5605H86.7967L86.8025 30.5548L86.8139 30.5376H86.8197H86.8254V30.5433V30.5548L86.8139 30.5777V30.595L86.8312 30.6294L86.8369 30.6523V30.6638L86.8426 30.6695H86.8484L86.8598 30.6638L86.8656 30.6753L86.8598 30.6982L86.8484 30.7212L86.8369 30.7384H86.8254H86.8082L86.7967 30.7097ZM86.1542 30.6122L86.1485 30.5835V30.572L86.1772 30.6179L86.1829 30.6294V30.6351L86.1772 30.6408L86.1714 30.6466H86.1657L86.16 30.6408L86.1542 30.6122ZM86.2116 30.6064L86.2001 30.5835L86.1944 30.5605L86.2001 30.5491L86.2116 30.5261L86.2173 30.5146H86.2231H86.2288L86.2518 30.5261L86.2804 30.5319H86.3091L86.3263 30.5261L86.3435 30.5204H86.3493L86.355 30.5261V30.5376L86.3493 30.5548L86.3206 30.5835L86.2862 30.6064L86.2518 30.6236L86.2346 30.6294H86.2231L86.2173 30.6236L86.2116 30.6064ZM85.7412 30.6007L85.7469 30.6064V30.6122V30.6179L85.7412 30.6236H85.7355H85.7297L85.724 30.6179V30.6064L85.7412 30.6007ZM85.7814 30.572H85.7871L85.7928 30.5892V30.595V30.6007L85.7871 30.595L85.7814 30.572ZM86.8484 30.5376V30.5548L86.8426 30.5605H86.8369H86.8312V30.5491L86.8484 30.5376Z" fill="white"/>
<path fill-rule="evenodd" clip-rule="evenodd" d="M86.1659 30.4569L86.1602 30.4741L86.1659 30.4799H86.1716L86.1774 30.4741V30.4626L86.1716 30.4569L86.1659 30.4512V30.4569Z" fill="white"/>
<path fill-rule="evenodd" clip-rule="evenodd" d="M86.1715 30.2675L86.1658 30.2617H86.16L86.1543 30.2675V30.2732V30.2789L86.1715 30.2675Z" fill="white"/>
<path fill-rule="evenodd" clip-rule="evenodd" d="M86.3082 30.1639L86.3025 30.1582H86.2968L86.291 30.1639V30.1697V30.1754L86.3082 30.1639Z" fill="white"/>
<path fill-rule="evenodd" clip-rule="evenodd" d="M86.3142 30.1708L86.3085 30.165H86.3027V30.1708V30.1765V30.1822L86.3142 30.1708Z" fill="white"/>
<path fill-rule="evenodd" clip-rule="evenodd" d="M86.3259 30.4913L86.3087 30.497L86.2858 30.5028L86.2628 30.497L86.2399 30.4798L86.2226 30.4626L86.2112 30.4454L86.194 30.4167L86.1882 30.411H86.1768H86.1653L86.1595 30.4052V30.3938V30.388H86.1653L86.171 30.3823V30.3766V30.3651L86.1653 30.3479L86.1595 30.3421H86.1481L86.1366 30.3307L86.1309 30.3135V30.3077H86.1366H86.1538L86.1595 30.3135H86.1653H86.171L86.1882 30.2905L86.2112 30.2504L86.2226 30.2389L86.2399 30.2274L86.2628 30.2217L86.2858 30.2274H86.3087L86.3259 30.2217H86.3374L86.3603 30.2331L86.3718 30.2446L86.3833 30.2676V30.279H86.3775H86.3489L86.3259 30.2848V30.2905V30.2963V30.302L86.3374 30.3077H86.3661L86.3775 30.3135L86.389 30.3192H86.4005L86.4062 30.3249L86.412 30.3479L86.4177 30.3651L86.4234 30.3766V30.3995L86.4177 30.4052L86.412 30.411L86.4005 30.4052H86.3947L86.389 30.4167L86.3775 30.4397L86.3489 30.4741L86.3259 30.4913Z" fill="white"/>
<path fill-rule="evenodd" clip-rule="evenodd" d="M86.4004 30.4462V30.4634L86.4061 30.4691H86.4119H86.4176L86.4233 30.4576V30.4519L86.4176 30.4462L86.4119 30.4404H86.4061L86.4004 30.4462Z" fill="white"/>
<path fill-rule="evenodd" clip-rule="evenodd" d="M86.4354 30.3193L86.4297 30.3308L86.4354 30.3365H86.4412H86.4469V30.3308V30.3193H86.4354Z" fill="white"/>
<path fill-rule="evenodd" clip-rule="evenodd" d="M86.2693 30.4449L86.2808 30.4564H86.2922L86.3094 30.4507L86.3209 30.4392V30.4277V30.422L86.3094 30.4163L86.3037 30.4105V30.4048L86.3094 30.3933V30.3876H86.3037H86.2922L86.275 30.3818H86.2635V30.3876L86.2693 30.3933L86.2808 30.4048L86.2635 30.4105L86.2578 30.422V30.4277L86.2693 30.4449Z" fill="#ED1C24"/>
<path fill-rule="evenodd" clip-rule="evenodd" d="M86.3319 30.3425L86.3434 30.354L86.3549 30.3597H86.3663L86.3835 30.3483L86.395 30.3425V30.3368L86.3835 30.3253L86.3721 30.3196H86.3549L86.3376 30.3253L86.3262 30.3368V30.3425H86.3319Z" fill="#ED1C24"/>
<path fill-rule="evenodd" clip-rule="evenodd" d="M86.2624 30.3415H86.2796L86.2854 30.353H86.2911V30.3415L86.2854 30.3301L86.2682 30.3186H86.2739L86.2796 30.3129V30.3071V30.3014L86.2624 30.2899L86.2452 30.2842L86.2223 30.2899L86.2108 30.2956L86.2051 30.3014V30.3071V30.3129H86.2108L86.2338 30.3071H86.2395L86.2223 30.3129L86.2108 30.3243V30.3358L86.2223 30.3415L86.228 30.353L86.2452 30.3588H86.2567L86.2624 30.3415Z" fill="#ED1C24"/>
<path fill-rule="evenodd" clip-rule="evenodd" d="M86.3083 30.2734L86.2969 30.2792V30.2849V30.2906L86.3026 30.2964H86.3083L86.3141 30.2906V30.2849L86.3083 30.2734Z" fill="#ED1C24"/>
<path fill-rule="evenodd" clip-rule="evenodd" d="M86.3142 30.1522L86.3085 30.1465H86.3027V30.1522V30.158V30.1637L86.3142 30.1522Z" fill="white"/>
<path fill-rule="evenodd" clip-rule="evenodd" d="M86.2966 30.1483L86.2909 30.1426H86.2852V30.1483V30.154V30.1598L86.2966 30.1483Z" fill="white"/>
<path fill-rule="evenodd" clip-rule="evenodd" d="M86.2908 30.1639L86.285 30.1582H86.2793V30.1639V30.1697V30.1754L86.2908 30.1639Z" fill="white"/>
<path fill-rule="evenodd" clip-rule="evenodd" d="M86.3025 30.1757L86.2968 30.1699H86.291V30.1757V30.1814V30.1871L86.3025 30.1757Z" fill="white"/>
<path fill-rule="evenodd" clip-rule="evenodd" d="M86.193 30.246L86.1873 30.2402H86.1815L86.1758 30.246V30.2517V30.2574L86.193 30.246Z" fill="white"/>
<path fill-rule="evenodd" clip-rule="evenodd" d="M86.1891 30.2391L86.1833 30.2334H86.1776L86.1719 30.2391V30.2449V30.2506L86.1891 30.2391Z" fill="white"/>
<path fill-rule="evenodd" clip-rule="evenodd" d="M86.2125 30.2157L86.2068 30.21H86.2011L86.1953 30.2157V30.2214V30.2272L86.2125 30.2157Z" fill="white"/>
<path fill-rule="evenodd" clip-rule="evenodd" d="M86.3531 30.1991L86.3474 30.1934H86.3417L86.3359 30.1991V30.2048V30.2106L86.3531 30.1991Z" fill="white"/>
<path fill-rule="evenodd" clip-rule="evenodd" d="M86.4117 30.2391L86.406 30.2334H86.4003L86.3945 30.2391V30.2449V30.2506L86.4117 30.2391Z" fill="white"/>
<path fill-rule="evenodd" clip-rule="evenodd" d="M86.3883 30.2157L86.3826 30.21H86.3768L86.3711 30.2157V30.2214V30.2272L86.3883 30.2157Z" fill="white"/>
<path d="M95.4453 30.8125H104.926V31.1223H95.4453V30.8125Z" fill="white"/>
<path fill-rule="evenodd" clip-rule="evenodd" d="M97.4123 33.1925H96.9477L96.9076 33.181L96.8904 33.1695L96.8789 33.1237L96.8846 32.854L96.9018 32.8081L96.9477 32.7909L97.0166 32.7852L97.0338 32.7737L97.0452 32.7565L97.0567 31.7067L97.0395 31.6608L97.0223 31.6494L96.9305 31.6322L96.9133 31.6149L96.8961 31.5691L96.9018 31.2994L96.9191 31.2593L96.9592 31.2421H97.5958L97.8998 31.265L98.0719 31.3166L98.1465 31.3625L98.3013 31.5002L98.3701 31.5977L98.4332 31.7297L98.4791 31.8731L98.5135 32.0624L98.5193 32.2345L98.5135 32.4066L98.4676 32.6188L98.4046 32.7795L98.33 32.8999L98.1866 33.0491L98.0719 33.1294L97.9457 33.1638L97.7507 33.1982H97.5041L97.4123 33.1925ZM102.505 32.0968L102.5 32.1714L102.511 32.1886L102.534 32.1943H102.643L102.729 32.1886L102.741 32.1771L102.746 32.1542V32.1312L102.637 31.7125L102.626 31.701L102.614 31.7067L102.603 31.7239L102.505 32.0968ZM97.4811 32.5959V32.7278L97.4926 32.7737L97.5098 32.7852L97.5729 32.8024L97.745 32.7737L97.8482 32.7278L97.9228 32.6705L97.9801 32.5902L98.026 32.4754L98.0489 32.355L98.0547 32.1542L98.0375 32.005L97.9916 31.8673L97.94 31.787L97.8712 31.7239L97.7908 31.6838L97.7048 31.6551L97.527 31.6379L97.5041 31.6494L97.4926 31.6666L97.4869 31.7125L97.4811 32.5959ZM99.6434 33.1982H98.9609H98.6512L98.6282 33.1925L98.611 33.1753L98.5996 33.1237V32.854L98.6053 32.8311L98.6168 32.8139L98.6627 32.8024L98.7315 32.7967L98.7487 32.7795L98.7602 32.7336V31.9763L98.7544 31.6895L98.743 31.6723L98.7028 31.6608L98.6569 31.6551L98.634 31.6494L98.6168 31.6379L98.6053 31.592V31.3166L98.611 31.2937L98.6225 31.2765L98.6627 31.2593H99.7581L99.9589 31.265L99.9818 31.2707L99.999 31.2822L100.016 31.3281L100.011 31.7411L100.005 31.9362L99.999 31.9591L99.9818 31.9763L99.9359 31.9878L99.7581 31.9821L99.7237 31.9591L99.632 31.7067L99.6147 31.6895L99.5689 31.678H99.2362L99.2133 31.6838L99.1961 31.6953L99.1846 31.7411V31.9362L99.1903 31.9591L99.2075 31.9763L99.2534 31.9821H99.4312L99.4541 31.9878L99.4714 32.005L99.4828 32.028V32.3205L99.4714 32.3951L99.4599 32.4123L99.437 32.4238L99.219 32.4353L99.2018 32.4467L99.1903 32.464L99.1846 32.5385V32.7852L99.1903 32.8081L99.2075 32.8254L99.2477 32.8368L99.5861 32.8311L99.6033 32.8254L99.6205 32.8081L99.6492 32.7164L99.7065 32.5041L99.718 32.4812L99.7352 32.4697L99.7811 32.464L99.9589 32.4697L99.9761 32.4812L99.9876 32.4984L99.9933 32.5729L99.9876 33.1925L99.9818 33.2154L99.9703 33.2327L99.9302 33.2441L99.6434 33.1982ZM101.278 33.1753L101.244 33.1409L100.756 32.1599L100.745 32.1484H100.733L100.722 32.1886V32.6303L100.716 32.7278L100.722 32.7508L100.733 32.768L100.773 32.7852H100.842L100.865 32.7909L100.882 32.8081L100.894 32.854L100.888 33.1466L100.877 33.1638L100.836 33.181L100.24 33.1925L100.194 33.1868L100.171 33.1753L100.16 33.1581L100.154 33.1122V32.8426L100.165 32.8196L100.183 32.8024L100.228 32.7909H100.274L100.292 32.7852L100.309 32.768L100.32 32.7221L100.326 31.8731L100.32 31.678L100.309 31.6608L100.292 31.6494L100.217 31.6436L100.194 31.6379L100.177 31.6207L100.165 31.5748V31.3052L100.183 31.265L100.2 31.2535L100.309 31.2478H100.418L100.527 31.2421H100.682L100.722 31.2593L100.762 31.3166L101.198 32.2115L101.215 32.223L101.226 32.2115V32.137L101.221 31.9419V31.7125L101.215 31.6838L101.203 31.6608L101.186 31.6494L101.077 31.6379L101.066 31.6207L101.054 31.5748V31.2994L101.077 31.2535L101.123 31.2363H101.731L101.777 31.2478L101.794 31.265L101.806 31.3109V31.5576L101.794 31.6092L101.777 31.6264L101.691 31.6436L101.674 31.6551L101.657 31.701L101.651 32.0165L101.639 33.1351L101.634 33.1581L101.622 33.1753L101.582 33.1868L101.404 33.1925L101.278 33.1753ZM103.108 33.1925H102.89L102.804 33.1868L102.781 33.181L102.764 33.1695L102.746 33.1237V32.877L102.752 32.8254L102.764 32.8081L102.786 32.7967L102.832 32.7909L102.855 32.7795L102.867 32.7623V32.7106L102.838 32.5902L102.827 32.5729L102.809 32.5615L102.655 32.55H102.454L102.431 32.5557L102.414 32.5672L102.391 32.659L102.374 32.7336V32.7565L102.385 32.7737L102.454 32.7967L102.471 32.8081L102.483 32.854L102.488 33.0261L102.483 33.1294L102.477 33.1523L102.46 33.1695L102.442 33.181L102.029 33.1925L101.834 33.1868L101.811 33.181L101.794 33.1638L101.783 33.1179L101.777 32.8483L101.783 32.8254L101.8 32.8081L101.846 32.7909L101.892 32.7852L101.909 32.7737L101.926 32.7565L102.012 32.4353L102.196 31.6895V31.6666L102.184 31.6494L102.144 31.6379L102.098 31.6322L102.081 31.6207L102.064 31.5748V31.3052L102.07 31.2822L102.081 31.265L102.098 31.2478L102.167 31.2363L102.603 31.2421H103.154L103.177 31.2478L103.194 31.265L103.205 31.3396V31.4601L103.199 31.5863L103.194 31.6092L103.182 31.6264L103.136 31.6436L103.09 31.6551L103.079 31.6723L103.073 31.6953L103.102 31.8387L103.331 32.7565L103.343 32.7737L103.36 32.7852L103.429 32.7967L103.452 32.8081L103.463 32.8254L103.469 32.877L103.463 33.1294L103.458 33.1523L103.446 33.1695L103.429 33.181L103.257 33.1925H103.108Z" fill="white"/>
<path fill-rule="evenodd" clip-rule="evenodd" d="M102.753 30.7138H102.048L102.002 30.7081L101.985 30.6966L101.967 30.6565V30.5761L101.985 30.5417L102.025 30.5245L102.157 30.513L102.174 30.5016L102.185 30.4844L102.197 30.2434L102.191 29.6124L102.185 29.4919L102.174 29.4747L102.134 29.4632L101.686 29.4575L101.64 29.4632L101.623 29.4747L101.612 29.5149L101.606 30.3237V30.4671L101.612 30.4844L101.629 30.5016L101.675 30.513L101.812 30.5188L101.835 30.5302L101.847 30.5475L101.858 30.6048V30.6679L101.853 30.6851L101.835 30.6966L101.79 30.7081H100.9H100.763L100.74 30.7023L100.723 30.6909L100.705 30.6565V30.5704L100.723 30.536L100.763 30.5188H100.895L100.912 30.513L100.929 30.5016L100.941 30.4614L100.946 30.123L100.941 30.0426L100.929 30.0254L100.889 30.0082L100.442 30.014L100.396 30.0254L100.379 30.0426L100.367 30.0828L100.361 30.2434L100.35 30.3008L100.321 30.3524L100.27 30.3926L100.201 30.4098L100.109 30.4155L99.9541 30.3868L99.8108 30.3352L99.6788 30.2606L99.5985 30.1975L99.5354 30.1172L99.4953 30.0254L99.4896 29.9681L99.5182 29.8705L99.5698 29.8017L99.6215 29.7616L99.7018 29.7329L99.8337 29.7157L100.568 29.7099L100.9 29.6984L100.918 29.687L100.935 29.6526V29.5263L100.923 29.4862L100.906 29.4747L100.843 29.469H100.132H99.3232L99.3003 29.4747L99.2831 29.4862L99.2716 29.5034L99.2544 29.8247L99.2429 29.8419L99.2257 29.8533L99.1798 29.8591L98.0671 29.8533H97.8721L97.809 29.8648L97.7517 29.8935L97.7058 29.9451L97.6829 30.0025L97.6886 30.0656L97.7173 30.1172L97.7689 30.1574L97.8721 30.1975L98.027 30.2205H98.1589L98.2679 30.2033L98.3769 30.1688L98.4686 30.1172L98.5891 30.0025L98.6292 29.9853L98.721 29.9795L99.1913 29.991L99.2142 29.9967L99.2315 30.0082L99.2429 30.0254L99.2487 30.0885L99.2544 30.4844L99.2601 30.5016L99.2716 30.5188L99.3117 30.5302L99.4265 30.536L99.4494 30.5417L99.4666 30.5532L99.4838 30.5934V30.6794L99.4781 30.7023L99.4609 30.7196L99.4437 30.7253L99.002 30.731H98.7784L98.4227 30.7196L98.3998 30.7138L98.3826 30.7023L98.3711 30.6622V30.5761L98.3826 30.5589L98.3998 30.5475L98.4457 30.536L98.5375 30.5302L98.5604 30.5245L98.5776 30.513L98.5891 30.4729V30.4098L98.5776 30.3926L98.5604 30.3811H98.5145L98.2335 30.4385L97.9926 30.4729L97.7689 30.4901H97.5911L97.3732 30.4671L97.247 30.4327L97.1265 30.3754L97.0405 30.3123L96.9717 30.2319L96.943 30.1574L96.9258 30.0771V29.9967L96.9487 29.8992L97.0118 29.796L97.0921 29.7214L97.1667 29.6755L97.2928 29.6353L97.442 29.6124H97.8894H98.5317L98.5776 29.6009L98.5891 29.5837L98.6006 29.5436L98.5948 29.5034L98.5891 29.4862L98.5719 29.4747L98.526 29.4632L97.419 29.4575L97.2814 29.4518L97.2642 29.446L97.2527 29.4346L97.2412 29.3944L97.247 29.2912L97.2527 29.2739L97.2642 29.2625L97.3043 29.251H97.6657H98.1532H98.6636L98.6866 29.2453L98.6981 29.2338V29.2166L98.6522 29.1707L98.4629 29.033L98.3252 28.9642L98.2163 28.9298L98.0671 28.9068H97.9754L97.8607 28.9298L97.6714 29.0043L97.6542 28.9986L97.6198 28.9699L97.4248 28.6372L97.419 28.597L97.4248 28.5798L97.4592 28.5569L97.5854 28.511L97.7574 28.4766H97.8492L97.9811 28.4995L98.1188 28.5569L98.3769 28.706L99.1282 29.2453L99.1684 29.2567L99.6329 29.2625H100.516H101.531L102.128 29.2682H102.506H103.137L103.16 29.2739L103.177 29.2854L103.195 29.3198L103.2 29.4001L103.195 29.4403L103.183 29.4575L103.166 29.469L103.097 29.4805L102.891 29.4862L102.868 29.4919L102.851 29.5034L102.839 29.5436V30.4729L102.851 30.5073L102.868 30.5188L102.908 30.5245L103.046 30.5302L103.086 30.5475L103.097 30.5647L103.103 30.6622L103.091 30.7023L103.074 30.7138L103.028 30.7196L102.753 30.7138Z" fill="white"/>
<path d="M58.0234 36.1265H78.6666V25.5195H58.0234V36.1265Z" fill="#FFFF00"/>
<path d="M50.7988 36.1265H58.0229V25.5195H50.7988V36.1265Z" fill="#D40000"/>
<path fill-rule="evenodd" clip-rule="evenodd" d="M54.5444 26.6545L54.5388 26.6714C54.5276 26.6994 54.5108 26.761 54.4772 26.7778H54.4716V26.8282H54.466C54.4212 26.8506 54.4044 26.9683 54.3876 27.0131L54.382 27.0187H54.3652V27.0299C54.3595 27.0579 54.3539 27.0915 54.3483 27.1195V27.1307H54.3315V27.1644H54.3147V27.198H54.3091H54.3035H54.2979V27.2036C54.2979 27.2092 54.2979 27.2092 54.2923 27.2092H54.2867H54.2811V27.2484C54.2811 27.3324 54.2811 27.4613 54.3147 27.5397V27.5453H54.3315V27.5957H54.3483V27.6854H54.3652V27.7358H54.382L54.3876 27.7414L54.3932 27.747V27.7526V27.7582L54.3988 27.775L54.4044 27.7918L54.41 27.8086L54.4156 27.8198V27.8254V27.831V27.8366L54.4212 27.8422V27.8758H54.4268C54.4716 27.887 54.4604 28.0383 54.4884 28.0495H54.494V28.0607C54.494 28.0943 54.5108 28.1952 54.494 28.2232H54.4772V28.2568L54.4604 28.2736H54.4436L54.4268 28.2904V28.296V28.3016V28.3072V28.3128V28.3184V28.324C54.4212 28.3352 54.41 28.3408 54.4044 28.3576V28.3632V28.3688H54.3988C54.382 28.3688 54.3652 28.3856 54.354 28.3856H54.3483V28.3969C54.3315 28.4921 54.0962 28.5257 54.0346 28.5313H54.0234C54.0122 28.5425 54.001 28.5425 53.9842 28.5481L53.973 28.5537L53.9618 28.5593L53.9394 28.5649L53.917 28.5705H53.9002H53.889L53.8834 28.5761L53.8778 28.5817L53.8722 28.5873L53.8665 28.5929C53.7657 28.649 53.62 28.7106 53.508 28.733H53.4968H53.4912C53.48 28.7554 53.4296 28.7946 53.4072 28.8002H53.4016V28.8058C53.396 28.845 53.3175 28.9179 53.2895 28.9403L53.2839 28.9459V28.9515C53.2783 28.9851 53.2391 28.9963 53.2335 29.0355V29.0411H53.2279C53.2055 29.0467 53.1495 29.0803 53.1439 29.1083V29.1139H53.1383C53.0654 29.1195 53.0318 29.2204 52.9982 29.282L52.9926 29.2932H52.9758V29.2988C52.9646 29.3212 52.9478 29.3548 52.9422 29.3828V29.3884H52.9366C52.9142 29.3997 52.903 29.4389 52.875 29.4389H52.8694V29.4445C52.8301 29.5173 52.7181 29.6293 52.6621 29.691V29.7246H52.6453V29.7582H52.6285V29.7694C52.6285 29.7918 52.6229 29.8422 52.5948 29.8478H52.5892V29.8983H52.5836C52.5556 29.9151 52.5388 29.9935 52.522 30.0047V30.0103C52.5164 30.0327 52.5108 30.0495 52.5052 30.0719V30.0775H52.4884L52.4548 30.1504H52.438C52.438 30.1672 52.4268 30.184 52.41 30.184H52.4044L52.3876 30.2736H52.3708C52.3539 30.3072 52.3708 30.4137 52.3708 30.4473V30.4641H52.3764H52.382C52.382 30.4641 52.3876 30.4641 52.3876 30.4697V30.4753C52.3876 30.4809 52.3876 30.4809 52.3932 30.4809H52.3988H52.4044V30.4865C52.4044 30.5033 52.4212 30.5313 52.438 30.5369H52.4436V30.5705L52.4604 30.5873H52.494V30.5929C52.494 30.6153 52.5108 30.5929 52.5108 30.6153V30.6209H52.5444L52.55 30.6265L52.5612 30.6321L52.5724 30.6378L52.5836 30.6434L52.5948 30.649H52.6004H52.606H52.6116H52.6173L52.6341 30.6658V30.6826L52.6509 30.6994C52.7181 30.7442 52.6957 30.677 52.7685 30.761V30.7666V30.7722H52.8021V30.789H52.8357V30.8058H52.8694L52.8862 30.8226V30.8562L52.9534 30.9291H52.959H52.9646H52.9702H52.9758C52.9814 30.9347 52.9814 30.9347 52.987 30.9403V30.9459V30.9515V30.9571V30.9627V30.9683V30.9739L53.0038 30.9907L53.0206 31.0075H53.0262H53.0318H53.0374C53.0542 31.0187 53.0598 31.0243 53.0766 31.0355H53.1102L53.1607 31.0691V31.0859C53.1775 31.0859 53.1887 31.0971 53.1943 31.1139V31.1195H53.2279L53.2447 31.1364V31.1532L53.2615 31.17H53.2951L53.3455 31.2204V31.254H53.3511C53.368 31.2596 53.3848 31.2764 53.4016 31.2876V31.3044H53.4184V31.3212H53.4352L53.452 31.338C53.4576 31.4837 53.7657 31.7638 53.8778 31.8254L53.889 31.831L53.9002 31.8366C54.0906 31.8871 54.4604 31.8758 54.6565 31.831L54.6677 31.8254L54.6789 31.8198V31.803L54.6845 31.7974C54.7293 31.7806 54.7853 31.7694 54.8357 31.7638H54.8525V31.7582C54.8637 31.7414 54.8974 31.7302 54.903 31.7134V31.7078H54.9086C54.9254 31.7078 55.015 31.6798 55.0262 31.6574H55.1103L55.1271 31.6406V31.6238H55.1439V31.6069H55.1607L55.1775 31.5901C55.1775 31.5733 55.1887 31.5453 55.1999 31.5285L55.2055 31.5173L55.2111 31.5061C55.2167 31.4949 55.2223 31.4837 55.2335 31.4781V31.4445C55.2503 31.4221 55.2615 31.3716 55.2839 31.3436L55.2895 31.338H55.3063C55.3231 31.3212 55.3231 31.2932 55.3455 31.2764L55.3511 31.2708L55.3567 31.2652V31.2148H55.3624H55.368C55.3792 31.2092 55.3904 31.198 55.3904 31.1868V31.1812L55.396 31.1756L55.4016 31.1644L55.4128 31.1476L55.424 31.1307L55.4352 31.1139L55.4464 31.0971L55.452 31.0915L55.4576 31.0859V31.0803V31.0747L55.5248 31.0019H55.5304H55.536H55.5416H55.5472L55.5584 30.9963L55.5696 30.9907L55.5808 30.9851L55.592 30.9795H55.5976H55.6032H55.6088H55.6145L55.6313 30.9627V30.9571V30.9515V30.9459V30.9403V30.9347C55.6481 30.9179 55.6761 30.9179 55.6873 30.8955V30.8899V30.8842V30.8786H55.6929C55.7097 30.8786 55.7489 30.8618 55.7601 30.845V30.8394H55.7937L55.7993 30.8338L55.8049 30.8282H55.8105H55.8161L55.8329 30.8226L55.8497 30.817C55.861 30.8114 55.8834 30.8114 55.9002 30.8002L55.9058 30.7946V30.7778H55.9562V30.761H55.9618C55.973 30.761 56.001 30.7722 56.0066 30.7498V30.7442H56.057V30.7386C56.0626 30.7218 56.1018 30.7106 56.1075 30.6938V30.6882H56.1579V30.6714H56.2251V30.6546H56.2587V30.6209H56.2755V30.5873H56.2923V30.4473H56.2755V30.4137H56.2587L56.2531 30.4081C56.2251 30.3296 56.2531 30.156 56.2531 30.0719V30.0551C56.2699 30.0383 56.2699 29.9095 56.2699 29.8927V29.8815H56.2531V29.8758C56.2587 29.859 56.2643 29.8366 56.2419 29.831H56.2363V29.8142C56.2363 29.7302 56.2699 29.5565 56.2363 29.4781L56.2307 29.4725H56.2139V29.4389H56.1971V29.1924H56.1803L56.1635 29.1027L56.1467 29.0859H56.1299V29.0691H56.1131L56.0962 29.0523V29.0019H56.0906C56.0682 29.0019 56.0906 28.9851 56.0682 28.9851H56.0626V28.9795C56.057 28.9627 56.0514 28.9403 56.0458 28.9235V28.9179H56.0402H56.0346H56.029H56.0234L56.0122 28.9123L56.0066 28.9067L56.001 28.9011L55.9954 28.8954L55.9898 28.8898V28.8562L55.973 28.8394H55.9674H55.9618C55.9506 28.8338 55.9282 28.8226 55.9226 28.8114V28.8058V28.8002H55.917C55.8553 28.789 55.7825 28.7722 55.7265 28.7498L55.7209 28.7442V28.7274L55.6537 28.7106V28.705C55.6537 28.6826 55.6369 28.705 55.6369 28.6826V28.677H55.5864V28.6602H55.5528V28.6433H55.5192V28.6377C55.5192 28.6153 55.5024 28.6377 55.5024 28.6153V28.6097H55.4968C55.4856 28.6097 55.4352 28.5929 55.4296 28.5761H55.3792V28.5425H55.3624V28.5089H55.368C55.3904 28.5089 55.368 28.4921 55.3904 28.4921H55.396V28.4585L55.4128 28.4417H55.4464L55.4632 28.4249V28.4081L55.48 28.3912H55.5136V28.3744H55.5472L55.564 28.3576V28.3408H55.5808L55.5976 28.324C55.5976 28.3184 55.6032 28.3128 55.6032 28.3016L55.6088 28.296L55.6145 28.2904C55.6201 28.2848 55.6201 28.2792 55.6201 28.268L55.6369 28.2512H55.6537V28.2344H55.6705L55.6873 28.2176V28.184H55.6929C55.7153 28.184 55.6929 28.1672 55.7153 28.1672H55.7209V28.1335H55.7377V28.0999H55.7545V28.0663L55.7713 28.0495H55.7881L55.8049 28.0327V27.9991H55.8217V27.9655H55.8273C55.8497 27.9655 55.8273 27.9487 55.8497 27.9487H55.8553V27.9151H55.861C55.8834 27.9151 55.861 27.8983 55.8834 27.8983H55.889V27.8478H55.9058V27.7974H55.9226V27.747H55.9394V27.7414C55.9562 27.6966 55.9506 27.6405 55.9674 27.5957V27.5901H55.9842V27.5173H56.001V27.4445H56.0178V27.4389C56.0346 27.3828 56.0178 27.2876 56.0346 27.2316V27.226H56.0514V27.2204C56.0626 27.17 56.0346 27.1195 56.0458 27.0691V27.0635H56.0626V26.9907H56.0458V26.9179H56.029V26.8674H56.0122V26.8114H55.9954V26.7778H55.9786V26.7442L55.9618 26.7274L55.945 26.7106H55.9282H55.9058H55.8778H55.8497H55.8385H55.8273C55.8105 26.7106 55.7937 26.7106 55.7769 26.705V26.6882H55.6929V26.6714C55.6705 26.6546 55.564 26.6882 55.5584 26.6602V26.6545H55.5528C55.5304 26.6489 55.452 26.6265 55.4352 26.6041H55.4016V26.5873H55.396C55.3792 26.5929 55.368 26.5985 55.368 26.5761V26.5705H55.3624C55.3455 26.5649 55.3287 26.5593 55.3119 26.5537L54.8974 26.5705V26.5761C54.8469 26.6321 54.6285 26.6321 54.5556 26.6714L54.5444 26.6545Z" fill="white"/>
<path fill-rule="evenodd" clip-rule="evenodd" d="M56.0128 27.2313L56.0184 27.2033L56.024 27.1752L56.0296 27.1472C56.1304 26.7215 55.6094 26.8951 55.4133 26.8503H55.3797H55.3461C55.1276 26.8503 54.7691 26.5422 54.6346 26.7439L54.629 26.7551L54.6234 26.7663L54.6178 26.7775L54.6122 26.7887L54.6066 26.7999C54.5786 26.8895 54.5954 26.9904 54.601 27.0856V27.1304C54.601 27.1696 54.5842 27.2649 54.5562 27.2873H54.5506H54.545H54.5394C54.4498 27.2705 54.3937 27.08 54.2929 27.2873L54.2873 27.2985L54.2817 27.3097L54.2761 27.3209L54.2705 27.3153C54.2257 27.2369 54.2537 27.1136 54.3265 27.0632L54.3377 27.0576V27.0128V26.968C54.2873 26.3461 54.9988 26.2789 55.4021 26.2845L55.4246 26.2901L55.447 26.2957C55.8951 26.3629 56.2201 26.6878 56.0856 27.2089L56.08 27.2313L56.0744 27.2481H56.0632C56.052 27.2481 56.0408 27.2481 56.024 27.2481H56.0184L56.0128 27.2313ZM53.4974 30.9007L53.475 30.9231C53.4301 30.9736 53.3797 31.0184 53.3349 31.0688L53.3125 31.0912L53.3237 31.1752L53.3349 31.2593L53.3461 31.3433C53.3685 31.489 53.3909 31.629 53.4077 31.7747L53.4414 32.1556L53.475 32.5422C53.5478 33.3097 53.6206 34.0828 53.6879 34.8503V34.8615V34.8727V34.8839C53.671 34.9792 53.6991 35.08 53.6654 35.1697L53.6598 35.1809L53.6542 35.1921H53.7215C53.8951 35.1977 54.0744 35.1921 54.2481 35.1977H54.3153L54.1248 34.8951L54.1192 34.8895C54.108 34.8727 54.0968 34.8503 54.0968 34.8279V34.8223V34.8167C54.1248 34.3741 54.136 33.926 54.1696 33.4834L54.1752 33.3881L54.1808 33.2929L54.2033 33.3153C54.5002 33.657 54.5282 34.6486 54.5338 35.0912V35.1809H54.573C54.7635 35.1865 54.9484 35.1753 55.1388 35.1865H55.1781L55.15 35.1416C55.094 35.0576 55.0436 34.9848 54.9652 34.9232L54.9484 34.9119V34.7271L54.9428 34.5422L54.9372 34.3573L54.9316 34.1725C54.9203 33.6122 54.9091 33.052 54.9484 32.4918L54.954 32.3965L54.9596 32.3013L54.9652 32.2061C54.9932 32.0884 54.954 31.9484 55.038 31.8531L55.0548 31.8307L55.0828 31.7859C55.1612 31.6514 55.2341 31.5114 55.3237 31.3825L55.3405 31.3601L55.3573 31.3377L55.3741 31.3153L55.3909 31.2929L55.4077 31.2705C55.4918 31.1584 55.5982 31.0688 55.7103 31.0016L55.7327 30.9904L55.7551 30.9792C55.9063 30.8895 56.1024 30.8391 56.2425 30.7607L56.2537 30.7551L56.2593 30.7495L56.2649 30.7439L56.2705 30.7327L56.2761 30.7215L56.2817 30.7103C56.3153 30.643 56.3153 30.5646 56.3153 30.4918V30.4582V30.4189C56.2873 30.0604 56.3097 29.685 56.2761 29.3265L56.2705 29.2985L56.2649 29.2761L56.2593 29.2537C56.1697 28.7719 55.8447 28.7831 55.4974 28.5534L55.4582 28.531L55.4246 28.5086L55.3909 28.4862L55.3853 28.5086C55.3797 28.5478 55.3685 28.587 55.3629 28.6262L55.3573 28.6486L55.4021 28.671C55.615 28.7775 55.8335 28.9063 56.0184 29.0688L56.0352 29.0856L55.8951 29.4049L55.8615 29.4329L55.6767 29.4217L55.6542 29.2313L55.5814 29.2369L55.5646 29.3545L55.5142 29.3601L55.5254 29.4217C55.5142 29.5002 55.5254 29.5786 55.5142 29.657V29.6738H55.5254C55.5478 29.6738 55.5702 29.6738 55.5926 29.6738H55.6038L55.6094 29.6514C55.6206 29.6122 55.6262 29.573 55.6318 29.5338L55.6374 29.5114H55.6598C55.7103 29.517 55.7607 29.5114 55.8111 29.517H55.8335L55.8279 29.5562C55.7103 30.2845 55.419 30.9456 55.0828 31.5786L55.0492 31.6458H55.0268C54.9652 31.6402 54.9035 31.6402 54.8475 31.6346H54.8251L54.8307 31.6178L54.8363 31.601L54.8419 31.5842C54.8867 31.4666 55.038 31.2369 55.0548 31.1304L55.0604 31.108L55.066 31.0856L55.0716 31.0464C55.0828 30.9456 55.094 30.8391 55.1164 30.7439L55.122 30.7215L55.1276 30.6991L55.1332 30.6766L55.1388 30.6542L55.1444 30.6318L55.15 30.6094L55.1612 30.587L55.1725 30.5646L55.1837 30.5422L55.1949 30.5198L55.2061 30.4974L55.2453 30.4021L55.2285 30.2733L55.2733 29.8475L55.3181 29.7579V29.7523V29.7467V29.7411V29.7355C55.3125 29.685 55.2845 29.6402 55.2789 29.5842L55.2733 29.5618V29.5394C55.2677 29.3881 55.2621 29.2313 55.3069 29.0856V29.0744V29.052C55.3069 29.0184 55.2901 28.9904 55.2733 28.9624V28.9568V28.9512C55.2565 28.8895 55.2733 28.8279 55.2789 28.7663V28.7495V28.7327V28.7159V28.7047H55.2565C55.2117 28.7103 55.1612 28.7159 55.1164 28.7215H55.094L55.1108 28.7999C55.2733 29.6458 55.1332 30.9007 54.6907 31.6234L54.6851 31.6402L53.5926 31.657L53.5758 31.1808H53.615C53.7999 31.1696 53.9848 31.1753 54.1696 31.1696H54.2089V31.1584V31.0968V31.0856L53.7103 31.0968V31.0856C53.6935 31.0016 53.6654 30.9175 53.6486 30.8335V30.8223L53.6374 30.8279C53.5926 30.8503 53.559 30.8783 53.5142 30.9007L53.503 30.9063" fill="#0000AA"/>
<path fill-rule="evenodd" clip-rule="evenodd" d="M55.8455 27.3103L55.8567 27.3047C55.8903 27.2935 55.9687 27.2767 56.0023 27.3047L56.064 27.2543L56.0584 27.2487C56.0023 27.1927 55.8959 27.2039 55.8287 27.2319L55.8175 27.2375L55.8455 27.3103ZM55.134 27.1479L55.1452 27.1423C55.246 27.1143 55.3301 27.1199 55.4141 27.1983L55.4197 27.2039L55.4757 27.1423L55.4645 27.1311C55.3581 27.0358 55.2572 27.0246 55.1284 27.0582L55.1172 27.0638" fill="#000080"/>
<path fill-rule="evenodd" clip-rule="evenodd" d="M55.6264 28.0381L55.604 28.0493C55.3911 28.1277 55.2063 28.0997 55.055 27.9092L55.0382 27.8924L54.9766 27.9428L54.9934 27.9652C55.167 28.1837 55.3855 28.2229 55.632 28.1277L55.66 28.1165L55.6264 28.0381ZM55.8897 27.6347V27.5955H55.7049V27.6795H55.8897V27.6347ZM55.2343 27.293L55.2287 27.3042C55.1838 27.3994 55.1166 27.433 55.0214 27.4218H55.0102L54.999 27.5003H55.0102C55.139 27.5171 55.2399 27.4666 55.2959 27.3378L55.3015 27.3266" fill="#000080"/>
<path fill-rule="evenodd" clip-rule="evenodd" d="M56.0681 27.2137L56.0625 27.2249C56.0401 27.2697 55.9897 27.2865 55.9617 27.3425V27.3481V27.3537C55.9561 27.3873 55.9449 27.4882 55.9169 27.505V27.5162V27.5274V27.5386V27.5498C55.8889 27.7963 55.9281 27.7347 55.8048 27.9924L55.7992 28.0092L55.7936 28.026C55.7208 28.1548 55.592 28.2893 55.4799 28.3677L55.4575 28.3845L55.4351 28.4013L55.4127 28.4237L55.3735 28.4293C55.1606 28.4462 54.9925 28.3957 54.8188 28.2557L54.802 28.2445L54.7684 28.2221L54.7404 28.1997L54.7236 28.1884L54.7068 28.1772L54.6956 28.166L54.6844 28.1548L54.6116 28.11V28.1044V28.0988C54.5836 28.0204 54.5611 27.9644 54.5387 27.8747L54.5331 27.8523L54.5275 27.8299L54.5219 27.8075L54.5107 27.7851L54.5051 27.7739L54.4995 27.7627L54.4939 27.7515C54.4379 27.6618 54.3427 27.4209 54.3595 27.3145V27.2977V27.2809V27.2641L54.3651 27.2473L54.3707 27.2361L54.3651 27.2193L54.3595 27.2025L54.3539 27.1912L54.3483 27.18V27.1744V27.1688V27.1632H54.3427C54.3314 27.1576 54.3202 27.1744 54.3146 27.18V27.1856L54.309 27.1968L54.3034 27.2137L54.2978 27.2305C54.2362 27.5666 54.6172 27.9588 54.4379 28.2501L54.4323 28.2669L54.4155 28.3005L54.3987 28.3341L54.5667 28.4518L54.5892 28.2165L55.127 28.5414C55.1606 28.6086 55.1494 28.6983 55.183 28.7711L55.1886 28.7767H55.1998H55.211H55.2222H55.2334L55.2502 28.7711L55.267 28.7655L55.2838 28.7599L55.3006 28.7543H55.3118H55.323H55.3343H55.3455L55.3511 28.7487V28.7431V28.7375V28.7319V28.7263V28.7207C55.3511 28.6983 55.3343 28.6758 55.3455 28.6534V28.6478V28.6422L55.3511 28.6366V28.631C55.3623 28.6142 55.3735 28.6366 55.3847 28.631H55.3903V28.6254C55.3959 28.6198 55.4015 28.603 55.4015 28.5974V28.5862V28.575C55.4127 28.547 55.4071 28.5134 55.4183 28.4854V28.4798V28.4742V28.463V28.4518V28.4461V28.4405V28.4349V28.4293C55.4183 28.4237 55.4239 28.4181 55.4295 28.4125H55.4351L55.4519 28.4013C55.4911 28.3789 55.5303 28.3509 55.5695 28.3285L55.592 28.3117L55.6144 28.3005L55.62 28.2949C55.6592 28.2557 55.7152 28.1884 55.7488 28.1436L55.76 28.1268L55.7712 28.11L55.7824 28.0932C55.9393 27.8467 56.0177 27.5498 56.085 27.2641L56.0906 27.2417L56.0962 27.2193L56.1018 27.1968" fill="#000080"/>
<path fill-rule="evenodd" clip-rule="evenodd" d="M53.2969 30.0051H53.4033V30.6606H53.2969V30.0051ZM54.4453 27.3777L54.4061 27.3889L54.4453 27.5794L54.5238 27.5625L54.4845 27.3721" fill="#231F20"/>
<path fill-rule="evenodd" clip-rule="evenodd" d="M56.1183 29.3652L56.0287 29.3764L56.0175 29.5277C55.9278 29.7238 55.8774 29.9367 55.8158 30.1439L55.8102 30.4073L55.6813 30.5473L55.6253 30.693L55.5805 30.8162L55.5469 30.9451L55.9222 30.749L56.0791 30.7042L56.1463 30.6706L56.2023 30.5865L56.1799 29.9647" fill="#000080"/>
<path d="M56.1183 29.3652L56.0287 29.3708L56.0175 29.5221C55.9278 29.7182 55.8774 29.9311 55.8158 30.1383L55.8102 30.4017L55.6813 30.5417L55.6253 30.6874L55.5805 30.8106L55.5469 30.9395L55.9222 30.7434L56.0791 30.6986L56.1463 30.665L56.2023 30.5809L56.1799 29.9591L56.1183 29.3652Z" fill="#F9F9F9" stroke="white" stroke-width="0.0217564" stroke-miterlimit="2.613"/>
<path fill-rule="evenodd" clip-rule="evenodd" d="M55.4367 27.55V27.5724C55.4367 27.6116 55.4367 27.6564 55.4423 27.6956V27.718L55.4479 27.7236C55.5992 27.8077 55.6328 27.6788 55.6272 27.5332V27.5163H55.6384C55.6552 27.5163 55.672 27.5107 55.6888 27.5107H55.7V27.5388C55.7056 27.9589 55.319 27.9309 55.3583 27.5668V27.5556H55.3639C55.3807 27.5556 55.3975 27.5556 55.4143 27.5556H55.4255" fill="#000080"/>
<path fill-rule="evenodd" clip-rule="evenodd" d="M53.2953 30.1328C53.1945 30.1664 53.1105 30.2561 53.0488 30.3569C53.1329 30.4353 53.2169 30.5082 53.3009 30.5866C53.2953 30.4409 53.3009 30.2841 53.2953 30.1328Z" fill="#000080"/>
<path fill-rule="evenodd" clip-rule="evenodd" d="M54.3541 28.3281L54.3149 28.3449L54.2757 28.3617L54.2309 28.3785L54.1861 28.3954C54.0908 28.429 53.9956 28.4626 53.9003 28.4962L53.8499 28.513L53.7939 28.5298C53.4746 28.6194 53.5922 28.5802 53.3457 28.8043L53.2953 28.8547L53.2449 28.9052L53.1945 28.9556C52.948 29.2189 52.7351 29.5102 52.539 29.8239L52.5054 29.8743L52.4774 29.9248L52.4494 29.9752L52.4214 30.0256C52.3597 30.1433 52.2533 30.2609 52.2645 30.4066V30.4178V30.429V30.4402C52.2701 30.4626 52.2757 30.485 52.2813 30.5074L52.2869 30.5186L52.2925 30.5298L52.2981 30.541L52.3037 30.5522L52.3093 30.5634L52.4382 30.6531L52.567 30.7427L52.6959 30.8323L52.8247 30.922L52.9536 31.0116L53.0824 31.1012L53.2113 31.1909L53.3401 31.2805L53.3345 31.2581L53.3289 31.2357V31.2189V31.2021V31.1853V31.1629L53.3233 31.1405L53.3177 31.118L53.2729 31.0844L53.2225 31.0508L53.1721 31.0172L53.1216 30.9836L53.0208 30.9108L52.92 30.8379L52.8191 30.7651L52.7183 30.6923L52.6679 30.6587L52.6174 30.625C52.5726 30.5858 52.427 30.5074 52.4101 30.4346L52.4045 30.4234V30.4122V30.401C52.4045 30.2329 52.7687 29.6783 52.8695 29.5438L52.8975 29.5102L52.9256 29.4766L52.9536 29.443L52.9816 29.4094L53.032 29.3421L53.088 29.2749L53.1945 29.1461L53.3009 29.0172L53.3121 29.0116L53.3233 29.006L53.3345 29.0004L53.3457 28.9948L53.3569 28.9892H53.3681H53.3793H53.3905H53.4018H53.413H53.4242C53.4634 28.9948 53.4914 29.0172 53.5194 29.0452L53.525 29.0508L53.5362 29.0676L53.5474 29.0844L53.5586 29.1068L53.5698 29.1236L53.5866 29.1965L53.5978 29.2637L53.6034 29.3253L53.609 29.3814V29.4374V29.4878L53.6034 29.5326L53.5978 29.5774L53.5866 29.6166L53.5754 29.6559L53.5586 29.6895L53.5418 29.7231L53.525 29.7567C53.4017 29.9304 53.1833 30.0368 53.032 30.1769L52.9928 30.2105L52.9536 30.2497L52.9144 30.2889L52.8695 30.3337L52.9087 30.3785L52.948 30.4234C53.0656 30.5522 53.1889 30.6755 53.3233 30.7875L53.3625 30.8155L53.4018 30.8435L53.4466 30.8828L53.4858 30.9108H53.497L53.5082 30.9052L53.5194 30.8996L53.5306 30.894L53.553 30.8828L53.5754 30.8715L53.5978 30.8603L53.6202 30.8491L53.6258 30.8323L53.637 30.8267L53.6482 30.8211V30.8155L53.6146 30.7875C53.4354 30.6587 53.2169 30.5522 53.0712 30.3729L53.06 30.3561L53.0656 30.3449L53.0712 30.3337L53.0768 30.3225L53.0824 30.3113C53.1048 30.2721 53.1328 30.2385 53.1665 30.2161L53.1833 30.2049L53.2001 30.1937L53.2169 30.1825L53.2337 30.1713L53.2505 30.1657L53.2673 30.1601L53.2841 30.1545L53.3009 30.1489L53.3569 30.0928C53.4186 30.0256 53.4746 29.9584 53.5362 29.8968L53.5586 29.8743L53.581 29.8519L53.6034 29.8295L53.6258 29.8071C53.7883 29.6951 53.7659 29.3477 53.7435 29.1685L53.7379 29.1517L53.7323 29.1349L53.7267 29.118L53.7211 29.1012L53.7155 29.09C53.6707 29.0284 53.6146 28.9556 53.5866 28.8827L53.581 28.8715L53.5754 28.8603C53.5642 28.7987 53.581 28.7651 53.6314 28.7371L53.6426 28.7315L53.6595 28.7259L53.6763 28.7203C54.7519 28.3841 54.102 28.5354 55.0432 28.7147L55.0656 28.7203H55.088L55.1104 28.7259V28.7035C55.1048 28.6755 55.0992 28.6475 55.0992 28.6194V28.597H55.0768C54.8359 28.5858 54.6062 28.4962 54.3933 28.3673L54.3709 28.3505" fill="#000080"/>
<path fill-rule="evenodd" clip-rule="evenodd" d="M72.0934 32.7866L71.8414 32.1985L71.5894 32.7866H72.0934ZM72.1354 32.8916H71.5474L71.4844 33.0596C71.4634 33.1226 71.4424 33.1646 71.4424 33.2066C71.4424 33.2487 71.4634 33.2907 71.5054 33.3117C71.5264 33.3327 71.5894 33.3327 71.6734 33.3327V33.3747H71.1064V33.3327C71.1694 33.3327 71.2114 33.2907 71.2534 33.2487C71.2954 33.2067 71.3374 33.1226 71.4004 32.9966L72.0094 31.6104H72.0304L72.6394 33.0386C72.7024 33.1646 72.7444 33.2487 72.7864 33.2907C72.8074 33.3117 72.8494 33.3327 72.9124 33.3327V33.3747H72.0934V33.3327H72.1354C72.1984 33.3327 72.2404 33.3327 72.2824 33.3117C72.3034 33.2907 72.3034 33.2697 72.3034 33.2487C72.3034 33.2277 72.3034 33.2277 72.3034 33.2066C72.3034 33.2066 72.2824 33.1646 72.2614 33.1016L72.1354 32.8916ZM71.2954 31.6523V31.6944C71.2324 31.6944 71.1904 31.7154 71.1694 31.7364C71.1274 31.7784 71.0644 31.8624 70.9804 32.0304L70.6234 32.6606V33.0806C70.6234 33.1646 70.6234 33.2277 70.6444 33.2487C70.6444 33.2697 70.6654 33.2907 70.7074 33.3117C70.7284 33.3327 70.7704 33.3327 70.8124 33.3327H70.8964V33.3747H69.9514V33.3327H70.0354C70.0774 33.3327 70.1194 33.3327 70.1614 33.3117C70.1824 33.2907 70.2034 33.2697 70.2034 33.2487C70.2034 33.2277 70.2244 33.1646 70.2244 33.0806V32.7236L69.8254 31.9884C69.7414 31.8414 69.6994 31.7574 69.6574 31.7364C69.6154 31.7154 69.5734 31.6944 69.5314 31.6944V31.6523H70.3504V31.6944H70.3084C70.2664 31.6944 70.2244 31.6944 70.2034 31.7154C70.1824 31.7364 70.1824 31.7364 70.1824 31.7574C70.1824 31.7784 70.2244 31.8624 70.2874 31.9884L70.6024 32.5555L70.8964 32.0304C70.9804 31.9044 71.0014 31.8204 71.0014 31.7784C71.0014 31.7574 71.0014 31.7364 70.9594 31.7154C70.9384 31.6944 70.8754 31.6734 70.8124 31.6734V31.6314L71.2954 31.6523ZM68.8804 32.7866L68.6284 32.1985L68.3764 32.7866H68.8804ZM68.9224 32.8916H68.3344L68.2714 33.0596C68.2504 33.1226 68.2294 33.1646 68.2294 33.2066C68.2294 33.2487 68.2504 33.2907 68.2924 33.3117C68.3134 33.3327 68.3764 33.3327 68.4604 33.3327V33.3747H67.8934V33.3327C67.9564 33.3327 67.9984 33.2907 68.0404 33.2487C68.0824 33.2067 68.1244 33.1226 68.1874 32.9966L68.7964 31.6104H68.8174L69.4264 33.0386C69.4894 33.1646 69.5314 33.2487 69.5734 33.2907C69.5944 33.3117 69.6364 33.3327 69.6994 33.3327V33.3747H68.8804V33.3327H68.9224C68.9854 33.3327 69.0274 33.3327 69.0694 33.3117C69.0904 33.2907 69.0904 33.2697 69.0904 33.2487C69.0904 33.2277 69.0904 33.2277 69.0904 33.2066C69.0904 33.2066 69.0694 33.1646 69.0484 33.1016L68.9224 32.8916ZM66.9484 31.6944V31.6523H67.8514V31.6944H67.7884C67.7464 31.6944 67.7044 31.6944 67.6624 31.7154C67.6414 31.7364 67.6204 31.7574 67.6204 31.7784C67.6204 31.7994 67.5994 31.8624 67.5994 31.9464V32.7866C67.5994 32.9546 67.5784 33.0806 67.5574 33.1436C67.5154 33.2277 67.4734 33.2907 67.3894 33.3327C67.3054 33.3747 67.2004 33.4167 67.0954 33.4167C66.9484 33.4167 66.8434 33.3747 66.7594 33.3117C66.6754 33.2277 66.6334 33.1436 66.6334 33.0596C66.6334 32.9966 66.6544 32.9546 66.6964 32.9126C66.7384 32.8706 66.7804 32.8496 66.8224 32.8496C66.8644 32.8496 66.9064 32.8706 66.9484 32.8916C66.9904 32.9336 66.9904 32.9756 66.9904 33.0176C66.9904 33.0386 66.9904 33.0596 66.9904 33.0806C66.9904 33.0806 66.9694 33.1016 66.9484 33.1436C66.9274 33.1856 66.9064 33.2066 66.9064 33.2276C66.9064 33.2487 66.9064 33.2697 66.9484 33.2907C66.9904 33.3117 67.0114 33.3327 67.0744 33.3327C67.1164 33.3327 67.1374 33.3327 67.1584 33.3117C67.1794 33.2907 67.2004 33.2697 67.2004 33.2276C67.2004 33.1856 67.2214 33.0806 67.2214 32.8916V31.9464C67.2214 31.8624 67.2214 31.7994 67.2004 31.7784C67.2004 31.7574 67.1794 31.7364 67.1374 31.7154C67.1164 31.6944 67.0744 31.6944 67.0324 31.6944H66.9484ZM66.5284 33.3327V33.3747H65.6464V33.3327H65.7094C65.7514 33.3327 65.7934 33.3327 65.8354 33.3117C65.8564 33.2907 65.8774 33.2697 65.8774 33.2487C65.8774 33.2277 65.8984 33.1646 65.8984 33.0806V31.9464C65.8984 31.8624 65.8984 31.7994 65.8774 31.7784C65.8774 31.7574 65.8564 31.7364 65.8144 31.7154C65.7934 31.6944 65.7514 31.6944 65.7094 31.6944H65.6464V31.6523H66.5284V31.6944H66.4654C66.4234 31.6944 66.3814 31.6944 66.3394 31.7154C66.3184 31.7364 66.2974 31.7574 66.2974 31.7784C66.2974 31.7994 66.2764 31.8624 66.2764 31.9464V33.0806C66.2764 33.1646 66.2764 33.2277 66.2974 33.2487C66.2974 33.2697 66.3184 33.2907 66.3604 33.3117C66.3814 33.3327 66.4234 33.3327 66.4654 33.3327H66.5284ZM65.5834 31.6523V31.6944C65.5204 31.6944 65.4574 31.7364 65.4154 31.7994C65.3734 31.8414 65.3314 31.9464 65.2684 32.0934L64.6803 33.4167H64.6383L64.0503 32.0304C63.9873 31.8624 63.9243 31.7574 63.9033 31.7364C63.8823 31.7154 63.8403 31.6944 63.7773 31.6734V31.6314H64.5963V31.6734H64.5753C64.5123 31.6734 64.4493 31.6734 64.4283 31.6944C64.4073 31.7154 64.4073 31.7154 64.4073 31.7574C64.4073 31.7784 64.4073 31.7994 64.4073 31.8204C64.4073 31.8414 64.4283 31.9044 64.4703 31.9884L64.8274 32.8496L65.1634 32.0724C65.2054 31.9884 65.2264 31.9254 65.2474 31.8834C65.2474 31.8624 65.2684 31.8204 65.2684 31.7994C65.2684 31.7784 65.2684 31.7574 65.2474 31.7364C65.2264 31.7154 65.2054 31.6944 65.1844 31.6944C65.1424 31.6734 65.1004 31.6734 65.0374 31.6734V31.6314" fill="#000080"/>
<path fill-rule="evenodd" clip-rule="evenodd" d="M63.4364 28.9238H63.6151V30.201L64.0619 30.4102V28.9238H64.7595L64.5609 28.6458H63.9378L63.9155 28.6127C63.7789 28.376 63.8236 28.2246 64.057 28.12L64.1017 28.1008L64.1513 28.087C64.6627 27.9466 65.3255 28.2412 65.76 28.5302L65.8543 28.5907L66.0032 28.5384L65.894 28.4531L65.7873 28.3733C65.2659 27.9824 64.3623 27.6108 63.7392 27.8833L63.7094 27.8943L63.6796 27.9081C63.3594 28.098 63.3246 28.3485 63.63 28.5935L63.6598 28.6183L63.692 28.643H63.2402L63.4364 28.9238Z" fill="#000080"/>
<path fill-rule="evenodd" clip-rule="evenodd" d="M65.2982 29.8512H65.2535C64.3375 29.7246 65.1468 29.0365 65.9685 29.5071L66.0702 29.5539L66.0206 29.5897C65.822 29.7218 65.6209 29.8127 65.39 29.8485L65.3454 29.8512H65.2982ZM64.5783 29.5182V29.5402L64.5808 29.5649C64.6304 29.7796 64.9184 29.9476 65.0897 30.0191L65.1244 30.0301L65.1617 30.0411C65.4198 30.1347 65.6383 30.0934 65.8841 29.9833L65.9635 29.9448L66.0429 29.9008V30.198L66.4898 30.4072V28.9209H67.1874L66.9888 28.6428H64.4219L64.6205 28.9209H66.0429V29.3943L65.9983 29.3585C65.6383 29.0282 64.7347 28.9209 64.5808 29.4741L64.5783 29.4961" fill="#000080"/>
<path fill-rule="evenodd" clip-rule="evenodd" d="M66.8919 29.309L66.959 29.4026L67.026 29.4906C67.2941 29.8264 67.731 30.187 68.163 30.143L68.1977 30.1347L68.23 30.1237C68.5726 30.0081 68.4832 29.7356 68.2672 29.5319L68.2399 29.5071L68.2126 29.4824H68.8332V30.198L69.2801 30.4072V28.9209H69.9752L69.7766 28.6428H66.8125L67.0111 28.9209H68.8332V29.1658H67.7658L67.6888 29.2264L67.7285 29.2484L67.7658 29.2704L67.8005 29.2925C67.8874 29.3558 67.942 29.4108 67.9991 29.5071L68.0115 29.5374L68.0215 29.5677C68.0364 29.6338 68.0463 29.6861 68.0016 29.7356L67.9892 29.7466L67.9768 29.7576L67.9644 29.7686C67.6888 29.898 67.2966 29.6035 67.1253 29.3778L67.0831 29.32L67.0434 29.2594" fill="#000080"/>
<path fill-rule="evenodd" clip-rule="evenodd" d="M70.4722 29.7439H70.4374L70.4052 29.7411L70.3729 29.7384C70.2935 29.7301 70.1917 29.6998 70.1246 29.653L70.1048 29.6393L70.0849 29.6255C70.0278 29.5787 70.0402 29.5319 70.1023 29.5209L70.1644 29.5127L70.2264 29.5016L70.2835 29.4906L70.3381 29.4769C70.435 29.4548 70.5789 29.4163 70.6559 29.342L70.6683 29.3255L70.6733 29.3172L70.6758 29.3062L70.6782 29.298V29.2759L70.6733 29.2622L70.6683 29.2484L70.6609 29.2319L70.641 29.1934L70.6112 29.1521L70.574 29.1025L70.5268 29.0475L70.4697 28.9897L70.4076 28.9264H71.1772V29.5209L71.1301 29.5484C70.9563 29.6475 70.7527 29.7246 70.5566 29.7466L70.5194 29.7494H70.4722V29.7439ZM69.6753 29.309L69.6902 29.3475C69.9558 29.9503 70.5392 30.2145 71.1027 29.92L71.1698 29.8842V30.198L71.6166 30.4072V28.9209H72.3117L72.1131 28.6428H69.5859L69.7845 28.9209H70.1743C70.4722 29.1603 69.9509 29.309 69.7945 29.3035L69.7349 29.3062" fill="#000080"/>
<path fill-rule="evenodd" clip-rule="evenodd" d="M72.123 28.9238H72.2918V30.201L72.7386 30.4102V28.9238H73.4362L73.2376 28.6458H71.9219" fill="#000080"/>
<path d="M50.9043 23.5244H109.705" stroke="#666666" stroke-width="1.6494" stroke-miterlimit="24.1567" stroke-linecap="round" stroke-linejoin="round"/>
</svg>
