<svg width="120" height="40" viewBox="0 0 120 40" fill="none" xmlns="http://www.w3.org/2000/svg">
<path d="M48.3187 19.2902C48.9452 18.7505 49.2604 18.0452 49.2604 17.1902C49.2604 16.3353 48.9373 15.567 48.299 14.9917C47.6647 14.4204 46.8688 14.1328 45.939 14.1328H41.6602V24.8574H46.2581C47.2076 24.8574 48.0193 24.5619 48.6694 23.9749C49.3234 23.3878 49.6544 22.6274 49.6544 21.7094C49.6544 20.6456 49.2052 19.83 48.3187 19.2863V19.2902ZM46.6915 18.0964C46.4866 18.3013 46.2423 18.4037 45.939 18.4037H43.9256V16.2486H45.939C46.2542 16.2486 46.5024 16.3471 46.6994 16.5559C46.9003 16.7647 46.9949 17.0169 46.9949 17.3281C46.9949 17.6394 46.8964 17.8915 46.6915 18.1004V18.0964ZM43.9256 20.4249H46.2581C46.593 20.4249 46.8609 20.5313 47.0816 20.7559C47.3022 20.9765 47.4086 21.2484 47.4086 21.5794C47.4086 21.9103 47.3022 22.194 47.0816 22.4186C46.8609 22.6392 46.593 22.7495 46.2581 22.7495H43.9256V20.4289V20.4249Z" fill="#3B414A"/>
<path d="M52.8932 17.1504H50.7656V24.8609H52.8932V17.1504Z" fill="#3B414A"/>
<path d="M51.8196 13.8496C51.4729 13.8496 51.1695 13.9796 50.9173 14.2357C50.6652 14.4918 50.5352 14.7952 50.5352 15.138C50.5352 15.4808 50.6652 15.7841 50.9173 16.0363C51.1695 16.2885 51.4729 16.4145 51.8196 16.4145C52.1663 16.4145 52.4854 16.2885 52.7376 16.0363C52.9898 15.7841 53.1198 15.4847 53.1198 15.138C53.1198 14.7913 52.9898 14.4918 52.7376 14.2357C52.4854 13.9796 52.1742 13.8496 51.8196 13.8496Z" fill="#3B414A"/>
<path d="M61.6942 17.1508H59.1333L56.6471 20.3225V14.1328H54.5156V24.8613H56.6471V21.5872L59.2869 24.8613H61.7849L58.5699 20.9608L61.6942 17.1508Z" fill="#3B414A"/>
<path d="M65.6523 16.9395C64.4584 16.9395 63.4695 17.3295 62.7052 18.1017C61.9447 18.874 61.5547 19.8511 61.5547 21.0055C61.5547 22.1599 61.9447 23.1488 62.7209 23.9171C63.4932 24.6854 64.5294 25.0715 65.8059 25.0715C67.2873 25.0715 68.426 24.516 69.1864 23.4207L69.2376 23.3458L67.5159 22.3569L67.4725 22.416C67.1061 22.8927 66.5545 23.137 65.8374 23.137C64.75 23.137 64.0841 22.7273 63.8084 21.8881H69.4937L69.5055 21.8211C69.5568 21.5335 69.5843 21.2616 69.5843 21.0055C69.5843 19.8629 69.2101 18.8897 68.4733 18.1136C67.7365 17.3374 66.787 16.9395 65.6523 16.9395ZM64.3954 19.2404C64.7224 18.9882 65.144 18.8582 65.6523 18.8582C66.0778 18.8582 66.4639 18.9804 66.7948 19.2207C67.1022 19.4413 67.3149 19.7762 67.4292 20.2136H63.769C63.8832 19.7999 64.092 19.4729 64.3954 19.2404Z" fill="#3B414A"/>
<path d="M75.1775 14.1328H70.8672V24.8574H75.1775C76.655 24.8574 77.904 24.3373 78.8929 23.309C79.8818 22.2807 80.3822 21.0002 80.3822 19.4951C80.3822 17.99 79.8818 16.7096 78.8929 15.6812C77.904 14.6529 76.655 14.1328 75.1775 14.1328ZM77.3642 21.8118C76.8047 22.3989 76.0679 22.6983 75.1775 22.6983H73.1327V16.288H75.1775C76.0719 16.288 76.8087 16.5874 77.3642 17.1745C77.9237 17.7655 78.2074 18.5456 78.2074 19.4912C78.2074 20.4368 77.9237 21.2208 77.3642 21.8079V21.8118Z" fill="#3B414A"/>
<path d="M85.3163 16.9395C84.1225 16.9395 83.1336 17.3295 82.3692 18.1017C81.6088 18.874 81.2188 19.8511 81.2188 21.0055C81.2188 22.1599 81.6088 23.1488 82.385 23.9171C83.1572 24.6854 84.1934 25.0715 85.47 25.0715C86.9514 25.0715 88.0901 24.516 88.8505 23.4207L88.9017 23.3458L87.1799 22.3569L87.1366 22.416C86.7702 22.8927 86.2186 23.137 85.5015 23.137C84.4141 23.137 83.7482 22.7273 83.4724 21.8881H89.1578L89.1696 21.8211C89.2208 21.5335 89.2484 21.2616 89.2484 21.0055C89.2484 19.8629 88.8741 18.8897 88.1373 18.1136C87.4006 17.3374 86.451 16.9395 85.3163 16.9395ZM84.0595 19.2404C84.3865 18.9882 84.8081 18.8582 85.3163 18.8582C85.7418 18.8582 86.128 18.9804 86.4589 19.2207C86.7662 19.4413 86.979 19.7762 87.0932 20.2136H83.433C83.5473 19.7999 83.7561 19.4729 84.0595 19.2404Z" fill="#3B414A"/>
<path d="M97.62 17.1508H95.0591L92.569 20.3225V14.1328H90.4414V24.8613H92.569V21.5872L95.2127 24.8613H97.7106L94.4956 20.9608L97.62 17.1508Z" fill="#3B414A"/>
<path d="M102.728 16.9381C101.775 16.9381 101.042 17.2375 100.549 17.8285V14.1328H98.4219V24.8574H100.549V20.7007C100.549 20.1019 100.695 19.6488 100.983 19.3572C101.27 19.0657 101.657 18.9159 102.137 18.9159C102.567 18.9159 102.917 19.042 103.173 19.2902C103.43 19.5385 103.56 19.9088 103.56 20.3855V24.8574H105.687V20.1452C105.687 19.1523 105.407 18.3604 104.852 17.793C104.296 17.2257 103.583 16.9381 102.732 16.9381H102.728Z" fill="#3B414A"/>
<path d="M113.806 18.1175C113.014 17.3374 112.033 16.9395 110.891 16.9395C109.748 16.9395 108.771 17.3374 107.983 18.1175C107.195 18.8976 106.797 19.8708 106.797 21.0055C106.797 22.1402 107.195 23.1094 107.983 23.8935C108.771 24.6736 109.748 25.0715 110.891 25.0715C112.033 25.0715 113.014 24.6736 113.806 23.8935C114.598 23.1094 115 22.1402 115 21.0055C115 19.8708 114.598 18.9016 113.806 18.1175ZM109.484 19.5714C109.854 19.1971 110.331 19.0079 110.891 19.0079C111.45 19.0079 111.927 19.1971 112.305 19.5714C112.683 19.9456 112.872 20.4263 112.872 21.0055C112.872 21.5847 112.679 22.0654 112.305 22.4397C111.927 22.8139 111.454 23.0031 110.891 23.0031C110.327 23.0031 109.854 22.8139 109.484 22.4397C109.114 22.0654 108.924 21.5847 108.924 21.0055C108.924 20.4263 109.114 19.9456 109.484 19.5714Z" fill="#3B414A"/>
<path d="M22.6392 30.1892C10.6814 30.4374 8.085 13.6531 19.8458 10.2844C22.592 9.44916 28.0606 9.01576 37.0477 9C38.3479 9 39.4038 10.0559 39.4038 11.364C39.4038 12.6721 38.3558 13.7358 37.0595 13.7358C26.0828 13.7555 22.521 14.4214 21.209 14.8193C15.2045 16.419 15.6182 24.5038 21.54 25.4179C27.1702 26.0364 29.8021 18.9918 25.015 15.5325C26.5713 15.367 28.9944 15.233 30.8817 15.1779C31.5869 16.3953 32.0439 17.7546 32.1976 19.1533C32.8635 24.7835 28.2576 30.0473 22.6392 30.1931V30.1892ZM18.388 9.34278C15.5394 9.12214 11.8989 9.00788 7.3561 9C6.05985 9 5 10.0559 5 11.364C5 12.6721 6.04803 13.7358 7.34428 13.7358C9.36943 13.7358 11.1424 13.7634 12.6987 13.8068C14.0147 11.7816 15.9531 10.2569 18.388 9.34278Z" fill="#E12D2B"/>
</svg>
