<svg width="110" height="26" viewBox="0 0 110 26" fill="none" xmlns="http://www.w3.org/2000/svg">
<path d="M28.9648 12.6742C28.9648 9.03768 31.665 6.24609 35.3929 6.24609C37.6358 6.24609 39.613 7.36099 40.6887 9.10737L38.2498 10.5184C37.7054 9.56465 36.6428 8.99849 35.3886 8.99849C33.198 8.99849 31.7869 10.4661 31.7869 12.6698C31.7869 14.8735 33.2023 16.3411 35.3886 16.3411C36.6428 16.3411 37.7185 15.775 38.2498 14.8212L40.6887 16.2322C39.6304 17.9786 37.6532 19.0935 35.3929 19.0935C31.665 19.0935 28.9648 16.3019 28.9648 12.6654" fill="#24272C"/>
<path d="M51.0516 9.46334V19.1185H48.3122V17.9862C47.7069 18.6786 46.8141 19.1011 45.5903 19.1011C43.1994 19.1011 41.2266 17.0019 41.2266 14.28C41.2266 11.5581 43.1994 9.45898 45.5903 9.45898C46.8141 9.45898 47.7069 9.87707 48.3122 10.5739V9.45898H51.0516V9.46334ZM48.3122 14.2844C48.3122 12.9169 47.3977 12.059 46.1391 12.059C44.8805 12.059 43.9659 12.9169 43.9659 14.2844C43.9659 15.6519 44.8805 16.5098 46.1391 16.5098C47.3977 16.5098 48.3122 15.6519 48.3122 14.2844Z" fill="#24272C"/>
<path d="M57.6477 9.46289V12.5942C56.5066 12.4113 54.8866 12.8685 54.8866 14.6933V19.1181H52.1211V9.46289H54.8866V11.2877C55.2524 10.0552 56.4892 9.46289 57.6477 9.46289Z" fill="#24272C"/>
<path d="M25.7479 12.6819C25.7479 19.0272 21.1533 24.3012 15.1128 25.3638L13.7148 17.4376C15.9795 17.0413 17.7041 15.0641 17.7041 12.6819C17.7041 10.2997 15.9795 8.32251 13.7148 7.9262L15.1128 0C21.1576 1.05828 25.7479 6.33661 25.7479 12.6819Z" fill="#F75D34"/>
<path d="M12.0374 17.4333L10.6394 25.3595C4.59458 24.3012 0 19.0272 0 12.6819C0 6.33661 4.59458 1.05828 10.635 0L12.033 7.9262C9.76839 8.32251 8.04379 10.2997 8.04379 12.6819C8.04379 15.0641 9.76839 17.0413 12.033 17.4376" fill="#F75D34"/>
<path d="M86.7009 19.1196L83.8744 15.2175V19.1196H81.2266V6.24609H83.8744V13.3318L86.5223 9.46448H89.6144L86.4004 14.1418L89.7015 19.1196H86.7009Z" fill="#24272C"/>
<path d="M99.2527 13.1184V19.1196H96.6049V13.5103C96.6049 12.4172 95.9168 11.9033 95.0675 11.9033C94.0963 11.9033 93.4257 12.4695 93.4257 13.7237V19.124H90.7734V6.24609H93.4257V10.5402C93.9004 9.88692 94.7845 9.46448 95.9516 9.46448C97.7328 9.46448 99.2527 10.7362 99.2527 13.1184Z" fill="#24272C"/>
<path d="M100.324 14.2976C100.324 11.5801 102.48 9.47656 105.163 9.47656C107.845 9.47656 110.001 11.5757 110.001 14.2976C110.001 17.0195 107.845 19.1187 105.163 19.1187C102.48 19.1187 100.324 17.0195 100.324 14.2976ZM107.262 14.2976C107.262 12.9998 106.347 12.1419 105.163 12.1419C103.978 12.1419 103.064 12.9998 103.064 14.2976C103.064 15.5954 103.978 16.4534 105.163 16.4534C106.347 16.4534 107.262 15.5954 107.262 14.2976Z" fill="#24272C"/>
<path d="M69.8372 12.6594C69.8372 16.3003 67.1327 19.0962 63.579 19.0962H58.7188V6.22266H63.579C67.1327 6.22266 69.8372 9.0186 69.8372 12.6594ZM67.0979 12.6594C67.0979 10.4514 65.6999 9.00118 63.6704 9.00118H61.4624V16.322H63.6704C65.6912 16.322 67.0979 14.8718 67.0979 12.6638" fill="#24272C"/>
<path d="M75.7399 16.6544C76.28 16.6544 76.7634 16.5064 77.1292 16.2712C77.1292 16.2712 77.9828 16.5891 79.6943 17.2249C78.8015 18.4705 77.4471 19.1107 75.7051 19.1107C72.5825 19.1107 70.6445 17.0072 70.6445 14.2809C70.6445 11.5547 72.6217 9.45117 75.5091 9.45117C78.1788 9.45117 80.156 11.5155 80.156 14.2809C80.156 14.6685 80.1211 15.03 80.0471 15.3828H73.5581C73.8934 16.3322 74.7296 16.6544 75.7399 16.6544ZM77.4166 13.3228C77.1292 12.2689 76.2974 11.8769 75.4786 11.8769C74.4421 11.8769 73.7366 12.3908 73.484 13.3228H77.4166Z" fill="#24272C"/>
</svg>
