<svg width="150" height="40" viewBox="0 0 150 40" fill="none" xmlns="http://www.w3.org/2000/svg">
<path d="M7.93306 12H5V14.9376H7.93306V12Z" fill="#E53344"/>
<path d="M22.6119 12H10.8706V14.9331H19.6834V17.2163L16.0148 19.3327C13.745 20.6458 12.3462 23.0644 12.3462 25.6906V28.2853L10.3833 27.1527C8.86713 26.2772 7.93758 24.6618 7.93758 22.9155V17.8752H5V23.1953C5 25.817 6.39885 28.2401 8.66858 29.5487L12.3417 31.6696L13.8669 32.5495L15.2747 31.7373L18.9433 29.6209C21.2131 28.3078 22.6119 25.8847 22.6119 23.263V12ZM19.6789 22.9877C19.6789 24.734 18.7448 26.3494 17.2331 27.2249L15.2747 28.353V25.9704C15.2747 24.2241 16.2088 22.6087 17.7205 21.7333L19.6789 20.6006V22.9832V22.9877Z" fill="#E53344"/>
<path d="M69.8387 14.9512V23.7458H67.3434V22.717C66.7929 23.3488 65.9806 23.7323 64.8661 23.7323C62.6866 23.7323 60.8906 21.8191 60.8906 19.3417C60.8906 16.8644 62.6866 14.9557 64.8661 14.9557C65.9806 14.9557 66.7929 15.3392 67.3434 15.971V14.9557H69.8387V14.9512ZM67.3434 19.3372C67.3434 18.0918 66.5131 17.3112 65.3624 17.3112C64.2118 17.3112 63.386 18.0918 63.386 19.3372C63.386 20.5827 64.2163 21.3678 65.3624 21.3678C66.5086 21.3678 67.3434 20.5872 67.3434 19.3372Z" fill="#14122C"/>
<path d="M60.168 14.9512V17.803C59.1257 17.6361 57.6546 18.0557 57.6546 19.7163V23.7458H55.1367V14.9512H57.6546V16.6117C57.9886 15.4881 59.1121 14.9512 60.168 14.9512Z" fill="#14122C"/>
<path d="M123.791 23.7473L121.215 20.1915V23.7473H118.801V12.0195H121.215V18.4768L123.629 14.9526H126.44L123.516 19.2123L126.521 23.7473H123.791Z" fill="#14122C"/>
<path d="M135.217 18.2827V23.7473H132.803V18.6392C132.803 17.642 132.175 17.1772 131.404 17.1772C130.519 17.1772 129.91 17.6916 129.91 18.8333V23.7518H127.496V12.0195H129.91V15.9318C130.343 15.3361 131.147 14.9526 132.212 14.9526C133.836 14.9526 135.217 16.1078 135.217 18.2827Z" fill="#14122C"/>
<path d="M136.191 19.3411C136.191 16.8638 138.154 14.9551 140.596 14.9551C143.037 14.9551 145 16.8683 145 19.3411C145 21.8139 143.037 23.7317 140.596 23.7317C138.154 23.7317 136.191 21.8184 136.191 19.3411ZM142.509 19.3411C142.509 18.1589 141.678 17.3782 140.596 17.3782C139.513 17.3782 138.682 18.1589 138.682 19.3411C138.682 20.5234 139.513 21.304 140.596 21.304C141.678 21.304 142.509 20.5234 142.509 19.3411Z" fill="#14122C"/>
<path d="M108.431 17.8616C108.431 21.1782 105.967 23.7232 102.731 23.7232H98.3047V12H102.731C105.967 12 108.431 14.545 108.431 17.8616ZM105.935 17.8616C105.935 15.8491 104.663 14.5269 102.817 14.5269H100.805V21.1918H102.817C104.654 21.1918 105.935 19.8696 105.935 17.8571" fill="#14122C"/>
<path d="M113.807 21.5038C114.299 21.5038 114.737 21.3684 115.071 21.1518C115.071 21.1518 115.851 21.4406 117.408 22.0182C116.596 23.1508 115.364 23.7374 113.776 23.7374C110.933 23.7374 109.164 21.8242 109.164 19.3423C109.164 16.8605 110.965 14.9473 113.595 14.9473C116.027 14.9473 117.828 16.8289 117.828 19.3423C117.828 19.6943 117.796 20.0237 117.729 20.3441H111.822C112.124 21.206 112.891 21.5038 113.812 21.5038M115.342 18.4715C115.08 17.5103 114.322 17.1583 113.577 17.1583C112.634 17.1583 111.989 17.6276 111.759 18.4715H115.342Z" fill="#14122C"/>
<path d="M93.3151 21.5077C93.807 21.5077 94.2447 21.3723 94.5786 21.1557C94.5786 21.1557 95.3593 21.4445 96.916 22.0221C96.1038 23.1547 94.8719 23.7413 93.2836 23.7413C90.4407 23.7413 88.6719 21.8281 88.6719 19.3463C88.6719 16.8644 90.4723 14.9512 93.1031 14.9512C95.5352 14.9512 97.3357 16.8328 97.3357 19.3463C97.3357 19.6982 97.3041 20.0276 97.2364 20.348H91.3297C91.632 21.2099 92.3991 21.5077 93.3197 21.5077M94.8494 18.4754C94.5876 17.5142 93.8296 17.1622 93.0805 17.1622C92.1374 17.1622 91.4966 17.6315 91.262 18.4754H94.8448H94.8494Z" fill="#14122C"/>
<path d="M28.2311 12.0195H25.5508V23.7428H28.2311V12.0195Z" fill="#14122C"/>
<path d="M37.4319 18.4934V23.7458H34.8644V18.8725C34.8644 17.812 34.1965 17.3157 33.3753 17.3157C32.4322 17.3157 31.7824 17.8617 31.7824 19.08V23.7504H29.2148V14.9512H31.7824V15.9935C32.2427 15.3618 33.1 14.9512 34.2281 14.9512C35.9564 14.9512 37.4274 16.1831 37.4274 18.4934" fill="#14122C"/>
<path d="M79.0257 18.4934V23.7458H76.4581V18.8725C76.4581 17.812 75.7903 17.3157 74.969 17.3157C74.0259 17.3157 73.3762 17.8617 73.3762 19.08V23.7504H70.8086V14.9512H73.3762V15.9935C73.8364 15.3618 74.6938 14.9512 75.8219 14.9512C77.5501 14.9512 79.0212 16.1831 79.0212 18.4934" fill="#14122C"/>
<path d="M45.2079 21.0107C45.2079 22.924 43.5428 23.7407 41.7424 23.7407C40.0773 23.7407 38.8093 23.109 38.1641 21.7598L40.33 20.5279C40.5466 21.1596 41.0114 21.5116 41.7469 21.5116C42.3471 21.5116 42.6449 21.3266 42.6449 20.9972C42.6449 20.0812 38.5476 20.564 38.5476 17.6851C38.5476 15.8711 40.0818 14.9551 41.8101 14.9551C43.1593 14.9551 44.3596 15.5552 45.059 16.7375L42.9292 17.8881C42.6945 17.4549 42.3651 17.1571 41.8146 17.1571C41.3814 17.1571 41.1152 17.3241 41.1152 17.6219C41.1152 18.5695 45.2124 17.9378 45.2124 21.0197" fill="#14122C"/>
<path d="M54.1579 14.9512V23.7458H51.5903V22.7035C51.1301 23.3352 50.2727 23.7458 49.1446 23.7458C47.4164 23.7458 45.9453 22.514 45.9453 20.2036V14.9512H48.5129V19.8246C48.5129 20.885 49.1807 21.3813 50.002 21.3813C50.9451 21.3813 51.5948 20.8353 51.5948 19.6215V14.9512H54.1624H54.1579Z" fill="#14122C"/>
<path d="M79.7617 19.3463C79.7617 16.8644 81.6434 14.9512 84.1749 14.9512C85.7903 14.9512 87.2207 15.7995 87.9382 17.081L85.7587 18.349C85.4744 17.7669 84.8743 17.4149 84.1433 17.4149C83.0603 17.4149 82.2616 18.1956 82.2616 19.3463C82.2616 20.4969 83.0603 21.2776 84.1433 21.2776C84.8743 21.2776 85.4925 20.9301 85.7587 20.3435L87.9382 21.5934C87.2207 22.893 85.8083 23.7413 84.1749 23.7413C81.6434 23.7413 79.7617 21.8281 79.7617 19.3463Z" fill="#14122C"/>
</svg>
