<svg width="103" height="92" viewBox="0 0 103 92" fill="none" xmlns="http://www.w3.org/2000/svg">
<path opacity="0.7" d="M75.6884 85.4375H27.2691L2.58594 87.5411L29.619 91.8037L72.7045 92.0008L100.025 87.5559L75.6884 85.4375Z" fill="#E8EAF8"/>
<path d="M66.2381 63.2236L35.7757 63.3496L20.625 65.7015L35.9368 67.9294L66.3992 67.8035L81.5499 65.4515L66.2381 63.2236Z" fill="white" stroke="#DDE1FF" stroke-width="0.454565" stroke-miterlimit="10"/>
<path d="M30.6981 76.9686V90.1988L9.41016 86.8134V74.1055L30.6981 76.9686Z" fill="#DDE1FF" stroke="#DDE1FF" stroke-width="0.454565" stroke-miterlimit="10"/>
<path d="M71.4766 76.9686V90.1988L92.9757 86.8301V74.1055L71.4766 76.9686Z" fill="#DDE1FF" stroke="#DDE1FF" stroke-width="0.454565" stroke-miterlimit="10"/>
<path d="M71.4768 76.969H30.6973V90.1992H71.4768V76.969Z" fill="#DDE1FF" stroke="#DDE1FF" stroke-width="0.454565" stroke-miterlimit="10"/>
<path d="M72.1428 70.7363H30.691L9.55859 74.0865L30.9114 77.47H72.3632L92.9789 74.1031L72.1428 70.7363Z" fill="white" stroke="#DDE1FF" stroke-width="0.454565" stroke-linecap="round" stroke-linejoin="round"/>
<path d="M20.625 65.7031V72.9238L35.9368 74.7498V67.7625L20.625 65.7031Z" fill="#DDE1FF" stroke="#DDE1FF" stroke-width="0.454565" stroke-miterlimit="10"/>
<path d="M81.5519 65.4531V72.759L66.2383 74.6683V67.681L81.5519 65.4531Z" fill="#DDE1FF" stroke="#DDE1FF" stroke-width="0.454565" stroke-miterlimit="10"/>
<path d="M35.9375 67.7631V74.7505L66.2388 74.669V67.6816L35.9375 67.7631Z" fill="#DDE1FF" stroke="#DDE1FF" stroke-width="0.454565" stroke-miterlimit="10"/>
<path d="M40.3095 90.0611L50.0599 77.3346L46.5283 74.7678L50.7655 67.4286L36.2148 63.6543L45.7264 63.6545L56.8213 67.4286L53.2674 74.5715L58.5362 77.3346L47.369 90.0611H40.3095Z" fill="white"/>
<path d="M51.5177 90.0611L62.9959 77.3994L56.7142 74.5623L60.2717 67.5435L47.6211 63.6543L53.2454 63.6545L64.1441 67.4286L60.5903 74.5715L67.335 77.3346L56.8735 90.0611H51.5177Z" fill="white"/>
<path d="M28.2181 2V33.3049H21.1587C15.1118 33.3049 12.8623 41.2376 18.0091 44.4118L48.1569 63.0051C50.0878 64.1959 52.5252 64.1959 54.4561 63.0051L84.604 44.4118C89.7507 41.2376 87.5013 33.3049 81.4544 33.3049H74.5542V2" stroke="#5367FF" stroke-width="3" stroke-linecap="round"/>
<path d="M53.6866 34.4362C53.7665 35.3107 54.0187 36.183 54.4583 37.0067C56.2237 40.3122 60.3424 41.564 63.657 39.8034C66.1328 38.4881 67.4585 35.8645 67.2353 33.2432C67.1554 32.3687 66.9032 31.4953 66.4636 30.6716C64.6982 27.3661 60.5795 26.1143 57.2638 27.8749C54.7892 29.1902 53.4634 31.8149 53.6866 34.4362ZM64.5883 31.6246C65.7764 33.8478 64.9318 36.611 62.7013 37.7959C60.4719 38.9808 57.7012 38.1386 56.513 35.9142C55.3249 33.6909 56.1694 30.9277 58.3999 29.7428C60.6293 28.5579 63.4001 29.4001 64.5883 31.6246Z" fill="#46BE88"/>
<path d="M36.2411 19.7065C36.3209 20.581 36.5732 21.4532 37.0128 22.277C38.7782 25.5825 42.8969 26.8343 46.2126 25.0737C48.6884 23.7584 50.013 21.1348 49.7909 18.5135C49.7111 17.639 49.4589 16.7656 49.0192 15.9418C47.2538 12.6364 43.1352 11.3846 39.8206 13.1452C37.3437 14.4604 36.0178 17.084 36.2411 19.7065ZM47.1428 16.8948C48.3309 19.1181 47.4864 21.8824 45.2558 23.0662C43.0264 24.2511 40.2556 23.4088 39.0675 21.1844C37.8793 18.9612 38.7239 16.198 40.9544 15.0131C43.1849 13.8282 45.9546 14.6704 47.1428 16.8948Z" fill="#46BE88"/>
<path d="M60.7548 16.8095L43.4971 40.2535C43.0169 40.9053 42.0902 41.0461 41.4377 40.5684C40.7841 40.0908 40.6429 39.1655 41.1219 38.5148L58.3796 15.0708C58.8586 14.419 59.7853 14.2782 60.439 14.7559C61.0915 15.2335 61.2338 16.1576 60.7548 16.8095Z" fill="#46BE88"/>
</svg>
