<svg width="184" height="92" viewBox="0 0 184 92" fill="none" xmlns="http://www.w3.org/2000/svg">
<path d="M2.93851 73.115H68.6643C69.2718 73.115 69.8281 73.2969 70.2956 73.6035C70.6915 73.863 71.0157 74.2134 71.2444 74.6278C71.4731 75.0388 71.6028 75.5139 71.6028 76.0159C71.6028 76.1069 71.5993 76.1945 71.5891 76.2821C71.4526 77.7578 70.1966 78.9169 68.6643 78.9169H12.0612L22.3545 85.7902L22.7504 85.9856L22.3682 91.9694L22.0644 91.9088L21.0064 91.1979L21.1464 91.5112L1.31056 78.4283C0.522175 77.9095 0 77.02 0 76.0126C0 74.4155 1.31738 73.115 2.93851 73.115Z" fill="#2939B4"/>
<path d="M129.109 71.7295L130.942 72.9391L136.372 76.5273L141.28 79.7652H183.999L180.996 77.7807L175.095 73.8858L171.832 71.7295H129.109Z" fill="#C9F0DF"/>
<path fill-rule="evenodd" clip-rule="evenodd" d="M130.887 72.1611H171.354L182.227 79.3377H141.757L130.887 72.1611ZM180.842 78.9229L171.228 72.5752H132.27L141.884 78.9229H180.842Z" fill="#46BE88"/>
<path d="M161.516 77.9093C158.387 77.9093 154.448 77.168 151.482 76.0225C149.38 75.2105 148.629 74.5029 148.469 74.2266C148.585 74.139 148.899 73.9537 149.643 73.8021C150.336 73.6606 151.196 73.5898 152.192 73.5898C155.4 73.5898 159.52 74.3479 162.438 75.4766C164.486 76.2684 165.178 76.9591 165.311 77.2152C165.209 77.3062 164.888 77.5252 164.032 77.697C163.335 77.8385 162.492 77.9093 161.516 77.9093Z" fill="#79B236"/>
<path fill-rule="evenodd" clip-rule="evenodd" d="M161.516 77.9093C158.387 77.9093 154.448 77.168 151.482 76.0225C149.38 75.2105 148.629 74.5029 148.469 74.2266C148.585 74.139 148.899 73.9537 149.643 73.8021C150.336 73.6606 151.196 73.5898 152.192 73.5898C155.4 73.5898 159.52 74.3479 162.438 75.4766C164.486 76.2684 165.178 76.9591 165.311 77.2152C165.209 77.3062 164.888 77.5252 164.032 77.697C163.335 77.8385 162.492 77.9093 161.516 77.9093V77.9093Z" stroke="#46BE88" stroke-width="1.8585"/>
<path d="M174.18 78.5316H179.436L176.401 76.5303L174.18 78.5316Z" fill="#46BE88"/>
<path d="M165.867 72.5518H171.123L174.157 74.5531L165.867 72.5518Z" fill="#B3DD72"/>
<path d="M147.852 78.2494H142.597L139.562 76.248L147.852 78.2494Z" fill="#46BE88"/>
<path d="M137.803 72.5137H132.551L135.581 74.515L137.803 72.5137Z" fill="#B3DD72"/>
<rect x="141.281" y="79.7656" width="42.7193" height="3.56132" fill="#2CA66F"/>
<path d="M141.28 79.7648L129.109 71.7324V75.132L141.28 83.3295V79.7648Z" fill="#46BE88"/>
<path d="M2.55859 73.1152L6.73258 75.8713L11.77 79.1968L22.3705 86.1981H86.1304L86.1338 86.2015L90.1338 86.6867L70.298 73.6038C69.8304 73.2972 69.2741 73.1152 68.6666 73.1152H2.55859Z" fill="#5367FF"/>
<path d="M18.7344 74.7998L33.7989 84.7493H80.5046L65.44 74.7998H18.7344Z" fill="white"/>
<path d="M18.7344 74.7998L33.7989 84.7493H72.3853L57.3207 74.7998H18.7344Z" fill="#D7DBF8"/>
<path d="M39.518 82.7988C39.1264 82.7988 38.7433 82.6838 38.4164 82.4681L32.5337 78.5856C31.7059 78.0393 32.0927 76.751 33.0845 76.751H41.8356C42.2274 76.751 42.6106 76.8661 42.9375 77.0819L48.8179 80.9643C49.6455 81.5107 49.2586 82.7988 48.2669 82.7988H39.518Z" fill="#46BE88"/>
<path d="M44.0868 81.0391L40.2575 78.5088H37.7559L41.5851 81.0391H44.0868Z" fill="white"/>
<g style="mix-blend-mode:multiply">
<path d="M136.373 76.5481V78.9841L132.551 76.3797L132.496 73.9336L136.373 76.5481Z" fill="#C9C9C9"/>
</g>
<g style="mix-blend-mode:multiply" opacity="0.78">
<path d="M130.943 72.9404L136.373 76.5287L160.305 77.6069L180.997 77.7821L175.096 73.8872L130.943 72.9404Z" fill="#5D547F"/>
</g>
<path d="M141.786 65.4505C140.386 68.8837 139.164 72.3878 138.141 75.9457C153.345 77.1823 168.42 76.9835 183.563 75.1371C180.785 70.9963 178.119 66.8083 175.563 62.5293C164.369 64.7833 153.198 65.6425 141.786 65.4505Z" fill="#C9F0DF"/>
<path fill-rule="evenodd" clip-rule="evenodd" d="M139.529 75.4797C153.741 76.5242 167.833 76.2951 181.982 74.6071C179.583 70.9312 177.293 67.1846 175.126 63.3672C164.317 65.4123 153.529 66.2041 142.533 66.0255C141.379 69.132 140.376 72.2856 139.529 75.4797Z" stroke="#46BE88" stroke-width="1.3668"/>
<path d="M160.816 74.5143C157.823 74.5143 155.42 73.6416 154.219 72.1221C153.854 71.6605 153.758 71.209 153.919 70.6969C154.304 69.457 156.134 68.1227 157.601 67.6578C158.581 67.3478 159.601 67.1895 160.632 67.1895C162.843 67.1895 164.861 67.9206 166.311 69.2481C167.13 69.9961 167.434 70.8552 167.192 71.7312C166.888 72.8262 165.772 73.7595 164.407 74.056L164.359 74.0695C163.27 74.3593 162.048 74.5143 160.816 74.5143Z" fill="#F7FFC7"/>
<path fill-rule="evenodd" clip-rule="evenodd" d="M160.816 74.5143C157.823 74.5143 155.42 73.6416 154.219 72.1221C153.854 71.6605 153.758 71.209 153.919 70.6969C154.304 69.457 156.134 68.1227 157.601 67.6578C158.581 67.3478 159.601 67.1895 160.632 67.1895C162.843 67.1895 164.861 67.9206 166.311 69.2481C167.13 69.9961 167.434 70.8552 167.192 71.7312C166.888 72.8262 165.772 73.7595 164.407 74.056L164.359 74.0695C163.27 74.3593 162.048 74.5143 160.816 74.5143Z" fill="#C9F0DF" stroke="#46BE88" stroke-width="1.8585"/>
<path d="M161.543 72.1325C161.564 72.1157 161.574 72.0955 161.574 72.0719L161.547 71.6474C161.755 71.6069 161.932 71.5429 162.079 71.4553L162.117 72.0315C162.117 72.055 162.13 72.0719 162.154 72.0854C162.178 72.0988 162.209 72.1056 162.243 72.1022L162.628 72.0786C162.663 72.0753 162.693 72.0685 162.714 72.0517C162.734 72.0348 162.745 72.0146 162.745 71.991L162.615 69.929C162.615 69.9055 162.601 69.8886 162.577 69.8751C162.553 69.8616 162.523 69.8549 162.489 69.8583L161.987 69.8886C161.953 69.892 161.925 69.8987 161.905 69.9189C161.881 69.9358 161.871 69.956 161.874 69.9762L161.898 70.3367C161.919 70.6838 161.792 70.9162 161.512 71.0274L161.448 70.0032C161.448 69.9796 161.434 69.9627 161.41 69.9493C161.386 69.9358 161.355 69.929 161.321 69.9324L160.936 69.956C160.902 69.9594 160.871 69.9661 160.85 69.9829C160.83 69.9998 160.82 70.02 160.82 70.0436L160.888 71.1015C160.68 71.078 160.516 71.0038 160.4 70.8758C160.284 70.7478 160.219 70.5759 160.205 70.3603L160.188 70.084C160.188 70.0638 160.175 70.0436 160.147 70.0301C160.123 70.0166 160.093 70.0099 160.062 70.0133L159.581 70.0436C159.547 70.047 159.519 70.0537 159.499 70.0705C159.004 70.4209 158.311 70.8758 157.42 71.4385C157.39 71.4553 157.376 71.4755 157.379 71.5025L157.41 71.9843C157.414 72.018 157.437 72.0416 157.482 72.0517C157.53 72.0652 157.571 72.0584 157.608 72.0348C158.478 71.4957 159.13 71.078 159.56 70.7714C159.629 71.0476 159.782 71.27 160.018 71.4284C160.256 71.5901 160.557 71.6777 160.922 71.6945L160.949 72.1123C160.949 72.1359 160.963 72.1528 160.987 72.1662C161.011 72.1797 161.041 72.1864 161.076 72.1831L161.461 72.1595C161.495 72.1595 161.523 72.1494 161.543 72.1325Z" fill="#46BE88"/>
<path d="M175.613 74.8036C177.722 74.598 178.77 74.4801 180.845 74.2173C180.053 72.9606 179.664 72.3305 178.9 71.0771C177.736 72.6068 177.077 73.3548 175.613 74.8036Z" fill="#46BE88"/>
<path opacity="0.63" d="M170.82 64.8101C172.452 64.5507 173.257 64.4091 174.851 64.1025C175.54 65.3492 175.895 65.9725 176.619 67.2225C174.151 66.2622 172.994 65.7771 170.82 64.8101Z" fill="#46BE88"/>
<path opacity="0.63" d="M146.006 75.4465C143.761 75.3387 142.634 75.2713 140.375 75.1028C140.634 74.028 140.771 73.489 141.061 72.4209C142.894 73.6204 143.883 74.2268 146.006 75.4465Z" fill="#46BE88"/>
<path d="M147.875 66.5662C146.073 66.5729 145.165 66.5628 143.343 66.5156C142.991 67.5635 142.821 68.0924 142.5 69.1504C144.78 68.1767 145.858 67.6578 147.875 66.5662Z" fill="#46BE88"/>
<path d="M183.559 75.1367C168.416 76.9831 153.341 77.1819 138.137 75.9453" stroke="#2CA66F" stroke-width="0.8179"/>
<g style="mix-blend-mode:multiply" opacity="0.61">
<path d="M173.455 66.9902L176.619 70.6257C176.619 70.6257 142.981 76.2086 138.377 75.1371C139.124 72.408 139.124 72.408 139.124 72.408L173.455 66.9902Z" fill="#5D547F"/>
</g>
<path d="M131 74.8707C146.211 73.7217 161.064 71.1746 175.723 66.9899C172.313 63.3376 169.013 59.6146 165.805 55.7871C163.423 56.6732 161.027 57.4886 158.617 58.2433C150.235 60.8646 141.703 62.7009 132.918 63.9374C132.543 65.558 132.208 67.1854 131.915 68.8228C131.553 70.8275 131.246 72.8457 131 74.8707Z" fill="#C9F0DF"/>
<path fill-rule="evenodd" clip-rule="evenodd" d="M132.301 74.1933C146.498 73.0106 160.379 70.5881 174.078 66.7135C171.119 63.4588 168.259 60.1164 165.508 56.6865C155.164 60.3927 144.638 62.8557 133.748 64.3954C133.113 67.6367 132.628 70.9082 132.301 74.1933Z" stroke="#46BE88" stroke-width="1.3668"/>
<path d="M151.074 70.0851C149.627 70.0851 147.617 69.8256 146.266 68.5824C145.832 68.1848 145.665 67.7502 145.74 67.2212C145.924 65.9341 147.518 64.3337 148.89 63.6464C150.266 62.9557 151.795 62.5918 153.306 62.5918C154.951 62.5918 156.487 63.0298 157.747 63.8586C158.675 64.4685 159.112 65.2704 159.013 66.1733C158.89 67.302 157.934 68.4004 156.637 68.9024L156.59 68.9227C154.938 69.6639 152.928 70.0851 151.074 70.0851Z" fill="#C9F0DF"/>
<path fill-rule="evenodd" clip-rule="evenodd" d="M151.074 70.0851C149.627 70.0851 147.617 69.8256 146.266 68.5824C145.832 68.1848 145.665 67.7502 145.74 67.2212C145.924 65.9341 147.518 64.3337 148.89 63.6464C150.266 62.9557 151.795 62.5918 153.306 62.5918C154.951 62.5918 156.487 63.0298 157.747 63.8586C158.675 64.4685 159.112 65.2704 159.013 66.1733C158.89 67.302 157.934 68.4004 156.637 68.9024L156.59 68.9227C154.938 69.6639 152.928 70.0851 151.074 70.0851V70.0851Z" stroke="#46BE88" stroke-width="1.8585"/>
<path d="M153.804 67.6695C153.824 67.6392 153.828 67.6055 153.817 67.5718L153.609 66.935C153.852 66.8103 154.049 66.6587 154.2 66.4835L154.483 67.3528C154.493 67.3865 154.517 67.41 154.551 67.4269C154.585 67.4404 154.626 67.4404 154.671 67.4269L155.145 67.2753C155.189 67.2618 155.22 67.2382 155.241 67.2079C155.261 67.1776 155.264 67.1439 155.254 67.1102L154.237 64.0071C154.227 63.9734 154.203 63.9498 154.169 63.933C154.135 63.9195 154.094 63.9195 154.049 63.933L153.432 64.1317C153.391 64.1452 153.36 64.1688 153.34 64.1991C153.319 64.2328 153.312 64.2631 153.323 64.2968L153.5 64.8393C153.671 65.3649 153.606 65.7524 153.302 66.0051L152.797 64.4653C152.787 64.4316 152.763 64.4047 152.729 64.3912C152.695 64.3777 152.654 64.3777 152.609 64.3912L152.135 64.5428C152.09 64.5563 152.06 64.5799 152.039 64.6102C152.019 64.6405 152.015 64.6742 152.026 64.7079L152.548 66.3016C152.275 66.3285 152.039 66.2611 151.841 66.1061C151.643 65.9478 151.49 65.7052 151.381 65.3784L151.244 64.9606C151.234 64.9269 151.21 64.9033 151.172 64.8898C151.135 64.8764 151.097 64.8764 151.056 64.8865L150.466 65.0751C150.425 65.0886 150.394 65.1088 150.374 65.1425C149.899 65.8231 149.217 66.7227 148.329 67.8481C148.299 67.8817 148.292 67.9188 148.306 67.9592L148.544 68.687C148.562 68.7409 148.602 68.7679 148.664 68.7679C148.729 68.7746 148.78 68.7544 148.817 68.7038C149.688 67.6223 150.333 66.7867 150.746 66.1971C150.947 66.6014 151.23 66.8878 151.592 67.063C151.957 67.2382 152.37 67.282 152.838 67.1978L153.043 67.8245C153.053 67.8582 153.077 67.8851 153.111 67.8952C153.145 67.9087 153.186 67.9087 153.23 67.8952L153.705 67.7436C153.749 67.7234 153.783 67.6998 153.804 67.6695Z" fill="#46BE88"/>
<path d="M167.822 67.8994C169.873 67.367 170.887 67.0874 172.894 66.5045C171.911 65.3859 171.423 64.8266 170.471 63.708C169.57 65.3994 169.041 66.2383 167.822 67.8994Z" fill="#46BE88"/>
<path d="M161.492 58.7757C163.062 58.2636 163.833 57.9974 165.359 57.4482C166.24 58.5702 166.69 59.1329 167.605 60.2548C165.014 59.6922 163.792 59.3957 161.492 58.7757Z" fill="#46BE88"/>
<path d="M139.18 73.072C136.948 73.318 135.822 73.4258 133.562 73.6111C133.648 72.506 133.696 71.9568 133.812 70.8584C135.815 71.758 136.89 72.2027 139.18 73.072Z" fill="#46BE88"/>
<path opacity="0.63" d="M139.113 64.0898C137.335 64.3762 136.437 64.5076 134.628 64.7469C134.447 65.8385 134.369 66.3843 134.219 67.4793C136.318 66.1619 137.297 65.4814 139.113 64.0898Z" fill="#46BE88"/>
<path d="M175.723 66.9902C161.064 71.1749 146.211 73.722 131 74.871" stroke="#2CA66F" stroke-width="0.8179"/>
<path d="M101.373 26.5283C105.513 32.2291 110.929 36.4239 116.898 40.1132C129.512 32.5862 141.963 22.7951 147.553 8.84636C141.243 7.48517 135.813 5.50404 130.4 2C125.059 13.9407 112.847 21.2621 101.373 26.5283Z" fill="#C9F0DF"/>
<path fill-rule="evenodd" clip-rule="evenodd" d="M117.151 38.762C128.994 31.5821 140.533 22.4008 146.13 9.44263C140.669 8.1185 135.485 6.36985 130.826 3.17578C125.41 14.4359 114.151 21.4979 103.223 26.7944C107.298 31.6428 111.789 35.3624 117.151 38.762Z" stroke="#46BE88" stroke-width="1.5539"/>
<path d="M126.549 25.9928C125.928 25.9928 125.324 25.9457 124.754 25.8513C122.963 25.5548 121.539 24.5508 120.847 23.0953C120.184 21.7004 120.3 20.1236 121.167 18.6546C122.686 16.0804 125.495 14.4834 128.491 14.4834C129.024 14.4834 129.56 14.5339 130.082 14.6384C132.229 15.0562 134.222 16.3028 135.16 17.8055C135.761 18.7657 135.915 19.7967 135.618 20.8715C134.392 24.3891 130.061 25.9928 126.549 25.9928Z" fill="#C9F0DF"/>
<path fill-rule="evenodd" clip-rule="evenodd" d="M126.549 25.9928C125.928 25.9928 125.324 25.9457 124.754 25.8513C122.963 25.5548 121.539 24.5508 120.847 23.0953C120.184 21.7004 120.3 20.1236 121.167 18.6546C122.686 16.0804 125.495 14.4834 128.491 14.4834C129.024 14.4834 129.56 14.5339 130.082 14.6384C132.229 15.0562 134.222 16.3028 135.16 17.8055C135.761 18.7657 135.915 19.7967 135.618 20.8715C134.392 24.3891 130.061 25.9928 126.549 25.9928V25.9928Z" stroke="#46BE88" stroke-width="1.8585"/>
<path d="M130.331 21.1145C130.344 21.0741 130.337 21.0303 130.314 20.9898L129.88 20.225C130.102 20.0363 130.266 19.8207 130.372 19.5781L130.965 20.6226C130.989 20.663 131.023 20.69 131.064 20.7034C131.105 20.7135 131.15 20.7102 131.191 20.6866L131.655 20.4305C131.696 20.4069 131.723 20.3733 131.737 20.3328C131.747 20.2924 131.744 20.2486 131.72 20.2082L129.604 16.4817C129.58 16.4413 129.546 16.4144 129.505 16.4009C129.464 16.3908 129.419 16.3941 129.378 16.4177L128.774 16.7513C128.733 16.7715 128.71 16.8052 128.696 16.849C128.682 16.8928 128.689 16.9332 128.71 16.9737L129.078 17.6239C129.436 18.254 129.491 18.7493 129.245 19.1064L128.194 17.2567C128.17 17.2162 128.136 17.1893 128.095 17.1758C128.054 17.1657 128.01 17.1691 127.969 17.1927L127.505 17.4487C127.464 17.4723 127.437 17.506 127.423 17.5464C127.409 17.5869 127.416 17.6307 127.44 17.6711L128.525 19.5848C128.239 19.6556 127.966 19.6084 127.696 19.44C127.43 19.2715 127.184 18.9919 126.962 18.5976L126.679 18.0956C126.658 18.0552 126.624 18.0316 126.58 18.0181C126.535 18.0047 126.495 18.0114 126.454 18.0316L125.877 18.3517C125.836 18.3719 125.812 18.4056 125.798 18.446C125.508 19.3591 125.065 20.5821 124.474 22.1084C124.454 22.1556 124.457 22.2028 124.484 22.2499L124.979 23.1226C125.013 23.1866 125.068 23.2135 125.136 23.2068C125.208 23.2068 125.256 23.1731 125.28 23.1024C125.867 21.6334 126.29 20.4979 126.546 19.7028C126.894 20.1778 127.293 20.4979 127.747 20.663C128.198 20.8281 128.662 20.8247 129.136 20.6529L129.563 21.4042C129.587 21.4447 129.621 21.4716 129.662 21.4851C129.703 21.4986 129.747 21.4919 129.788 21.4683L130.252 21.2122C130.29 21.192 130.317 21.1583 130.331 21.1145Z" fill="#46BE88"/>
<path d="M143.117 13.6546C144.011 12.1216 144.404 11.3602 145.083 9.86084C143.096 9.40262 142.141 9.12971 140.318 8.50977C141.472 10.5515 142.032 11.5792 143.117 13.6546Z" fill="#46BE88"/>
<path d="M129.42 7.34427C130.266 6.05046 130.635 5.40693 131.266 4.13672C132.683 5.07338 133.44 5.51138 135.044 6.31327C132.788 6.84224 131.659 7.04777 129.42 7.34427Z" fill="#46BE88"/>
<path d="M123.13 33.9844C121.024 35.4332 119.911 36.1407 117.573 37.5221C115.672 36.3833 114.775 35.7802 113.082 34.5235C116.437 34.5032 119.792 34.3247 123.13 33.9844Z" fill="#46BE88"/>
<path d="M110.304 24.1025C108.28 25.2548 107.212 25.8141 104.963 26.8856C106.174 28.3546 106.837 29.0688 108.27 30.4536C109.12 27.9098 109.526 26.6396 110.304 24.1025Z" fill="#46BE88"/>
<path d="M147.553 8.8457C141.966 22.7979 129.512 32.5856 116.898 40.1125C110.929 36.4232 105.513 32.2251 101.373 26.5276" stroke="#2CA66F" stroke-width="0.8179"/>
<path d="M114.473 12.5469C109.955 2.2302 81.2644 -2.22061 70.3073 8.84745C51.5218 27.8232 54.5361 35.7545 48.8398 68.0826" stroke="#46BE88" stroke-width="3" stroke-dasharray="6 5"/>
<g style="mix-blend-mode:multiply">
<path d="M131.918 68.8227C140.945 71.1643 162.638 63.3712 162.638 63.3712L158.617 58.2432C150.235 60.8645 141.703 62.7007 132.918 63.9372C132.546 65.5579 132.211 67.1852 131.918 68.8227Z" fill="#C9C9C9"/>
</g>
<path d="M19.8398 89.0987C19.8398 90.1062 20.3586 90.9956 21.147 91.5145C21.6146 91.8211 22.1709 91.9997 22.7749 91.9997H88.5041C90.1252 91.9997 91.4426 90.7025 91.4426 89.0987C91.4426 88.5934 91.3129 88.125 91.0843 87.7106C90.8556 87.2962 90.528 86.9458 90.1321 86.6863C89.6645 86.3797 89.1082 86.2012 88.5041 86.2012H22.7784C21.1538 86.2012 19.8398 87.4983 19.8398 89.0987Z" fill="#3648CE"/>
<path d="M19.8398 89.0986C19.8398 90.106 20.3586 90.9955 21.147 91.5144C21.6146 91.821 22.1709 91.9996 22.7749 91.9996H88.5041C90.1252 91.9996 91.4426 90.7024 91.4426 89.0986H19.8398Z" fill="#D7DBF8"/>
<path d="M77.5075 81.3563C77.6065 81.4237 77.7191 81.4742 77.842 81.5113C77.9648 81.5484 78.0843 81.5652 78.2072 81.5652H79.4597C79.5553 81.5652 79.644 81.5046 79.6713 81.4102C79.6986 81.3159 79.6611 81.2182 79.5792 81.1643L74.7943 78.0881C74.6782 78.014 74.5519 77.9567 74.4086 77.9197C74.2687 77.8826 74.1287 77.8725 73.9922 77.8826L73.0332 77.9534C72.9411 77.9601 72.8591 78.0241 72.8353 78.1151C72.8114 78.206 72.8489 78.3038 72.9274 78.3509L77.5075 81.3563Z" fill="#2939B4"/>
<path d="M121.02 43.7379C123.289 47.589 125.859 51.2042 128.634 54.678C130.18 56.6086 131.784 58.4953 133.436 60.3552C147.985 58.091 159.715 51.5984 167.81 39.2838C162.688 36.2413 157.817 32.9664 153.476 28.8828C150.06 33.2393 146.159 36.5311 141.814 38.8997C135.716 42.2218 128.75 43.7143 121.02 43.7379Z" fill="#C9F0DF"/>
<path d="M167.81 39.2839C159.715 51.602 147.981 58.0912 133.432 60.3554C128.807 55.1532 124.551 49.732 121.016 43.7415" stroke="#2CA66F" stroke-width="0.8383"/>
<path fill-rule="evenodd" clip-rule="evenodd" d="M133.795 59.3006C147.45 56.9657 158.368 50.9549 166.337 39.6274C161.798 36.8073 157.463 33.8255 153.539 30.2002C145.494 39.9408 135.218 44.1524 122.621 44.6106C125.867 49.8767 129.693 54.6611 133.795 59.3006Z" stroke="#46BE88" stroke-width="1.4999"/>
<path d="M147.779 51.9085C145.987 51.9085 144.049 51.4469 142.462 50.6417C140.619 49.7084 139.172 47.9463 138.936 46.356C138.786 45.3351 139.137 44.4119 139.98 43.6167C141.567 42.1174 143.864 41.2549 146.281 41.2549C147.455 41.2549 148.622 41.4671 149.653 41.8681C151.431 42.5588 152.973 44.0615 153.588 45.6956C153.905 46.5446 154.13 47.8485 153.393 49.2535C152.042 51.4469 149.598 51.9085 147.779 51.9085Z" fill="#C9F0DF"/>
<path fill-rule="evenodd" clip-rule="evenodd" d="M147.779 51.9085C145.987 51.9085 144.049 51.4469 142.462 50.6417C140.619 49.7084 139.172 47.9463 138.936 46.356C138.786 45.3351 139.137 44.4119 139.98 43.6167C141.567 42.1174 143.864 41.2549 146.281 41.2549C147.455 41.2549 148.622 41.4671 149.653 41.8681C151.431 42.5588 152.973 44.0615 153.588 45.6956C153.905 46.5446 154.13 47.8485 153.393 49.2535C152.042 51.4469 149.598 51.9085 147.779 51.9085V51.9085Z" stroke="#46BE88" stroke-width="1.9048"/>
<path d="M148.032 47.9892C148.052 47.9555 148.056 47.9184 148.045 47.8746L147.854 47.1098C148.093 46.9986 148.288 46.8504 148.434 46.6617L148.697 47.7062C148.707 47.7466 148.731 47.7803 148.765 47.8005C148.8 47.8207 148.837 47.8241 148.881 47.814L149.346 47.6994C149.387 47.6893 149.421 47.6657 149.441 47.6354C149.462 47.6017 149.465 47.5647 149.455 47.5209L148.52 43.7911C148.509 43.7506 148.486 43.7169 148.451 43.6967C148.417 43.6765 148.38 43.6731 148.335 43.6833L147.731 43.8315C147.69 43.8416 147.663 43.8652 147.639 43.8989C147.619 43.9359 147.612 43.973 147.622 44.0101L147.786 44.6603C147.943 45.2904 147.875 45.7318 147.574 45.9878L147.11 44.1381C147.1 44.0977 147.076 44.064 147.042 44.0438C147.008 44.0236 146.97 44.0202 146.926 44.0303L146.462 44.1448C146.421 44.155 146.387 44.1785 146.366 44.2122C146.346 44.2459 146.342 44.283 146.353 44.3268L146.83 46.2405C146.564 46.2338 146.339 46.1293 146.148 45.9205C145.957 45.7116 145.813 45.4117 145.714 45.0141L145.588 44.5121C145.578 44.4717 145.554 44.4447 145.52 44.4211C145.482 44.4009 145.445 44.3942 145.407 44.4043L144.83 44.5458C144.789 44.5559 144.762 44.5761 144.742 44.6098C144.267 45.3342 143.591 46.2877 142.708 47.4737C142.677 47.5107 142.67 47.5512 142.68 47.5983L142.899 48.471C142.916 48.535 142.953 48.5721 143.011 48.5822C143.073 48.599 143.124 48.5788 143.161 48.5249C144.025 47.3895 144.667 46.5033 145.079 45.8733C145.267 46.3652 145.537 46.7392 145.888 46.9885C146.24 47.2378 146.643 47.3457 147.097 47.3086L147.284 48.0599C147.294 48.1004 147.318 48.1341 147.352 48.1543C147.387 48.1745 147.424 48.1779 147.469 48.1678L147.933 48.0532C147.98 48.0431 148.011 48.0229 148.032 47.9892Z" fill="#46BE88"/>
<path d="M162.332 43.6808C163.595 42.2185 164.179 41.4503 165.247 39.8566C163.551 38.8223 162.742 38.2967 161.213 37.2354C161.677 39.8162 161.902 41.1066 162.332 43.6808Z" fill="#46BE88"/>
<path d="M150.807 34.5497C152.046 33.3064 152.626 32.6494 153.687 31.2646C154.858 32.3327 155.482 32.8718 156.813 33.9432C154.421 34.3138 153.213 34.4351 150.807 34.5497Z" fill="#46BE88"/>
<path d="M139.613 57.3288C137.541 57.8612 136.473 58.0802 134.295 58.4003C132.773 56.7392 132.057 55.9137 130.705 54.2695C133.654 55.4016 136.586 56.4056 139.613 57.3288Z" fill="#46BE88"/>
<path opacity="0.63" d="M129.101 44.9033C127.159 45.1661 126.163 45.247 124.139 45.2908C125.145 46.8541 125.681 47.6493 126.838 49.2564C127.756 47.528 128.207 46.6553 129.101 44.9033Z" fill="#46BE88"/>
<g style="mix-blend-mode:multiply">
<path d="M121.02 43.7387C123.289 47.5897 125.859 51.205 128.634 54.6787C134.733 51.2825 143.265 45.083 146.347 41.8822C144.545 41.0163 142.941 39.837 141.811 38.9004C135.716 42.2225 128.75 43.7151 121.02 43.7387Z" fill="#C9C9C9"/>
</g>
</svg>
