<svg width="60" height="60" viewBox="0 0 60 60" fill="none" xmlns="http://www.w3.org/2000/svg">
<path d="M54.1369 46.6536C55.3222 45.024 55.9645 43.0627 55.973 41.0477C55.9858 40.7827 55.8927 40.5236 55.7144 40.3272C55.536 40.1309 55.2869 40.0134 55.022 40.0007C54.4724 39.9802 54.0072 40.4027 53.9749 40.9517C53.9824 42.5487 53.4904 44.1081 52.5678 45.4116C50.6167 47.8756 46.9145 48.0006 46.1915 48.0006C45.6391 48.0006 45.1914 48.4483 45.1914 49.0006C45.1914 49.5529 45.6391 50.0006 46.1915 50.0006C47.0755 50.0006 51.6128 49.8396 54.1369 46.6536Z" fill="#24272C"/>
<path d="M41.4749 27.5996H33.4137C32.8541 27.5996 32.4004 28.0533 32.4004 28.613C32.4004 29.1726 32.8541 29.6263 33.4137 29.6263H35.7208L35.9608 29.6371C36.7524 29.712 37.4533 30.1698 37.8427 30.8517L37.9444 31.0538L33.4137 31.0553C32.8541 31.0553 32.4004 31.509 32.4004 32.0686L32.4137 32.233C32.4922 32.7144 32.9101 33.0819 33.4137 33.0819L37.9532 33.0804L37.8629 33.2649C37.7552 33.4598 37.6174 33.6379 37.454 33.7923C36.9923 34.2557 36.3698 34.5132 35.7214 34.5109L33.4137 34.5109C32.9971 34.5139 32.6254 34.7686 32.4721 35.1547C32.3193 35.5413 32.4165 35.9816 32.7175 36.2683L38.4835 41.7185C38.7461 41.9697 39.1245 42.0614 39.4739 41.9576C39.8236 41.8531 40.0904 41.5699 40.1729 41.215L40.1982 41.0368C40.2136 40.7394 40.0971 40.4463 39.874 40.2401L35.9512 36.5276L35.7208 36.5376C36.9072 36.5414 38.0464 36.07 38.8837 35.2284L39.1099 34.9873C39.543 34.4893 39.8588 33.8994 40.0331 33.2622L40.0745 33.0804L41.4753 33.0819C42.0349 33.0819 42.4886 32.6282 42.4886 32.0686L42.4754 31.9042C42.3968 31.4228 41.9789 31.0553 41.4753 31.0553L40.0693 31.0538L40.0033 30.7967C39.883 30.4046 39.7119 30.0301 39.4945 29.6828L39.4546 29.6261L41.4749 29.6263C42.0345 29.6263 42.4882 29.1726 42.4882 28.613C42.4882 28.0533 42.0345 27.5996 41.4749 27.5996Z" fill="#46BE88"/>
<path d="M59.1673 33.7713C56.7032 23.3005 51.2248 17.2335 47.2686 14.0646C52.2299 14.4386 53.827 16.5025 53.874 16.5645C54.1873 17.0118 54.8015 17.125 55.2537 16.8189C55.7059 16.5128 55.8289 15.9006 55.5301 15.4436C55.4581 15.3356 54.069 13.3516 50.0298 12.4436C51.0626 11.5946 51.6736 10.3373 51.7029 9.00063C51.5692 6.78461 50.0264 4.90546 47.8787 4.34269C47.9667 3.62036 48.0115 2.8934 48.0127 2.16572C48.0116 1.49533 47.6747 0.870063 47.1154 0.500426C46.556 0.13079 45.8487 0.0659525 45.2315 0.327742C44.7266 0.556314 44.2577 0.857128 43.8394 1.22073C43.3487 1.72504 42.673 2.00683 41.9693 2.00072C41.2667 2.00567 40.5925 1.724 40.1022 1.22073C38.3398 -0.40691 35.6223 -0.40691 33.8599 1.22073C33.369 1.72614 32.6923 2.00809 31.9878 2.00072C31.2853 2.00656 30.611 1.72473 30.1217 1.22073C29.7045 0.857909 29.237 0.557457 28.7336 0.328742C28.1168 0.0687071 27.4108 0.13443 26.8526 0.503847C26.2945 0.873264 25.9581 1.4974 25.9564 2.16672C25.9564 4.65469 26.4485 9.09263 29.5636 12.0726C27.9265 13.068 26.3975 14.2313 25.0014 15.5436V8.00065C25.0014 5.72067 21.7762 4.0007 17.501 4.0007C13.2257 4.0007 10.0006 5.72067 10.0006 8.00065V18.0755C6.49336 18.4255 4.00022 20.0005 4.00022 22.0005V47.4352C1.58409 48.0841 0 49.4001 0 51.0001V56C0 58.28 3.22518 60 7.50042 60C11.3236 60 14.3008 58.623 14.8878 56.7C16.6141 57.614 18.5488 58.0621 20.5011 58C24.7764 58 28.0016 56.28 28.0016 54.0001V41.0002C28.0016 38.7203 24.7764 37.0003 20.5011 37.0003C20.0002 37 19.4995 37.025 19.0011 37.0753V22.0005C19.0011 19.8105 16.0239 18.1425 12.0007 18.0135V10.7696C13.702 11.6343 15.5934 12.0576 17.501 12.0006C19.4086 12.0576 21.3 11.6343 23.0013 10.7696V17.5895C22.3422 18.3265 21.6802 19.1295 21.0272 20.0195C20.7281 20.4648 20.8337 21.0667 21.2664 21.3837C21.6991 21.7006 22.3048 21.6198 22.6393 21.2005C23.2816 20.331 23.9699 19.4965 24.7014 18.7005C24.7094 18.6915 24.7164 18.6825 24.7244 18.6745C26.6334 16.553 28.8752 14.7565 31.3617 13.3556C31.852 13.592 32.3706 13.7644 32.9048 13.8686L30.3267 16.2745C29.9229 16.6517 29.9015 17.2848 30.2787 17.6885C30.6559 18.0922 31.289 18.1137 31.6928 17.7365L35.693 14.0056H36.012V17.0055C36.012 17.5578 36.4597 18.0055 37.0121 18.0055C37.5644 18.0055 38.0121 17.5578 38.0121 17.0055V14.0006H38.3311L42.3314 17.7315C42.5925 17.9755 42.9641 18.0617 43.306 17.9575C43.6479 17.8534 43.9083 17.5747 43.989 17.2265C44.0698 16.8784 43.9586 16.5136 43.6974 16.2695L41.1023 13.8536C41.6333 13.7485 42.1486 13.5754 42.6354 13.3386C45.2785 14.7686 53.967 20.4185 57.2212 34.2293C58.6363 40.2412 58.1262 44.8402 55.7061 47.8952C52.6099 51.8001 47.2376 52.0001 46.1926 52.0001H32.0018C31.4495 52.0001 31.0017 52.4478 31.0017 53.0001C31.0017 53.5524 31.4495 54.0001 32.0018 54.0001H46.1926C47.8927 54.0001 53.698 53.6491 57.2732 49.1371C60.0913 45.5782 60.7294 40.4082 59.1673 33.7713ZM7.50042 49.0001C10.8076 49.0001 13.0007 50.2001 13.0007 51.0001C13.0007 51.8001 10.8076 53.0001 7.50042 53.0001C4.19323 53.0001 2.00011 51.8001 2.00011 51.0001C2.00011 50.2001 4.19323 49.0001 7.50042 49.0001ZM7.50042 58C4.19323 58 2.00011 56.8 2.00011 56V53.7691C3.70144 54.6338 5.59279 55.057 7.50042 55.0001C9.40804 55.057 11.2994 54.6338 13.0007 53.7691V56C13.0007 56.8 10.8076 58 7.50042 58ZM20.5011 56C17.194 56 15.0008 54.8001 15.0008 54.0001V43.7692C16.7022 44.6339 18.5935 45.0572 20.5011 45.0002C22.4088 45.0572 24.3001 44.6339 26.0014 43.7692V54.0001C26.0014 54.8001 23.8083 56 20.5011 56ZM26.0014 41.0002C26.0014 41.8002 23.8083 43.0002 20.5011 43.0002C17.194 43.0002 15.0008 41.8002 15.0008 41.0002C15.0008 40.2002 17.194 39.0003 20.5011 39.0003C23.8083 39.0003 26.0014 40.2002 26.0014 41.0002ZM13.0007 41.0002V48.2311C11.2994 47.3665 9.40804 46.9432 7.50042 47.0002C6.99944 46.9998 6.49878 47.0249 6.00033 47.0752V24.7694C7.70166 25.6341 9.59302 26.0574 11.5006 26.0004C13.4083 26.0574 15.2996 25.6341 17.0009 24.7694V37.4353C14.5848 38.0843 13.0007 39.4003 13.0007 41.0002ZM17.0009 22.0005C17.0009 22.8005 14.8078 24.0004 11.5006 24.0004C8.19346 24.0004 6.00033 22.8005 6.00033 22.0005C6.00033 21.2005 8.19346 20.0005 11.5006 20.0005C14.8078 20.0005 17.0009 21.2005 17.0009 22.0005ZM17.501 10.0006C14.1938 10.0006 12.0007 8.80064 12.0007 8.00065C12.0007 7.20066 14.1938 6.00067 17.501 6.00067C20.8082 6.00067 23.0013 7.20066 23.0013 8.00065C23.0013 8.80064 20.8082 10.0006 17.501 10.0006ZM49.7028 9.00063C49.7028 10.6396 47.9277 11.9846 45.7025 12.0006C45.3304 11.9982 44.9595 11.9557 44.5965 11.8736C46.0479 10.3252 47.0568 8.41532 47.5176 6.34367C48.7214 6.69833 49.5872 7.75111 49.7028 9.00063ZM28.8696 2.78071C29.7142 3.57204 30.8304 4.00877 31.9878 4.0007C33.1459 4.00939 34.263 3.5726 35.108 2.78071C35.6023 2.28166 36.2756 2.00089 36.9781 2.00089C37.6805 2.00089 38.3538 2.28166 38.8482 2.78071C39.6932 3.5732 40.8108 4.01006 41.9693 4.0007C43.1278 4.00965 44.2453 3.57284 45.0905 2.78071C45.3677 2.53579 45.676 2.32866 46.0076 2.16472C46.0076 4.0217 45.6625 8.61264 42.4404 11.1296C41.7155 11.674 40.8367 11.9747 39.9302 11.9886C40.796 10.5017 41.4812 8.91688 41.9713 7.26766C42.0671 6.92326 41.9718 6.55394 41.7214 6.29882C41.471 6.0437 41.1035 5.94154 40.7574 6.03082C40.4112 6.1201 40.139 6.38726 40.0432 6.73166C39.4894 8.6114 38.6378 10.3903 37.5211 12.0006H36.493C35.3785 10.3888 34.5268 8.6104 33.9699 6.73166C33.8216 6.19954 33.27 5.88838 32.7378 6.03667C32.2057 6.18496 31.8945 6.73654 32.0428 7.26865C32.5334 8.9193 33.2193 10.5055 34.0859 11.9936C33.1613 11.9889 32.2628 11.6862 31.5238 11.1306C28.3016 8.61464 27.9566 4.0237 27.9566 2.17272C28.288 2.33149 28.5953 2.53616 28.8696 2.78071Z" fill="#24272C"/>
<path d="M54.1369 46.6536C55.3222 45.0239 55.9645 43.0627 55.973 41.0476C55.9858 40.7827 55.8927 40.5235 55.7144 40.3271C55.536 40.1308 55.2869 40.0133 55.022 40.0006C54.4727 39.9812 54.0082 40.4031 53.9749 40.9516C53.9824 42.5486 53.4904 44.108 52.5678 45.4116C50.6167 47.8755 46.9145 48.0005 46.1915 48.0005C45.6391 48.0005 45.1914 48.4483 45.1914 49.0005C45.1914 49.5528 45.6391 50.0005 46.1915 50.0005C47.0755 50.0005 51.6128 49.8395 54.1369 46.6536Z" fill="#24272C"/>
</svg>
