<svg width="124" height="92" viewBox="0 0 124 92" fill="none" xmlns="http://www.w3.org/2000/svg">
<path d="M100.077 41.4702L58.1973 69.9824L70.3849 88.0158L112.264 59.5036L100.077 41.4702Z" fill="#C9F0DF"/>
<path d="M99.2755 44.0415L60.873 70.1865L71.1834 85.4422L109.586 59.2971L99.2755 44.0415Z" fill="#46BE88"/>
<path d="M98.7141 45.6832L62.5996 70.2705L71.7466 83.8047L107.861 59.2174L98.7141 45.6832Z" fill="#C9F0DF"/>
<path d="M89.5828 71.1883C92.7537 69.0294 93.3753 64.3955 90.9711 60.8381C88.5669 57.2808 84.0473 56.147 80.8763 58.3059C77.7053 60.4647 77.0838 65.0987 79.488 68.656C81.8922 72.2134 86.4118 73.3471 89.5828 71.1883Z" fill="#25B69A"/>
<path d="M98.9954 58.6982C100.116 57.9356 100.335 56.2982 99.4852 55.041C98.6355 53.7839 97.0387 53.3829 95.9186 54.1455C94.7984 54.9082 94.5792 56.5455 95.4288 57.8027C96.2785 59.0599 97.8753 59.4608 98.9954 58.6982Z" fill="#46BE88"/>
<path d="M74.5425 75.3486C75.6627 74.5859 75.882 72.9486 75.0323 71.6914C74.1827 70.4342 72.5858 70.0333 71.4657 70.7959C70.3456 71.5585 70.1263 73.1959 70.9759 74.4531C71.8256 75.7102 73.4224 76.1112 74.5425 75.3486Z" fill="#25B69A"/>
<path d="M117.593 66.4941H66.9883V88.2848H117.593V66.4941Z" fill="#C9F0DF"/>
<path d="M115.494 68.1738H69.0898V86.6081H115.494V68.1738Z" fill="#46BE88"/>
<path d="M114.112 69.2119H70.4727V85.5661H114.112V69.2119Z" fill="#C9F0DF"/>
<path d="M92.2933 85.1759C96.125 85.1759 99.2311 81.6912 99.2311 77.3926C99.2311 73.0941 96.125 69.6094 92.2933 69.6094C88.4616 69.6094 85.3555 73.0941 85.3555 77.3926C85.3555 81.6912 88.4616 85.1759 92.2933 85.1759Z" fill="#46BE88"/>
<path d="M107.064 80.1438C108.418 80.1438 109.515 78.9123 109.515 77.3932C109.515 75.8741 108.418 74.6426 107.064 74.6426C105.711 74.6426 104.613 75.8741 104.613 77.3932C104.613 78.9123 105.711 80.1438 107.064 80.1438Z" fill="#46BE88"/>
<path d="M77.5191 80.1438C78.8727 80.1438 79.9699 78.9123 79.9699 77.3932C79.9699 75.8741 78.8727 74.6426 77.5191 74.6426C76.1656 74.6426 75.0684 75.8741 75.0684 77.3932C75.0684 78.9123 76.1656 80.1438 77.5191 80.1438Z" fill="#25B69A"/>
<path d="M15.7586 43.0797C15.7063 43.1161 15.6499 43.1403 15.5855 43.1565C15.336 43.209 15.0906 43.0474 15.0382 42.793C14.9376 42.3123 14.7404 41.7872 14.5956 41.6014C14.5593 41.6418 14.5111 41.7064 14.4467 41.8155C13.8591 42.8414 13.1348 43.007 12.6518 42.8212C12.0522 42.591 11.5412 41.7347 11.8993 40.0141C11.9677 39.6748 11.9758 39.4769 11.9637 39.3719C11.6619 39.5132 11.0542 40.0989 10.7323 40.8057C10.4787 41.355 10.1407 41.4479 9.90327 41.4318C9.31573 41.3874 8.88514 40.6644 8.37003 38.8549C8.12857 38.7175 7.32774 38.4752 6.55509 38.3096C6.30558 38.2571 6.14461 38.0107 6.20095 37.7603C6.25327 37.5099 6.49875 37.3483 6.74825 37.4048C9.05013 37.8976 9.16683 38.2854 9.2272 38.4914L9.25537 38.5883C9.55719 39.6546 9.78657 40.1393 9.91937 40.3614C10.3419 39.493 11.4566 38.1682 12.3219 38.455C12.849 38.6287 13.01 39.2184 12.8048 40.208C12.5633 41.3752 12.8249 41.8963 12.9818 41.9569C13.0663 41.9892 13.344 41.8842 13.6458 41.355C13.9557 40.8138 14.3179 40.5755 14.7203 40.6401C15.489 40.7653 15.831 42.0578 15.9437 42.6072C15.9839 42.793 15.9035 42.9787 15.7546 43.0797H15.7586Z" fill="#E4ECF9"/>
<path d="M37.3007 59.996C37.3007 59.996 34.7936 58.8529 33.9243 55.2501L37.5542 43.1773C37.5542 43.1773 37.5542 41.3194 36.685 40.9922C35.8157 40.665 33.6386 41.9737 32.3307 42.523C31.0228 43.0683 27.5418 43.1773 23.9522 41.8687C20.3625 40.556 18.5114 42.3049 18.5114 42.3049L22.0246 56.1023C21.0829 59.5759 19.0547 60 19.0547 60C4.25341 66.5554 8.17304 83.9758 8.17304 83.9758C8.17304 87.203 17.0425 89.8204 27.9805 89.8204C28.0489 89.8204 28.1133 89.8204 28.1817 89.8204C28.2501 89.8204 28.3145 89.8204 28.3829 89.8204C39.3209 89.8204 48.1903 87.203 48.1903 83.9758C48.1903 83.9758 52.11 66.5554 37.3087 60L37.3007 59.996Z" fill="#5367FF"/>
<path d="M34.7936 55.8486H21.4854C21.1031 55.8486 20.7932 56.1597 20.7932 56.5434V57.0119C20.7932 57.3956 21.1031 57.7066 21.4854 57.7066H34.7936C35.1759 57.7066 35.4858 57.3956 35.4858 57.0119V56.5434C35.4858 56.1597 35.1759 55.8486 34.7936 55.8486Z" fill="#DDE1FF"/>
<path d="M34.7936 53.6621H21.4854C21.1031 53.6621 20.7932 53.9731 20.7932 54.3568V54.8254C20.7932 55.209 21.1031 55.5201 21.4854 55.5201H34.7936C35.1759 55.5201 35.4858 55.209 35.4858 54.8254V54.3568C35.4858 53.9731 35.1759 53.6621 34.7936 53.6621Z" fill="#DDE1FF"/>
<path d="M28.7736 67.6587C28.6207 67.6587 28.4677 67.6143 28.3309 67.5254C24.7332 65.1181 25.023 57.5328 25.0391 57.2097C25.0592 56.7654 25.4254 56.4221 25.8721 56.4423C26.3148 56.4624 26.6528 56.834 26.6367 57.2783C26.5522 59.2211 26.854 64.6052 29.2203 66.1885C29.5865 66.4349 29.6871 66.9317 29.4416 67.2992C29.2887 67.5295 29.0352 67.6547 28.7776 67.6547L28.7736 67.6587Z" fill="#DDE1FF"/>
<path d="M22.6031 62.3753C22.3456 62.3753 22.092 62.25 21.9391 62.0198C21.6936 61.6523 21.7942 61.1555 22.1604 60.9091C23.1021 60.279 23.3677 57.9808 23.3114 56.6761C23.2913 56.2359 23.6333 55.8603 24.076 55.8401C24.5106 55.8158 24.8889 56.1632 24.909 56.6034C24.9291 57.0397 25.0378 60.905 23.0458 62.2379C22.909 62.3308 22.756 62.3712 22.6031 62.3712V62.3753Z" fill="#DDE1FF"/>
<path d="M30.0048 72.0362C29.9726 71.9797 29.9324 71.9312 29.8962 71.8787L31.8721 71.8868L32.355 70.1056L25.5942 70.0813H25.1717L23.7471 70.0732L23.1958 72.2422L25.5862 72.2503C26.1254 72.2503 26.556 72.3513 26.882 72.5411C27.208 72.7269 27.4414 72.9854 27.5862 73.3206C27.6064 73.3651 27.6104 73.4135 27.6265 73.458L23.6545 73.4418L23.1716 75.2311L27.6748 75.2473C27.6386 75.3644 27.6104 75.4815 27.5581 75.5865C27.3971 75.9178 27.1557 76.1803 26.8297 76.3782C26.5037 76.5761 26.0892 76.669 25.5862 76.669L23.4252 76.6609V78.2402L27.8438 83.5273L30.862 83.5395V83.4102L26.8901 78.5674C27.7633 78.4179 28.4635 78.1554 28.9988 77.7798C29.534 77.4001 29.9243 76.9194 30.1739 76.3338C30.3147 76.0066 30.4073 75.6431 30.4716 75.2554H31.852L32.3268 73.4701L30.4837 73.462C30.4032 72.9289 30.2503 72.4442 30.0048 72.0281V72.0362Z" fill="#F8CE4B"/>
<path d="M120.08 89.9529C120.72 89.9529 121.36 89.9529 122 89.9529" stroke="#E4ECF9" stroke-width="2.33268" stroke-linecap="round" stroke-linejoin="round"/>
<path d="M11.1426 89.9607C45.0148 90.0132 78.7824 90.0132 112.397 89.9607" stroke="#E4ECF9" stroke-width="2.33268" stroke-linecap="round" stroke-linejoin="round"/>
<path d="M2 89.949C2.72034 89.949 3.44471 89.949 4.16505 89.949" stroke="#E4ECF9" stroke-width="2.33268" stroke-linecap="round" stroke-linejoin="round"/>
<path d="M105.04 22.04C103.917 22.04 103.008 21.1594 103.008 20.081C103.008 19.0026 103.921 18.1221 105.04 18.1221C106.159 18.1221 107.072 19.0026 107.072 20.081C107.072 21.1594 106.159 22.04 105.04 22.04ZM105.04 18.7845C104.3 18.7845 103.696 19.3661 103.696 20.081C103.696 20.7959 104.3 21.3775 105.04 21.3775C105.781 21.3775 106.384 20.7959 106.384 20.081C106.384 19.3661 105.781 18.7845 105.04 18.7845Z" fill="#D6EBFD"/>
<path d="M27.2542 24.1703C25.9262 24.1703 24.8477 23.1282 24.8477 21.8478C24.8477 20.5675 25.9262 19.5254 27.2542 19.5254C28.5822 19.5254 29.6607 20.5675 29.6607 21.8478C29.6607 23.1282 28.5822 24.1703 27.2542 24.1703ZM27.2542 20.1918C26.3044 20.1918 25.5358 20.935 25.5358 21.8478C25.5358 22.7607 26.3085 23.5039 27.2542 23.5039C28.1999 23.5039 28.9725 22.7607 28.9725 21.8478C28.9725 20.935 28.1999 20.1918 27.2542 20.1918Z" fill="#D6EBFD"/>
<path d="M102.375 9.86418C101.856 9.86418 101.438 9.45624 101.438 8.95944C101.438 8.46263 101.86 8.05469 102.375 8.05469C102.89 8.05469 103.313 8.46263 103.313 8.95944C103.313 9.45624 102.89 9.86418 102.375 9.86418ZM102.375 8.71709C102.238 8.71709 102.126 8.82615 102.126 8.95944C102.126 9.09272 102.238 9.20178 102.375 9.20178C102.512 9.20178 102.625 9.09272 102.625 8.95944C102.625 8.82615 102.512 8.71709 102.375 8.71709Z" fill="#D6EBFD"/>
<path d="M96.924 18.1025C96.4049 18.1025 95.9863 17.6945 95.9863 17.1977C95.9863 16.7009 96.4089 16.293 96.924 16.293C97.4391 16.293 97.8616 16.7009 97.8616 17.1977C97.8616 17.6945 97.4391 18.1025 96.924 18.1025ZM96.924 16.9554C96.7872 16.9554 96.6745 17.0644 96.6745 17.1977C96.6745 17.331 96.7872 17.4401 96.924 17.4401C97.0608 17.4401 97.1735 17.331 97.1735 17.1977C97.1735 17.0644 97.0608 16.9554 96.924 16.9554Z" fill="#D6EBFD"/>
<path d="M36.837 11.5121C36.2655 11.5121 35.8027 11.0678 35.8027 10.5185V6.019C35.8027 5.46969 36.2655 5.02539 36.837 5.02539C37.4084 5.02539 37.8712 5.46969 37.8712 6.019V10.5185C37.8712 11.0678 37.4084 11.5121 36.837 11.5121Z" fill="#D6EBFD"/>
<g opacity="0.4">
<path d="M101.876 30.875L99.7106 32.6441C99.5295 32.7895 99.2518 32.7572 99.0868 32.5714C98.9218 32.3856 98.9339 32.115 99.115 31.9655L101.28 30.1964C101.461 30.051 101.739 30.0833 101.904 30.2691C102.069 30.4549 102.057 30.7255 101.876 30.875Z" fill="#ED5EFC"/>
</g>
<path d="M23.8226 18.0872C22.4342 19.3999 23.0218 22.2959 25.1385 24.5497C27.2553 26.8076 30.0964 27.5709 31.4848 26.2583L32.2534 25.5312L24.5832 17.3643L23.8226 18.0832V18.0872Z" fill="#FDAE3A"/>
<path d="M31.0297 24.2267L28.418 26.6946C29.3234 26.9692 30.1806 26.9733 30.8567 26.6703L32.1646 25.4344L31.0297 24.2227V24.2267Z" fill="#FDCF86"/>
<path d="M26.8086 25.9435C27.2593 26.2303 27.7181 26.4525 28.1648 26.614L30.8691 24.0613L29.8992 23.0273L26.8126 25.9476L26.8086 25.9435Z" fill="#FDCF86"/>
<path d="M24.6393 17.3149C23.2348 18.6438 23.8103 21.5519 25.9231 23.8057C28.0358 26.0595 30.893 26.8148 32.3015 25.4859C33.706 24.1571 33.1345 21.249 31.0178 18.9952C28.901 16.7374 26.0478 15.9861 24.6393 17.3149Z" fill="#FAEA5C"/>
<path d="M27.8516 16.8965L29.2279 25.948C30.077 26.1984 30.8859 26.2146 31.5458 25.9601L30.3949 18.3909C29.582 17.676 28.7007 17.1711 27.8516 16.8965Z" fill="#FFF3C3"/>
<path d="M28.9341 25.85L27.5578 16.8065C27.1272 16.6934 26.7087 16.645 26.3184 16.6571L27.6182 25.2037C28.0568 25.4784 28.4995 25.6925 28.9341 25.85Z" fill="#FFF3C3"/>
<path d="M25.3091 17.8159C24.13 18.9307 24.633 21.3945 26.4399 23.3211C28.2468 25.2437 30.6654 25.9021 31.8485 24.7832C33.0276 23.6685 32.5246 21.2046 30.7177 19.278C28.9108 17.3514 26.4922 16.6971 25.3131 17.8159H25.3091Z" fill="#FDAE3A"/>
<path d="M25.5618 18.0839C24.4712 19.1138 24.938 21.3878 26.6041 23.165C28.2701 24.9422 30.5036 25.548 31.5942 24.514C32.6848 23.4841 32.2179 21.2101 30.5519 19.4329C28.8858 17.6557 26.6524 17.0499 25.5618 18.0839Z" fill="#FAEA5C"/>
<path d="M28.043 17.7725L29.1174 24.8408C29.8458 25.0751 30.538 25.0872 31.0853 24.8529L30.212 19.1053C29.5239 18.4631 28.7673 18.0108 28.043 17.7765V17.7725Z" fill="#FDEDA9"/>
<path d="M28.869 24.7484L27.7945 17.7003C27.4283 17.6033 27.0701 17.567 26.7441 17.5953L27.7422 24.1506C28.1124 24.4051 28.4947 24.603 28.869 24.7484Z" fill="#FDEDA9"/>
<path d="M107.897 37.9836C109.108 39.466 112.025 39.0701 114.408 37.1031C116.794 35.1361 117.744 32.3411 116.533 30.8628L115.865 30.0469L107.229 37.1758L107.893 37.9877L107.897 37.9836Z" fill="#FDAE3A"/>
<path d="M114.484 31.1803L116.762 33.9592C117.096 33.0706 117.161 32.2143 116.903 31.5155L115.764 30.1221L114.484 31.1803Z" fill="#FDCF86"/>
<path d="M115.905 35.5187C116.219 35.0865 116.473 34.6422 116.662 34.206L114.304 31.3262L113.209 32.2309L115.901 35.5187H115.905Z" fill="#FDCF86"/>
<path d="M107.185 37.1141C108.413 38.6125 111.338 38.2329 113.725 36.2659C116.111 34.2988 117.049 31.4917 115.825 29.9932C114.598 28.4947 111.672 28.8744 109.286 30.8414C106.9 32.8084 105.962 35.6196 107.185 37.1141Z" fill="#FAEA5C"/>
<path d="M106.984 33.871L116.075 33.1036C116.381 32.2715 116.449 31.4597 116.244 30.7852L108.642 31.4274C107.878 32.1948 107.314 33.043 106.984 33.875V33.871Z" fill="#FFF3C3"/>
<path d="M115.957 33.3908L106.874 34.1582C106.733 34.5823 106.653 34.9983 106.645 35.3901L115.228 34.6631C115.53 34.243 115.776 33.8149 115.957 33.3867V33.3908Z" fill="#FFF3C3"/>
<path d="M107.728 36.4766C108.758 37.7328 111.241 37.3935 113.277 35.7173C115.313 34.0411 116.126 31.658 115.096 30.4019C114.066 29.1457 111.583 29.485 109.547 31.1612C107.51 32.8374 106.698 35.2205 107.728 36.4766Z" fill="#FDAE3A"/>
<path d="M108.007 36.2429C108.957 37.4062 111.251 37.0911 113.13 35.5401C115.009 33.9892 115.762 31.7959 114.808 30.6327C113.854 29.4694 111.565 29.7845 109.685 31.3355C107.806 32.8824 107.053 35.0797 108.007 36.2429Z" fill="#FAEA5C"/>
<path d="M107.865 33.734L114.964 33.1322C115.246 32.4173 115.306 31.7266 115.109 31.1611L109.338 31.6499C108.654 32.2961 108.151 33.0231 107.869 33.734H107.865Z" fill="#FDEDA9"/>
<path d="M114.854 33.377L107.775 33.9747C107.654 34.3382 107.594 34.6896 107.598 35.0208L114.182 34.4635C114.459 34.108 114.685 33.7405 114.854 33.377Z" fill="#FDEDA9"/>
<path d="M56.8993 5.83131C56.9596 8.17396 59.7847 10.0037 63.2133 9.91883C66.642 9.82997 69.3745 7.85892 69.3141 5.51626L69.2819 4.21973L56.863 4.54285L56.8952 5.82727L56.8993 5.83131Z" fill="#FDAE3A"/>
<path d="M67.3027 4.27308L67.4154 8.67565C68.3128 8.07383 68.9487 7.29429 69.1982 6.42993L69.1418 4.22461L67.3027 4.27308Z" fill="#FDCF86"/>
<path d="M65.6035 9.53104C66.1709 9.35333 66.6941 9.11906 67.1609 8.84037L67.0442 4.28027L65.4707 4.32066L65.6035 9.53104Z" fill="#FDCF86"/>
<path d="M56.8662 4.4541C56.9266 6.82503 59.7556 8.67896 63.1843 8.5901C66.613 8.50124 69.3455 6.50998 69.2851 4.13906C69.2247 1.76813 66.3957 -0.0857938 62.967 0.00306546C59.5383 0.0919247 56.8059 2.08318 56.8662 4.4541Z" fill="#FAEA5C"/>
<path d="M58.8926 1.1787L67.3918 7.32614C68.2248 6.75664 68.8365 6.02961 69.1142 5.21776L62.0074 0.0800781C60.8162 0.237601 59.7457 0.62939 58.8926 1.18274V1.1787Z" fill="#FFF3C3"/>
<path d="M67.0959 7.51547L58.6047 1.37207C58.1942 1.675 57.8401 2.01428 57.5664 2.38587L65.5908 8.19C66.1381 8.01632 66.6451 7.78609 67.0959 7.51547Z" fill="#FFF3C3"/>
<path d="M57.7743 4.25238C57.8226 6.24363 60.2372 7.79867 63.1588 7.72597C66.0844 7.65326 68.4145 5.97706 68.3621 3.9858C68.3139 1.99455 65.8993 0.439512 62.9777 0.512215C60.052 0.584918 57.722 2.26113 57.7743 4.25238Z" fill="#FDAE3A"/>
<path d="M58.1843 4.24384C58.2326 6.08161 60.458 7.51951 63.1583 7.45085C65.8585 7.38218 68.0075 5.83523 67.9632 3.99746C67.9149 2.15969 65.6895 0.721782 62.9892 0.790446C60.289 0.85911 58.14 2.40607 58.1843 4.24384Z" fill="#FAEA5C"/>
<path d="M59.7578 1.71587L66.3938 6.51427C67.1262 6.0417 67.6494 5.41969 67.8587 4.72497L62.4621 0.823242C61.4239 0.924219 60.4902 1.24734 59.7578 1.71587Z" fill="#FDEDA9"/>
<path d="M66.1375 6.67202L59.5176 1.88574C59.1674 2.14424 58.8737 2.43909 58.6523 2.75818L64.8095 7.20922C65.2964 7.07593 65.7391 6.89417 66.1375 6.67202Z" fill="#FDEDA9"/>
<path d="M44.8281 13.4359C44.8281 12.7556 45.3796 12.2041 46.0599 12.2041C46.7403 12.2041 47.2918 12.7556 47.2918 13.4359V20.8631C47.2918 21.5434 46.7403 22.0949 46.0599 22.0949C45.3796 22.0949 44.8281 21.5434 44.8281 20.8631V13.4359Z" fill="#5367FF"/>
<rect x="45.8145" y="5.03223" width="42.8674" height="84.5663" rx="6.41488" fill="#5367FF"/>
<rect x="46.8008" y="6.02148" width="40.8965" height="82.5881" rx="5.24854" fill="white"/>
<rect opacity="0.3" x="61.582" y="7.50488" width="10.84" height="0.989079" rx="0.494539" fill="#5367FF"/>
<rect x="88.1895" y="16.4072" width="0.985457" height="9.39625" fill="#5367FF"/>
<rect x="88.1895" y="27.7812" width="0.985457" height="9.39625" fill="#423DB6"/>
<mask id="mask0_1197_2058" style="mask-type:alpha" maskUnits="userSpaceOnUse" x="46" y="6" width="42" height="83">
<rect x="46.7988" y="6" width="40.8965" height="82.5881" rx="5.24854" fill="white"/>
</mask>
<g mask="url(#mask0_1197_2058)">
<rect width="11.1634" height="100.198" transform="matrix(0.685702 0.727883 -0.725366 0.688363 99.7695 -5.86816)" fill="white" fill-opacity="0.8"/>
<rect width="1.33581" height="100.198" transform="matrix(0.685702 0.727883 -0.725366 0.688363 101.248 -10.8135)" fill="white" fill-opacity="0.8"/>
<rect width="19.2361" height="100.198" transform="matrix(0.685702 0.727883 -0.725366 0.688363 100.262 11.9346)" fill="white" fill-opacity="0.8"/>
</g>
<g filter="url(#filter0_d_1197_2058)">
<rect x="34" y="22" width="66" height="50" rx="3" fill="white"/>
</g>
<rect opacity="0.2" x="42" y="45.6155" width="50" height="3" rx="1.5" fill="#5367FF"/>
<path d="M42 47.1155C42 46.2871 42.6716 45.6155 43.5 45.6155H55V48.6155H43.5C42.6716 48.6155 42 47.9439 42 47.1155Z" fill="#5367FF"/>
<circle opacity="0.0447591" cx="56" cy="47" r="7" fill="#007FFF"/>
<circle opacity="0.0447591" cx="55.9991" cy="46.9991" r="5.44444" fill="#007FFF"/>
<path d="M55.9998 50.6109C57.9941 50.6109 59.6109 48.9941 59.6109 46.9998C59.6109 45.0054 57.9941 43.3887 55.9998 43.3887C54.0054 43.3887 52.3887 45.0054 52.3887 46.9998C52.3887 48.9941 54.0054 50.6109 55.9998 50.6109Z" fill="white" stroke="#5367FF"/>
<path d="M42.828 33.25H42.27V32.626H43.518V37H42.828V33.25ZM44.4037 36.442L44.8357 36.07C45.2197 35.74 45.5257 35.464 45.7477 35.248C45.9697 35.038 46.1497 34.816 46.2997 34.582C46.4497 34.348 46.5217 34.12 46.5217 33.886C46.5217 33.646 46.4677 33.46 46.3537 33.322C46.2397 33.184 46.0597 33.118 45.8137 33.118C45.5797 33.118 45.3937 33.19 45.2677 33.34C45.1357 33.49 45.0637 33.694 45.0577 33.946H44.3977C44.4097 33.49 44.5477 33.142 44.8117 32.896C45.0697 32.656 45.4057 32.536 45.8077 32.536C46.2457 32.536 46.5877 32.656 46.8337 32.896C47.0797 33.136 47.1997 33.454 47.1997 33.856C47.1997 34.144 47.1277 34.42 46.9837 34.684C46.8337 34.954 46.6597 35.188 46.4617 35.398C46.2577 35.608 45.9997 35.854 45.6877 36.13L45.4177 36.37H47.3197V36.94H44.4037V36.442Z" fill="#3D4159"/>
<path d="M60.444 32.83H61.176V37H60.492V34.144L59.22 37H58.746L57.468 34.144V37H56.784V32.83H57.522L58.986 36.1L60.444 32.83ZM63.509 37.054C63.197 37.054 62.915 36.982 62.663 36.838C62.411 36.7 62.213 36.496 62.069 36.238C61.925 35.98 61.853 35.686 61.853 35.344C61.853 35.008 61.925 34.708 62.075 34.45C62.225 34.192 62.423 33.988 62.681 33.85C62.939 33.712 63.221 33.64 63.539 33.64C63.857 33.64 64.139 33.712 64.397 33.85C64.655 33.988 64.853 34.192 65.003 34.45C65.153 34.708 65.225 35.008 65.225 35.344C65.225 35.68 65.147 35.98 64.997 36.238C64.847 36.496 64.637 36.7 64.379 36.838C64.115 36.982 63.827 37.054 63.509 37.054ZM63.509 36.46C63.683 36.46 63.851 36.418 64.007 36.334C64.157 36.25 64.283 36.124 64.379 35.956C64.475 35.788 64.523 35.584 64.523 35.344C64.523 35.104 64.475 34.9 64.385 34.732C64.295 34.57 64.169 34.444 64.019 34.36C63.869 34.276 63.701 34.234 63.527 34.234C63.353 34.234 63.191 34.276 63.041 34.36C62.891 34.444 62.771 34.57 62.681 34.732C62.591 34.9 62.549 35.104 62.549 35.344C62.549 35.698 62.639 35.974 62.825 36.166C63.005 36.364 63.233 36.46 63.509 36.46ZM67.5692 33.64C67.8272 33.64 68.0612 33.694 68.2712 33.802C68.4752 33.91 68.6372 34.072 68.7512 34.282C68.8652 34.492 68.9252 34.75 68.9252 35.05V37H68.2472V35.152C68.2472 34.858 68.1752 34.63 68.0252 34.468C67.8752 34.312 67.6772 34.234 67.4192 34.234C67.1612 34.234 66.9632 34.312 66.8132 34.468C66.6632 34.63 66.5852 34.858 66.5852 35.152V37H65.9012V33.694H66.5852V34.072C66.6992 33.934 66.8432 33.832 67.0172 33.754C67.1912 33.676 67.3712 33.64 67.5692 33.64ZM71.3997 34.252H70.5957V36.082C70.5957 36.208 70.6257 36.292 70.6857 36.346C70.7397 36.4 70.8417 36.43 70.9797 36.43H71.3997V37H70.8597C70.5537 37 70.3137 36.928 70.1517 36.784C69.9897 36.64 69.9057 36.406 69.9057 36.082V34.252H69.5157V33.694H69.9057V32.872H70.5957V33.694H71.3997V34.252ZM73.7401 33.64C73.9921 33.64 74.2201 33.694 74.4181 33.802C74.6161 33.91 74.7721 34.072 74.8861 34.282C75.0001 34.492 75.0541 34.75 75.0541 35.05V37H74.3761V35.152C74.3761 34.858 74.3041 34.63 74.1541 34.468C74.0041 34.312 73.8061 34.234 73.5481 34.234C73.2901 34.234 73.0921 34.312 72.9421 34.468C72.7921 34.63 72.7141 34.858 72.7141 35.152V37H72.0301V32.56H72.7141V34.078C72.8281 33.94 72.9781 33.832 73.1581 33.754C73.3321 33.676 73.5301 33.64 73.7401 33.64ZM77.1266 37.054C76.8686 37.054 76.6346 37.006 76.4306 36.91C76.2206 36.82 76.0586 36.688 75.9386 36.526C75.8186 36.364 75.7526 36.184 75.7466 35.986H76.4546C76.4666 36.124 76.5326 36.244 76.6586 36.334C76.7786 36.43 76.9286 36.478 77.1146 36.478C77.3066 36.478 77.4566 36.442 77.5646 36.364C77.6666 36.292 77.7206 36.196 77.7206 36.082C77.7206 35.956 77.6606 35.866 77.5466 35.806C77.4266 35.746 77.2406 35.68 76.9826 35.608C76.7366 35.542 76.5326 35.476 76.3766 35.41C76.2206 35.344 76.0886 35.248 75.9746 35.116C75.8606 34.984 75.8006 34.81 75.8006 34.594C75.8006 34.42 75.8546 34.258 75.9566 34.108C76.0586 33.964 76.2086 33.85 76.4066 33.766C76.5986 33.682 76.8206 33.64 77.0726 33.64C77.4506 33.64 77.7506 33.736 77.9846 33.922C78.2126 34.114 78.3326 34.372 78.3506 34.702H77.6666C77.6546 34.552 77.5946 34.438 77.4866 34.348C77.3786 34.258 77.2346 34.216 77.0486 34.216C76.8686 34.216 76.7306 34.252 76.6346 34.318C76.5386 34.384 76.4906 34.474 76.4906 34.588C76.4906 34.678 76.5206 34.75 76.5866 34.81C76.6526 34.87 76.7306 34.918 76.8206 34.948C76.9106 34.984 77.0486 35.026 77.2286 35.08C77.4686 35.146 77.6666 35.206 77.8226 35.272C77.9726 35.338 78.1046 35.44 78.2186 35.566C78.3326 35.692 78.3866 35.866 78.3926 36.076C78.3926 36.262 78.3386 36.43 78.2366 36.58C78.1346 36.73 77.9846 36.844 77.7986 36.928C77.6066 37.012 77.3846 37.054 77.1266 37.054Z" fill="#3D4159"/>
<path d="M52.1024 58.2773H51.5444V57.6533H52.7924V62.0273H52.1024V58.2773ZM53.6781 61.4693L54.1101 61.0973C54.4941 60.7673 54.8001 60.4913 55.0221 60.2753C55.2441 60.0653 55.4241 59.8433 55.5741 59.6093C55.7241 59.3753 55.7961 59.1473 55.7961 58.9133C55.7961 58.6733 55.7421 58.4873 55.6281 58.3493C55.5141 58.2113 55.3341 58.1453 55.0881 58.1453C54.8541 58.1453 54.6681 58.2173 54.5421 58.3673C54.4101 58.5173 54.3381 58.7213 54.3321 58.9733H53.6721C53.6841 58.5173 53.8221 58.1693 54.0861 57.9233C54.3441 57.6833 54.6801 57.5633 55.0821 57.5633C55.5201 57.5633 55.8621 57.6833 56.1081 57.9233C56.3541 58.1633 56.4741 58.4813 56.4741 58.8833C56.4741 59.1713 56.4021 59.4473 56.2581 59.7113C56.1081 59.9813 55.9341 60.2153 55.7361 60.4253C55.5321 60.6353 55.2741 60.8813 54.9621 61.1573L54.6921 61.3973H56.5941V61.9673H53.6781V61.4693ZM62.5036 57.8573H63.2356V62.0273H62.5516V59.1713L61.2796 62.0273H60.8056L59.5276 59.1713V62.0273H58.8436V57.8573H59.5816L61.0456 61.1273L62.5036 57.8573ZM65.5686 62.0813C65.2566 62.0813 64.9746 62.0093 64.7226 61.8653C64.4706 61.7273 64.2726 61.5233 64.1286 61.2653C63.9846 61.0073 63.9126 60.7133 63.9126 60.3713C63.9126 60.0353 63.9846 59.7353 64.1346 59.4773C64.2846 59.2193 64.4826 59.0153 64.7406 58.8773C64.9986 58.7393 65.2806 58.6673 65.5986 58.6673C65.9166 58.6673 66.1986 58.7393 66.4566 58.8773C66.7146 59.0153 66.9126 59.2193 67.0626 59.4773C67.2126 59.7353 67.2846 60.0353 67.2846 60.3713C67.2846 60.7073 67.2066 61.0073 67.0566 61.2653C66.9066 61.5233 66.6966 61.7273 66.4386 61.8653C66.1746 62.0093 65.8866 62.0813 65.5686 62.0813ZM65.5686 61.4873C65.7426 61.4873 65.9106 61.4453 66.0666 61.3613C66.2166 61.2773 66.3426 61.1513 66.4386 60.9833C66.5346 60.8153 66.5826 60.6113 66.5826 60.3713C66.5826 60.1313 66.5346 59.9273 66.4446 59.7593C66.3546 59.5973 66.2286 59.4713 66.0786 59.3873C65.9286 59.3033 65.7606 59.2613 65.5866 59.2613C65.4126 59.2613 65.2506 59.3033 65.1006 59.3873C64.9506 59.4713 64.8306 59.5973 64.7406 59.7593C64.6506 59.9273 64.6086 60.1313 64.6086 60.3713C64.6086 60.7253 64.6986 61.0013 64.8846 61.1933C65.0646 61.3913 65.2926 61.4873 65.5686 61.4873ZM69.6287 58.6673C69.8867 58.6673 70.1207 58.7213 70.3307 58.8293C70.5347 58.9373 70.6967 59.0993 70.8107 59.3093C70.9247 59.5193 70.9847 59.7773 70.9847 60.0773V62.0273H70.3067V60.1793C70.3067 59.8853 70.2347 59.6573 70.0847 59.4953C69.9347 59.3393 69.7367 59.2613 69.4787 59.2613C69.2207 59.2613 69.0227 59.3393 68.8727 59.4953C68.7227 59.6573 68.6447 59.8853 68.6447 60.1793V62.0273H67.9607V58.7213H68.6447V59.0993C68.7587 58.9613 68.9027 58.8593 69.0767 58.7813C69.2507 58.7033 69.4307 58.6673 69.6287 58.6673ZM73.4592 59.2793H72.6552V61.1093C72.6552 61.2353 72.6852 61.3193 72.7452 61.3733C72.7992 61.4273 72.9012 61.4573 73.0392 61.4573H73.4592V62.0273H72.9192C72.6132 62.0273 72.3732 61.9553 72.2112 61.8113C72.0492 61.6673 71.9652 61.4333 71.9652 61.1093V59.2793H71.5752V58.7213H71.9652V57.8993H72.6552V58.7213H73.4592V59.2793ZM75.7996 58.6673C76.0516 58.6673 76.2796 58.7213 76.4776 58.8293C76.6756 58.9373 76.8316 59.0993 76.9456 59.3093C77.0596 59.5193 77.1136 59.7773 77.1136 60.0773V62.0273H76.4356V60.1793C76.4356 59.8853 76.3636 59.6573 76.2136 59.4953C76.0636 59.3393 75.8656 59.2613 75.6076 59.2613C75.3496 59.2613 75.1516 59.3393 75.0016 59.4953C74.8516 59.6573 74.7736 59.8853 74.7736 60.1793V62.0273H74.0896V57.5873H74.7736V59.1053C74.8876 58.9673 75.0376 58.8593 75.2176 58.7813C75.3916 58.7033 75.5896 58.6673 75.7996 58.6673ZM79.1861 62.0813C78.9281 62.0813 78.6941 62.0333 78.4901 61.9373C78.2801 61.8473 78.1181 61.7153 77.9981 61.5533C77.8781 61.3913 77.8121 61.2113 77.8061 61.0133H78.5141C78.5261 61.1513 78.5921 61.2713 78.7181 61.3613C78.8381 61.4573 78.9881 61.5053 79.1741 61.5053C79.3661 61.5053 79.5161 61.4693 79.6241 61.3913C79.7261 61.3193 79.7801 61.2233 79.7801 61.1093C79.7801 60.9833 79.7201 60.8933 79.6061 60.8333C79.4861 60.7733 79.3001 60.7073 79.0421 60.6353C78.7961 60.5693 78.5921 60.5033 78.4361 60.4373C78.2801 60.3713 78.1481 60.2753 78.0341 60.1433C77.9201 60.0113 77.8601 59.8373 77.8601 59.6213C77.8601 59.4473 77.9141 59.2853 78.0161 59.1353C78.1181 58.9913 78.2681 58.8773 78.4661 58.7933C78.6581 58.7093 78.8801 58.6673 79.1321 58.6673C79.5101 58.6673 79.8101 58.7633 80.0441 58.9493C80.2721 59.1413 80.3921 59.3993 80.4101 59.7293H79.7261C79.7141 59.5793 79.6541 59.4653 79.5461 59.3753C79.4381 59.2853 79.2941 59.2433 79.1081 59.2433C78.9281 59.2433 78.7901 59.2793 78.6941 59.3453C78.5981 59.4113 78.5501 59.5013 78.5501 59.6153C78.5501 59.7053 78.5801 59.7773 78.6461 59.8373C78.7121 59.8973 78.7901 59.9453 78.8801 59.9753C78.9701 60.0113 79.1081 60.0533 79.2881 60.1073C79.5281 60.1733 79.7261 60.2333 79.8821 60.2993C80.0321 60.3653 80.1641 60.4673 80.2781 60.5933C80.3921 60.7193 80.4461 60.8933 80.4521 61.1033C80.4521 61.2893 80.3981 61.4573 80.2961 61.6073C80.1941 61.7573 80.0441 61.8713 79.8581 61.9553C79.6661 62.0393 79.4441 62.0813 79.1861 62.0813Z" fill="#3D4159"/>
<path d="M85.7918 33.64C85.7498 33.454 85.6658 33.316 85.5518 33.226C85.4378 33.136 85.2758 33.088 85.0658 33.088C84.7478 33.088 84.5138 33.208 84.3578 33.448C84.2018 33.694 84.1178 34.096 84.1118 34.654C84.2138 34.48 84.3698 34.342 84.5678 34.246C84.7658 34.15 84.9818 34.102 85.2158 34.102C85.4798 34.102 85.7138 34.156 85.9178 34.27C86.1158 34.384 86.2778 34.552 86.3918 34.768C86.5058 34.984 86.5598 35.242 86.5598 35.542C86.5598 35.824 86.5058 36.07 86.3978 36.292C86.2838 36.514 86.1218 36.682 85.9058 36.808C85.6898 36.934 85.4318 37 85.1258 37C84.7118 37 84.3938 36.91 84.1598 36.724C83.9258 36.544 83.7578 36.286 83.6678 35.956C83.5718 35.626 83.5238 35.212 83.5238 34.714C83.5238 33.25 84.0398 32.518 85.0718 32.518C85.4738 32.518 85.7858 32.626 86.0198 32.842C86.2478 33.058 86.3798 33.322 86.4218 33.64H85.7918ZM85.0658 34.678C84.8198 34.678 84.6158 34.75 84.4478 34.894C84.2738 35.044 84.1898 35.254 84.1898 35.53C84.1898 35.806 84.2678 36.022 84.4298 36.184C84.5858 36.346 84.8078 36.43 85.0898 36.43C85.3418 36.43 85.5398 36.352 85.6898 36.196C85.8338 36.04 85.9058 35.83 85.9058 35.572C85.9058 35.302 85.8338 35.08 85.6958 34.918C85.5518 34.756 85.3418 34.678 85.0658 34.678ZM87.2894 34.756C87.2894 34.066 87.4094 33.52 87.6434 33.13C87.8774 32.74 88.2794 32.548 88.8494 32.548C89.4194 32.548 89.8274 32.74 90.0614 33.13C90.2954 33.52 90.4094 34.066 90.4094 34.756C90.4094 35.458 90.2954 36.004 90.0614 36.394C89.8274 36.79 89.4194 36.988 88.8494 36.988C88.2794 36.988 87.8774 36.79 87.6434 36.394C87.4094 36.004 87.2894 35.458 87.2894 34.756ZM89.7374 34.756C89.7374 34.432 89.7194 34.156 89.6774 33.934C89.6354 33.712 89.5454 33.526 89.4194 33.382C89.2934 33.244 89.1014 33.172 88.8494 33.172C88.5974 33.172 88.4054 33.244 88.2794 33.382C88.1534 33.526 88.0694 33.712 88.0274 33.934C87.9854 34.156 87.9614 34.432 87.9614 34.756C87.9614 35.092 87.9794 35.374 88.0214 35.602C88.0634 35.83 88.1474 36.016 88.2794 36.154C88.4054 36.292 88.5974 36.364 88.8494 36.364C89.1014 36.364 89.2934 36.292 89.4254 36.154C89.5514 36.016 89.6354 35.83 89.6774 35.602C89.7194 35.374 89.7374 35.092 89.7374 34.756Z" fill="#3D4159"/>
<defs>
<filter id="filter0_d_1197_2058" x="28" y="16" width="78" height="62" filterUnits="userSpaceOnUse" color-interpolation-filters="sRGB">
<feFlood flood-opacity="0" result="BackgroundImageFix"/>
<feColorMatrix in="SourceAlpha" type="matrix" values="0 0 0 0 0 0 0 0 0 0 0 0 0 0 0 0 0 0 127 0" result="hardAlpha"/>
<feOffset/>
<feGaussianBlur stdDeviation="3"/>
<feComposite in2="hardAlpha" operator="out"/>
<feColorMatrix type="matrix" values="0 0 0 0 0 0 0 0 0 0 0 0 0 0 0 0 0 0 0.08 0"/>
<feBlend mode="normal" in2="BackgroundImageFix" result="effect1_dropShadow_1197_2058"/>
<feBlend mode="normal" in="SourceGraphic" in2="effect1_dropShadow_1197_2058" result="shape"/>
</filter>
</defs>
</svg>
