<svg width="46" height="46" viewBox="0 0 46 46" fill="none" xmlns="http://www.w3.org/2000/svg">
<path d="M29 14.6623V14.1976V12.8034V12.3386C29 11.3235 29.823 10.5005 30.8381 10.5005H32.7179V11.4092H34.8093V12.8034H32.7179V14.1976H34.8093V15.5918H32.7179V16.5005H30.8381C29.823 16.5005 29 15.6775 29 14.6623Z" fill="#46BE88"/>
<path d="M26.6951 13.9372C27.3671 13.1387 28.2979 12.6043 29.3235 12.4282L29.3783 14.2318C28.8173 14.3836 28.3215 14.7165 27.9672 15.1792C27.6129 15.6419 27.4196 16.2088 27.4171 16.7928V26.5608C27.4157 27.7379 26.9499 28.8665 26.1218 29.6988C25.2937 30.5312 24.1711 30.9994 23 31.0008V29.2248C23.7029 29.2248 24.377 28.9441 24.874 28.4445C25.371 27.945 25.6502 27.2673 25.6502 26.5608V16.7928C25.6531 15.7469 26.0231 14.7356 26.6951 13.9372Z" fill="#46BE88"/>
<path d="M8.18757 38.0359L2.27734 34.9055V18.0127C2.27734 13.7118 5.76389 10.2254 10.0647 10.2254H15.0511C19.352 10.2254 22.8386 13.7118 22.8386 18.0127V34.9055L17.3039 38.2349" stroke="#3D4159" stroke-width="1.6" stroke-miterlimit="10"/>
<path d="M12.5672 45.0005C10.1535 45.0005 8.19678 43.0438 8.19678 40.6301V29.1779C8.19678 26.7642 10.1535 24.8076 12.5672 24.8076C14.9808 24.8076 16.9375 26.7642 16.9375 29.1779V40.6301C16.9375 43.0438 14.9808 45.0005 12.5672 45.0005Z" stroke="#3D4159" stroke-width="1.6" stroke-miterlimit="10"/>
<path d="M7.95151 5.61377H0" stroke="#3D4159" stroke-width="1.6" stroke-miterlimit="10"/>
<path d="M17.1709 5.61377H25.1224" stroke="#3D4159" stroke-width="1.6" stroke-miterlimit="10"/>
<path d="M17.1732 5.61267C17.1732 8.15978 15.1084 10.2246 12.5612 10.2246C10.0141 10.2246 7.94922 8.15978 7.94922 5.61267C7.94922 3.06556 10.0141 1.00073 12.5612 1.00073C15.1084 1.00073 17.1732 3.06556 17.1732 5.61267Z" stroke="#46BE88" stroke-width="1.6" stroke-miterlimit="10"/>
<path d="M46 12.5005H41.3333L43.3333 5.00049L36 15.0005H40L38.6667 23.7505L46 12.5005Z" fill="#46BE88"/>
</svg>
