<svg width="130" height="27" viewBox="0 0 130 27" fill="none" xmlns="http://www.w3.org/2000/svg">
<g clip-path="url(#clip0_1197_2412)">
<path d="M23.7676 25.6491H28.1471L31.5803 12.8516H27.2459L23.7676 25.6491Z" fill="#004A7F"/>
<path d="M46.2227 25.6491H50.6022L54.0354 12.8516H49.6559L46.2227 25.6491Z" fill="#004A7F"/>
<path d="M68.7168 25.6491H73.0534L76.4458 12.8516H72.0663L68.7168 25.6491Z" fill="#004A7F"/>
<path d="M42.1446 17.2317H46.5241C47.1249 14.3559 45.2796 12.8965 40.9859 12.8965C36.0055 12.8965 32.6581 15.3431 31.4994 19.5088C30.5102 23.3719 32.5294 25.6918 37.2072 25.6918C41.93 25.6918 44.7195 24.2325 45.8804 20.9252H41.5008C40.8571 22.3846 39.7413 23.1143 38.1964 23.1143C36.0914 23.1143 35.2331 21.8266 35.8768 19.38C36.5634 16.8454 38.1964 15.4289 40.2992 15.4289C41.6725 15.4289 42.2733 16.0299 42.1446 17.2317Z" fill="#004A7F"/>
<path d="M64.6407 17.2317H69.0203C69.6211 14.3559 67.7307 12.8965 63.437 12.8965C58.4996 12.8965 55.1093 15.3431 53.9935 19.5088C52.9635 23.3719 54.9805 25.6918 59.6604 25.6918C64.3404 25.6918 67.1299 24.2325 68.3315 20.9252H63.9541C63.3512 22.3846 62.1924 23.1143 60.6475 23.1143C58.5446 23.1143 57.6863 21.8266 58.3708 19.38C59.0167 16.8454 60.6475 15.4289 62.7503 15.4289C64.1258 15.4289 64.7695 16.0299 64.6407 17.2317Z" fill="#004A7F"/>
<path d="M6.89673 5.76883C12.7354 -0.0279251 19.8185 -1.53238 22.6531 2.41869C25.4877 6.36976 22.9964 14.3556 17.1578 20.1523C11.3192 25.992 4.23599 27.4943 1.35852 23.5003C-1.43097 19.5085 1.06025 11.5634 6.89673 5.76883Z" fill="#F06321"/>
<path d="M10.7607 2.67601C10.117 3.14817 9.47322 3.70617 8.82949 4.30923C3.72042 9.37415 1.5725 16.3298 4.10666 19.8087C6.72448 23.2855 12.9923 21.9978 18.2301 16.8878C21.0646 14.1408 22.9529 10.9623 23.7254 8.00062C23.9399 5.81154 23.6396 3.87786 22.6525 2.41847C20.4209 -0.671984 15.6123 -0.416594 10.7607 2.67601Z" fill="#AE282E"/>
<path d="M18.1446 3.32007V3.44884C18.1018 4.17853 17.6725 5.07991 16.9001 5.85252C15.7414 6.96852 14.1964 7.39775 13.5505 6.75605C12.821 6.06929 13.2523 4.56484 14.411 3.36299C15.6126 2.20407 17.1576 1.81776 17.8013 2.50453C18.0159 2.71914 18.1446 2.97668 18.1446 3.32007ZM13.6814 23.0282C10.9327 25.0885 8.10028 26.1208 5.35156 25.6916C6.51028 25.7345 7.45655 24.4446 8.22902 22.7277C9.0015 20.9679 9.43065 19.3368 9.81688 17.7894C10.3748 15.3428 10.4177 13.6259 10.1173 13.2396C9.64523 12.6365 8.61526 12.7674 7.41148 13.4542C6.81067 13.7976 6.0382 13.583 6.94156 12.467C7.8857 11.351 11.5335 8.68759 12.821 8.25836C14.2822 7.87205 15.913 8.43006 15.3551 10.0182C14.9667 11.1771 9.90273 24.4017 13.6814 23.0282Z" fill="white"/>
<path d="M83.0137 23.6296L84.0008 19.9382H86.404V17.9637H84.5587L85.417 14.8282H86.404V12.8945H83.1403L79.75 25.692H86.404V23.6296H83.0137ZM86.404 19.9382H86.8761C89.0669 19.9382 90.0969 20.3245 89.6677 21.8268C89.3244 23.1574 88.2515 23.6296 86.404 23.6296V25.692C88.2086 25.692 89.539 25.5203 90.8694 24.6168C91.7706 24.0159 92.4165 23.1145 92.6739 22.0844C93.1439 20.3245 92.3714 19.1205 90.3544 18.8651C92.2427 18.5217 93.4464 17.5324 93.8305 15.9871C94.1738 14.8282 93.8734 13.9698 93.058 13.4118C92.3714 12.9396 91.2127 12.8945 89.6677 12.8945H86.404V14.8282H88.0799C90.1398 14.8282 91.0839 15.0858 90.7835 16.3734C90.3973 17.6182 89.2815 17.9637 87.1786 17.9637H86.404V19.9382Z" fill="#004A7F"/>
<path d="M98.4245 16.7188V18.3048C98.0812 18.4786 97.7808 18.7791 97.652 19.2083H95.0771C95.5041 17.9635 96.6649 17.1029 98.4245 16.7188ZM98.4245 24.2324C98.1241 24.3183 97.7808 24.3612 97.4374 24.3612C96.2787 24.3612 95.7637 23.8869 96.0212 23.0284C96.2787 22.0412 97.0512 21.6978 98.4245 21.5691V20.0668C95.4612 20.2814 93.8304 21.054 93.3154 22.9855C92.8433 24.7454 93.9613 25.9064 96.2787 25.9064C97.0512 25.9064 97.7807 25.7777 98.4245 25.5201V24.2324ZM100.916 21.5691L100.873 21.6978C100.529 23.0284 99.6261 23.932 98.4244 24.2324V25.5201C99.0682 25.2604 99.626 24.9192 100.141 24.4471L99.9265 25.6918H102.504C102.632 25.0888 102.761 24.402 102.933 23.7152L103.92 20.1097C104.006 19.8092 104.049 19.5088 104.049 19.2083V18.7791C103.963 17.3175 102.718 16.5449 100.401 16.5449C99.669 16.5449 99.0253 16.6308 98.4245 16.7188V18.3048C98.8107 18.0923 99.2828 18.0064 99.8857 18.0064C101.214 18.0064 101.731 18.6052 101.343 19.8951L101.302 20.0238H99.9265C99.4136 20.0238 98.8965 20.0668 98.4244 20.0668V21.5691L100.916 21.5691Z" fill="#004A7F"/>
<path d="M104.82 25.6918H107.44L108.685 21.0969C109.114 19.4658 110.616 18.3048 112.204 18.3048C113.749 18.3048 114.309 19.2083 113.794 21.0111L112.547 25.6918H115.167L116.626 20.2384C117.227 17.9206 116.068 16.5449 113.494 16.5449C111.818 16.5449 110.487 17.1458 109.329 18.3477L109.629 16.7595H107.011C106.754 18.176 106.582 19.0366 106.494 19.38L104.82 25.6918Z" fill="#004A7F"/>
<path d="M117.486 25.6918H120.063L121.351 20.8823L124.829 25.6918H128.391L124.441 20.5819L129.764 16.7596H126.46L121.523 20.3243L123.497 12.8965H120.922L117.486 25.6918Z" fill="#004A7F"/>
</g>
<defs>
<clipPath id="clip0_1197_2412">
<rect width="129.977" height="26.1205" fill="white"/>
</clipPath>
</defs>
</svg>
