<svg width="120" height="34" viewBox="0 0 120 34" fill="none" xmlns="http://www.w3.org/2000/svg">
<g clip-path="url(#clip0_1197_2523)">
<path d="M119.978 0H0V33.3333H119.978V0Z" fill="#981A1D"/>
<path fill-rule="evenodd" clip-rule="evenodd" d="M8.68945 2.77734H36.0691V30.5551H8.68945V2.77734ZM10.8422 4.96123H33.9167V28.3712H10.8422V4.96123Z" fill="white"/>
<path fill-rule="evenodd" clip-rule="evenodd" d="M13.2754 7.45117H31.485V12.037H13.2754V7.45117Z" fill="white"/>
<path fill-rule="evenodd" clip-rule="evenodd" d="M13.2754 14.374H24.651V18.9603H13.2754V14.374Z" fill="white"/>
<path fill-rule="evenodd" clip-rule="evenodd" d="M13.2754 21.2959H17.8396V25.8818H13.2754V21.2959Z" fill="white"/>
<path d="M42.9785 14.5957H44.8618V5.11035H42.9785V14.5957Z" fill="white"/>
<path d="M46.6426 5.11035V14.5957H50.4339C53.2585 14.5957 54.3524 13.0744 54.3524 9.80653C54.3524 6.40665 53.3218 5.11035 50.4465 5.11035H46.6426ZM49.9887 6.73759C52.1769 6.73759 52.4441 7.23998 52.4441 9.81991C52.4441 12.2407 52.0243 12.9684 50.1923 12.9684H48.5256V6.73759H49.9887Z" fill="white"/>
<path d="M55.8301 14.5957H57.7127V10.5874H61.6696V8.95982H57.7127V6.73759H62.242V5.11035H55.8301V14.5957Z" fill="white"/>
<path d="M69.1499 11.4736C68.9972 12.7305 68.3995 13.1406 67.1399 13.1406C65.3839 13.1406 64.8751 12.0425 64.8751 10.0713C64.8751 7.53118 65.5622 6.56547 67.1146 6.56547C68.6667 6.56547 68.9336 7.21361 69.1499 8.06033H71.0328C70.7276 5.89055 69.3534 4.89844 67.1146 4.89844C64.2773 4.89844 62.9668 6.48626 62.9668 9.89916C62.9668 13.392 64.3536 14.8077 67.1016 14.8077C69.9132 14.8077 70.9059 13.3258 71.0328 11.4736H69.1499Z" fill="white"/>
<path d="M76.0703 14.5957H77.9533V10.5874H81.9102V8.95982H77.9533V6.73759H82.4826V5.11035H76.0703V14.5957Z" fill="white"/>
<path d="M83.7168 14.5957H85.5998V5.11035H83.7168V14.5957Z" fill="white"/>
<path d="M87.3809 14.5957H89.2638V10.8652H90.9559L93.1954 14.5957H95.4849L93.1057 10.7458C94.149 10.4945 94.8878 9.80653 94.8878 7.95468C94.8878 5.16316 93.2334 5.11035 91.3378 5.11035H87.3809V14.5957ZM91.0705 6.73759C92.6606 6.73759 92.9788 6.9358 92.9788 7.88849C92.9788 9.07917 92.47 9.23796 90.9559 9.23796H89.2638V6.73759H91.0705Z" fill="white"/>
<path d="M95.9941 11.619C96.1091 13.5902 96.9228 14.8077 99.9 14.8077C101.262 14.8077 103.462 14.5563 103.462 11.8838C103.462 9.99175 102.368 9.4626 101.071 9.10561L99.0354 8.53668C98.5013 8.39128 98.1068 8.19271 98.1068 7.50477C98.1068 6.75065 98.5899 6.56547 99.5446 6.56547C101.173 6.56547 101.211 7.09462 101.3 7.88853H103.183C103.145 6.1951 102.305 4.89844 99.6205 4.89844C96.7959 4.89844 96.1977 6.32747 96.1977 7.68996C96.1977 9.42318 97.1774 9.97873 98.2847 10.2829L100.498 10.9047C101.3 11.1296 101.554 11.4472 101.554 12.0292C101.554 12.9952 100.854 13.1406 99.9 13.1406C98.0937 13.1406 97.9541 12.6115 97.8771 11.619H95.9941Z" fill="white"/>
<path d="M106.668 14.5957H108.551V6.77702H111.286V5.11035H103.92V6.77702H106.668V14.5957Z" fill="white"/>
<path d="M42.916 18.7773V28.2627H47.3195C49.8541 28.2627 50.5456 27.0854 50.5456 25.5243C50.5456 24.5322 50.2639 23.6327 49.1374 23.1827C49.5341 23.0109 50.1868 22.7064 50.1868 21.2379C50.1868 19.4389 49.2011 18.7773 47.3962 18.7773H42.916ZM46.5771 20.4046C48.1773 20.4046 48.3563 20.5898 48.3563 21.3833C48.3563 22.3624 48.0746 22.5082 46.9355 22.5082H44.8106V20.4046H46.5771ZM46.8841 24.1351C48.2666 24.1351 48.6253 24.2808 48.6253 25.4187C48.6253 26.5034 48.2413 26.6358 46.5131 26.6358H44.8106V24.1351H46.8841Z" fill="white"/>
<path d="M53.4874 23.4079C53.577 22.8126 53.7564 22.601 54.6395 22.601C55.4716 22.601 55.7916 22.7862 55.7916 23.4343V23.8575L53.5644 24.2148C52.5786 24.3736 51.6055 24.9556 51.6055 26.5036C51.6055 27.6943 52.1819 28.435 53.7947 28.435C54.8699 28.435 55.5229 28.1045 55.8683 27.7337V28.2629H57.5712V23.1565C57.5712 21.6349 56.5854 21.1191 54.7165 21.1191C52.8986 21.1191 51.9002 21.6085 51.8105 23.4079H53.4874ZM55.7916 25.6041C55.7916 26.4638 55.5229 27.0726 54.4348 27.0726C53.6411 27.0726 53.385 26.7814 53.385 26.2522C53.385 25.5115 53.8714 25.3657 54.5498 25.2598L55.7916 25.0482V25.6041Z" fill="white"/>
<path d="M63.4997 28.2629H65.2792V24.0033C65.2792 21.8863 64.8308 21.1191 63.1029 21.1191C61.8611 21.1191 61.3364 21.5159 60.85 22.1908V21.2909H59.1602V28.2629H60.9393V24.9556C60.9393 23.3153 61.0804 22.6274 62.3475 22.6274C63.487 22.6274 63.4997 23.1829 63.4997 24.2546V28.2629Z" fill="white"/>
<path d="M67.0059 28.2627H68.7851V26.0535L69.5531 25.2331L71.1917 28.2627H73.2526L70.8076 23.9368L73.1629 21.2907H70.974L68.7851 23.8707V18.7773H67.0059V28.2627Z" fill="white"/>
</g>
<defs>
<clipPath id="clip0_1197_2523">
<rect width="119.978" height="33.3333" fill="white"/>
</clipPath>
</defs>
</svg>
