<svg width="100" height="34" viewBox="0 0 100 34" fill="none" xmlns="http://www.w3.org/2000/svg">
<g clip-path="url(#clip0_1197_2545)">
<path fill-rule="evenodd" clip-rule="evenodd" d="M59.0375 16.1414C57.2376 16.1414 56.4999 14.6441 56.4999 12.9731C56.4999 11.281 57.2376 9.78315 59.0375 9.78315C60.8384 9.78315 61.575 11.281 61.575 12.9731C61.575 14.6441 60.8384 16.1414 59.0375 16.1414ZM59.0375 18.8743C62.768 18.8743 65.6085 16.7039 65.6085 12.9731C65.6085 9.22069 62.768 7.05078 59.0375 7.05078C55.3063 7.05078 52.4648 9.22069 52.4648 12.9731C52.4648 16.7039 55.3063 18.8743 59.0375 18.8743Z" fill="#ED3338"/>
<path fill-rule="evenodd" clip-rule="evenodd" d="M65.25 10.045H67.4836V14.6448C67.4836 17.3354 68.3308 18.875 71.8221 18.875C72.7986 18.875 73.5367 18.7443 74.2733 18.6584L74.1447 16.1199C73.7518 16.1855 73.3397 16.2714 72.9505 16.2714C71.7151 16.2714 71.389 15.5765 71.389 14.21V10.045H74.1229V7.31156H71.389L71.3874 3.40234L67.5499 4.77304V7.31156H65.2501L65.25 10.045Z" fill="#ED3338"/>
<path fill-rule="evenodd" clip-rule="evenodd" d="M87.7852 18.6144H91.69V13.0162H91.7334L94.8566 18.6144H99.5853L95.3342 12.4966L99.2592 7.31094H94.9868L91.7333 12.0617H91.69V3.41602L87.7852 4.76871L87.7852 18.6144Z" fill="#ED3338"/>
<path fill-rule="evenodd" clip-rule="evenodd" d="M42.0684 18.6144H45.9737V13.0162H46.015L49.1398 18.6144H53.868L49.618 12.4966L53.5429 7.31094H49.2701L46.015 12.0617H45.9737V3.41602L42.0684 4.70356L42.0684 18.6144Z" fill="#ED3338"/>
<path fill-rule="evenodd" clip-rule="evenodd" d="M78.4306 15.0449C78.4306 13.9481 79.4855 13.5307 80.8236 13.5307C81.4167 13.5307 81.9875 13.5752 82.4922 13.5969C82.4922 14.9369 81.5491 16.2975 80.0553 16.2975C79.1344 16.2975 78.4306 15.8367 78.4306 15.0449ZM86.4002 18.6687C86.2249 17.7689 86.1804 16.8674 86.1804 15.9676V11.7082C86.1804 8.21638 83.655 6.96484 80.7368 6.96484C79.0454 6.96484 77.5738 7.20689 76.1695 7.77784L76.2346 10.4562C77.334 9.84183 78.6065 9.60084 79.8789 9.60084C81.3076 9.60084 82.4705 10.0166 82.4922 11.5758C81.9876 11.4885 81.2854 11.4222 80.6484 11.4222C78.5403 11.4222 74.7424 11.8407 74.7424 15.3309C74.7424 17.8128 76.7631 18.9319 79.0237 18.9319C80.6484 18.9319 81.7461 18.2953 82.6458 16.8674H82.6908C82.6908 17.4617 82.7543 18.0538 82.7782 18.6687H86.4002Z" fill="#ED3338"/>
<path d="M91.4937 27.4984C91.4907 27.2977 91.5057 27.097 91.5366 26.8952C91.5647 26.6923 91.6129 26.4985 91.6818 26.3152C91.7486 26.133 91.8406 25.9688 91.955 25.8274C92.0715 25.6833 92.2166 25.5684 92.3887 25.4874C92.5629 25.4038 92.7705 25.3608 93.0093 25.3608C93.2349 25.3608 93.4319 25.4053 93.5982 25.4926C93.7671 25.579 93.9111 25.6971 94.0287 25.8433C94.1473 25.991 94.2416 26.1589 94.3168 26.3422C94.3878 26.527 94.4423 26.7187 94.4762 26.9184C94.5095 27.1144 94.5254 27.3093 94.5254 27.4984C94.5254 27.6869 94.5095 27.8802 94.4762 28.0788C94.4422 28.2785 94.3878 28.4692 94.3168 28.6551C94.2416 28.8383 94.1473 29.0062 94.0287 29.1535C93.9111 29.3001 93.7671 29.4183 93.5982 29.5046C93.4319 29.5894 93.2349 29.6349 93.0093 29.6375C92.7705 29.6345 92.5629 29.593 92.3887 29.5093C92.2166 29.4282 92.0715 29.3138 91.955 29.1708C91.8406 29.0284 91.7485 28.8626 91.6818 28.6793C91.6129 28.4971 91.5647 28.3049 91.5366 28.1036C91.5065 27.9002 91.4912 27.699 91.4937 27.4982V27.4984ZM95.1565 22.5283H94.5253V25.802H94.5052C94.4868 25.7496 94.4543 25.6834 94.4009 25.6034C94.3496 25.5234 94.2823 25.4371 94.1944 25.3465C94.1081 25.2564 94.0016 25.1723 93.8793 25.0923C93.7553 25.0123 93.6135 24.9471 93.452 24.8963C93.291 24.846 93.1104 24.819 92.9102 24.8173C92.5327 24.8188 92.2107 24.8863 91.9438 25.017C91.6791 25.149 91.4583 25.3348 91.2914 25.5737C91.1231 25.8125 90.9986 26.0964 90.9192 26.4221C90.8402 26.7484 90.8011 27.107 90.8011 27.4984C90.8011 27.8802 90.8444 28.2324 90.9334 28.5576C91.0198 28.8802 91.1522 29.1646 91.3285 29.4082C91.5054 29.6497 91.7241 29.8372 91.9888 29.9739C92.2499 30.1094 92.5575 30.1783 92.9102 30.1793C93.2751 30.1804 93.5907 30.1068 93.8554 29.9569C94.1202 29.8075 94.3368 29.5697 94.5052 29.2462H94.5253V30.0586H95.1565L95.1565 22.5283ZM85.5216 30.0587H86.1533V27.2278C86.1533 27.0551 86.1683 26.8803 86.2015 26.7055C86.2327 26.5297 86.2841 26.3629 86.3551 26.2019C86.4265 26.0403 86.5198 25.8979 86.6384 25.7718C86.7534 25.6442 86.8979 25.5451 87.0684 25.4731C87.241 25.3989 87.4396 25.3608 87.6694 25.3608C87.9585 25.3608 88.1942 25.4275 88.3721 25.5578C88.5516 25.6871 88.6818 25.8708 88.765 26.106C88.8454 26.3433 88.8857 26.6234 88.8836 26.9455V30.0586H89.5164V26.7855C89.5164 26.5037 89.4856 26.241 89.4215 26.0048C89.357 25.7649 89.2563 25.5578 89.1192 25.3804C88.9799 25.2019 88.7993 25.0663 88.5753 24.9668C88.3545 24.8693 88.086 24.819 87.7699 24.8174C87.5056 24.8189 87.2801 24.8523 87.0926 24.9148C86.9046 24.9762 86.7474 25.0594 86.6219 25.1611C86.4953 25.2633 86.3931 25.3756 86.31 25.4953C86.231 25.6155 86.1644 25.7352 86.1135 25.8523H86.0934V24.9381H85.4812C85.5014 25.1441 85.5125 25.3464 85.5162 25.5477C85.5222 25.7474 85.5237 25.9465 85.5222 26.1435L85.5216 30.0587ZM83.9362 24.9382H83.3039V27.7696C83.3039 27.9422 83.2889 28.117 83.2557 28.2918C83.2239 28.4666 83.1736 28.635 83.1021 28.7955C83.0301 28.957 82.9359 29.1006 82.8204 29.2256C82.7029 29.3532 82.5594 29.4517 82.3888 29.5243C82.2183 29.5984 82.0177 29.6349 81.7884 29.6376C81.4982 29.6346 81.2641 29.5697 81.0846 29.4395C80.9061 29.3103 80.7759 29.1265 80.6943 28.8913C80.6112 28.6541 80.572 28.3739 80.573 28.0503V24.9382H79.9418V28.2118C79.9418 28.4952 79.972 28.7547 80.035 28.9925C80.1002 29.2308 80.2013 29.4395 80.3401 29.6169C80.4777 29.7944 80.6573 29.931 80.8818 30.0306C81.1026 30.128 81.3711 30.1783 81.6867 30.1794C81.9514 30.1783 82.1765 30.145 82.3661 30.0824C82.5525 30.021 82.7092 29.9378 82.8352 29.8345C82.9607 29.7323 83.064 29.6216 83.1466 29.5008C83.2266 29.3806 83.2922 29.262 83.3431 29.1449H83.3632V30.0585H83.9753C83.9573 29.8515 83.9462 29.6497 83.9409 29.4495C83.9379 29.2498 83.9364 29.0501 83.9364 28.8531L83.9362 24.9382ZM75.4635 30.0587H76.1562V26.7564H78.6757V26.1537H76.1562V23.6528H78.7959V23.0505H75.4635V30.0587ZM70.4642 30.0587H71.0975V22.5283H70.4642V30.0587ZM68.3264 27.7892C68.3277 27.9042 68.3234 28.0381 68.3111 28.1933C68.3006 28.3506 68.2703 28.5111 68.2221 28.6784C68.1718 28.8458 68.0945 29.001 67.987 29.145C67.8769 29.2907 67.7286 29.4083 67.5385 29.4983C67.35 29.5884 67.1064 29.6339 66.8104 29.6376C66.6155 29.6391 66.436 29.6079 66.2755 29.5465C66.1167 29.4861 65.9885 29.3876 65.8932 29.2526C65.799 29.117 65.7476 28.9358 65.7466 28.7139C65.7477 28.4899 65.7979 28.3029 65.8901 28.1525C65.9864 28.0037 66.113 27.8845 66.2756 27.7934C66.4381 27.7033 66.6235 27.634 66.8284 27.59C67.0349 27.5439 67.251 27.5132 67.4766 27.4984C67.7021 27.4825 67.9251 27.4767 68.1459 27.4777H68.3265L68.3264 27.7892ZM68.3874 30.0587H69.0096C68.9926 29.9416 68.9815 29.8272 68.9757 29.7165C68.9682 29.6038 68.9636 29.4861 68.9593 29.368C68.9581 29.2498 68.9581 29.1207 68.9581 28.984V26.7251C68.9593 26.2818 68.8982 25.9191 68.7749 25.6378C68.6484 25.3571 68.4545 25.1489 68.1898 25.016C67.925 24.8831 67.5819 24.8169 67.1625 24.8174C67.0491 24.8174 66.9247 24.8294 66.7902 24.8459C66.6578 24.8644 66.5222 24.8889 66.3883 24.9222C66.2511 24.9555 66.1187 24.9926 65.9932 25.0334C65.8661 25.0764 65.7544 25.1208 65.6565 25.1701V25.7818C65.8921 25.633 66.1351 25.5244 66.3883 25.4571C66.6377 25.3915 66.8956 25.358 67.1625 25.3607C67.4442 25.3607 67.6729 25.4089 67.8424 25.507C68.0134 25.605 68.1373 25.7522 68.2157 25.9455C68.2909 26.1415 68.3274 26.384 68.3263 26.6759V26.9359H68.2067C67.9832 26.9349 67.7513 26.9389 67.5135 26.9494C67.2726 26.9614 67.0348 26.9849 66.8002 27.0194C66.5651 27.0565 66.3417 27.1141 66.133 27.1905C65.9254 27.2678 65.7375 27.3732 65.577 27.5061C65.4155 27.6354 65.2879 27.8038 65.1968 28.0035C65.1025 28.2042 65.0554 28.4494 65.0543 28.7338C65.0528 28.8271 65.0649 28.9367 65.0893 29.0611C65.1136 29.1856 65.1618 29.3127 65.228 29.4403C65.2963 29.5723 65.3922 29.6919 65.5177 29.8026C65.6442 29.9143 65.8079 30.0055 66.0054 30.0733C66.2061 30.1422 66.4507 30.1781 66.7409 30.1793C66.9003 30.1793 67.0597 30.1581 67.2223 30.1162C67.3832 30.077 67.5384 30.0167 67.6862 29.9367C67.8324 29.8577 67.9652 29.7587 68.0844 29.6427C68.2009 29.523 68.2941 29.3885 68.3671 29.2349H68.3873L68.3874 30.0587ZM63.8593 24.9382H63.2276V27.7696C63.2276 27.9422 63.2126 28.117 63.181 28.2918C63.1482 28.4666 63.0968 28.635 63.028 28.7955C62.9545 28.957 62.8601 29.1006 62.7447 29.2256C62.6266 29.3532 62.4831 29.4517 62.3131 29.5243C62.1426 29.5984 61.9419 29.6349 61.7116 29.6376C61.4225 29.6346 61.1879 29.5697 61.0089 29.4395C60.8304 29.3103 60.6991 29.1265 60.6175 28.8913C60.5354 28.6541 60.4952 28.3739 60.4973 28.0503V24.9382H59.8651V28.2118C59.8651 28.4952 59.8963 28.7547 59.9593 28.9925C60.0239 29.2308 60.1251 29.4395 60.2638 29.6169C60.401 29.7944 60.5837 29.931 60.8055 30.0306C61.0269 30.128 61.2948 30.1783 61.611 30.1794C61.8757 30.1783 62.1008 30.145 62.2898 30.0824C62.4768 30.021 62.634 29.9378 62.759 29.8345C62.8872 29.7323 62.9877 29.6216 63.0709 29.5008C63.1503 29.3806 63.2165 29.262 63.2673 29.1449H63.2874V30.0585H63.8996C63.8816 29.8515 63.8694 29.6497 63.8646 29.4495C63.8616 29.2498 63.8586 29.0501 63.8586 28.8531L63.8593 24.9382ZM58.7302 24.9382H57.5668V23.4827L56.9345 23.7031V24.9382H55.93V25.48H56.9345V28.4729C56.93 28.7065 56.939 28.9268 56.9574 29.1328C56.9758 29.3399 57.0219 29.5195 57.095 29.6757C57.1665 29.832 57.2835 29.9554 57.4424 30.0443C57.6018 30.1328 57.8194 30.1783 58.0974 30.1795C58.2038 30.1795 58.3045 30.1705 58.4024 30.1552C58.5015 30.1401 58.591 30.1244 58.6741 30.1021C58.7535 30.0799 58.8186 30.0588 58.8711 30.0391L58.8309 29.5174C58.7414 29.5513 58.6535 29.5826 58.5618 29.6037C58.4724 29.6255 58.3675 29.6377 58.2489 29.6377C58.0794 29.6347 57.9439 29.5974 57.8443 29.5216C57.7442 29.4458 57.6727 29.3442 57.6288 29.2166C57.5865 29.091 57.5647 28.9491 57.5668 28.7939V25.48H58.7302L58.7302 24.9382ZM54.9355 24.9382H54.3038V27.7696C54.3038 27.9422 54.2885 28.117 54.2567 28.2918C54.2254 28.4666 54.1725 28.635 54.1031 28.7955C54.0317 28.957 53.9374 29.1006 53.8203 29.2256C53.7028 29.3532 53.5582 29.4517 53.3882 29.5243C53.2172 29.5984 53.0197 29.6349 52.7867 29.6376C52.4975 29.6346 52.264 29.5697 52.0861 29.4395C51.9066 29.3103 51.7763 29.1265 51.6942 28.8913C51.6127 28.6541 51.5715 28.3739 51.5725 28.0503V24.9382H50.9408V28.2118C50.9408 28.4952 50.9726 28.7547 51.0377 28.9925C51.1002 29.2308 51.2024 29.4395 51.3412 29.6169C51.4784 29.7944 51.6589 29.931 51.8808 30.0306C52.1037 30.128 52.3722 30.1783 52.6883 30.1794C52.9515 30.1783 53.1787 30.145 53.3656 30.0824C53.5525 30.021 53.7098 29.9378 53.8353 29.8345C53.9629 29.7323 54.0651 29.6216 54.1461 29.5008C54.2276 29.3806 54.2917 29.262 54.3452 29.1449H54.3649V30.0585H54.977C54.959 29.8515 54.9469 29.6497 54.9421 29.4495C54.9361 29.2498 54.9361 29.0501 54.9361 28.8531L54.9355 24.9382ZM42.0879 30.0587H42.7805V23.7438H42.8006L45.4303 30.0587H46.0224L48.5726 23.7438H48.5917V30.0587H49.2838V23.0505H48.2909L45.7211 29.2149L43.1618 23.0505H42.0879V30.0587Z" fill="#1F4578"/>
<path fill-rule="evenodd" clip-rule="evenodd" d="M0.398438 16.7907C0.398438 7.73658 8.93035 0.397461 19.4565 0.397461C29.9832 0.397461 38.5151 7.73658 38.5151 16.7907C38.5151 25.8458 29.9832 33.1855 19.4565 33.1855C8.93035 33.1855 0.398438 25.8458 0.398438 16.7907Z" fill="#1F4578"/>
<path fill-rule="evenodd" clip-rule="evenodd" d="M17.1425 5.66065L21.5703 4.19727L21.592 28.1388L17.1267 29.635L17.1425 5.66065Z" fill="#ED3338"/>
<path fill-rule="evenodd" clip-rule="evenodd" d="M19.7724 20.5926C17.8481 22.9113 15.9883 25.282 12.5045 25.282C7.58298 25.282 5.25195 20.5238 5.25195 16.5457C5.25195 12.7239 7.07514 8.19922 11.8669 8.19922C13.9464 8.19922 15.9502 9.47137 17.1411 10.8161L17.1381 14.0612C16.1426 13.3896 13.9095 12.7308 12.4517 12.7074C9.41216 12.6561 6.73111 13.9733 6.7793 16.9747C6.81052 19.0408 8.85614 20.4464 10.8927 20.4464C14.0122 20.4464 15.9006 17.5965 17.4807 15.4329C17.9208 14.8684 19.1641 13.2064 19.3574 12.9405C21.1118 10.4899 23.142 8.25058 26.6253 8.25058C30.7276 8.25058 33.0306 11.5597 33.683 14.9658H31.8328C31.0883 13.8615 29.6553 13.1857 28.242 13.1857C25.0182 13.1857 23.0922 16.1516 21.4809 18.3353C21.4809 18.3353 20.2264 20.046 19.7726 20.5926H19.7724ZM33.7903 18.4434C33.3746 21.8685 31.4551 25.3265 27.2606 25.3339C24.8136 25.3384 22.8998 23.6613 21.5744 21.61V19.2347C23.2329 20.0582 24.7818 20.9395 26.6617 20.9681C28.9768 21.0025 31.0701 20.1112 31.9359 18.4434H33.7903Z" fill="white"/>
</g>
<defs>
<clipPath id="clip0_1197_2545">
<rect width="99.982" height="33.5825" fill="white"/>
</clipPath>
</defs>
</svg>
