<svg width="62" height="39" viewBox="0 0 62 39" fill="none" xmlns="http://www.w3.org/2000/svg">
<path d="M21.2994 15.6913C20.5657 14.891 19.7493 14.1705 18.8639 13.5421L15.4063 11.0879H10.5712L7.17065 13.5425C6.30043 14.1707 5.4993 14.8894 4.78072 15.6866C2.43931 18.2841 1.10559 21.6343 1.02115 25.1303L1.00176 25.933C0.921578 29.2526 3.5907 31.987 6.91127 31.987H19.3214C21.1092 31.987 22.7058 31.193 23.7853 29.9433" stroke="#3D4159" stroke-width="1.6" stroke-linecap="round"/>
<path d="M10.5704 11.0435L7.9658 7.38509C6.99141 6.0165 7.55264 4.09691 9.11081 3.46875V3.46875" stroke="#3D4159" stroke-width="1.6" stroke-linecap="round"/>
<path d="M15.4478 11.0435L18.0333 7.37501C18.9971 6.00747 18.4371 4.09879 16.8872 3.46875V3.46875" stroke="#3D4159" stroke-width="1.6" stroke-linecap="round"/>
<path d="M15.4485 6.33885L17.2589 2.75347C17.4719 2.33164 17.2227 1.82311 16.7588 1.733V1.733C14.2665 1.24887 11.7042 1.24886 9.21186 1.73299V1.73299C8.74796 1.8231 8.49876 2.33167 8.71181 2.75349L10.4766 6.24758" stroke="#3D4159" stroke-width="1.6" stroke-linecap="round"/>
<path d="M16.6949 16.4922H10.1907C9.73914 16.4922 9.37305 16.8583 9.37305 17.3098C9.37305 17.7614 9.73914 18.1274 10.1907 18.1274H12.0521L12.2458 18.1362C12.8845 18.1966 13.4501 18.566 13.7643 19.1162C13.8019 19.1911 13.7475 19.2793 13.6637 19.2793L10.1907 19.2804C9.73914 19.2804 9.37305 19.6465 9.37305 20.0981L9.38375 20.2307C9.44712 20.6192 9.78429 20.9157 10.1907 20.9157L13.6876 20.9145C13.7641 20.9145 13.8142 20.9946 13.7806 21.0634C13.6937 21.2206 13.5825 21.3643 13.4506 21.4888C13.0781 21.8628 12.5758 22.0705 12.0526 22.0687L10.1907 22.0687C9.85455 22.0711 9.55456 22.2766 9.4309 22.5881C9.30764 22.9001 9.38607 23.2553 9.62891 23.4866L14.2813 27.8842C14.4932 28.0869 14.7985 28.1609 15.0804 28.0771C15.3626 27.9928 15.5778 27.7643 15.6444 27.478L15.6648 27.3342C15.6773 27.0942 15.5833 26.8577 15.4032 26.6913L12.3542 23.8057C12.28 23.7355 12.1805 23.6984 12.0784 23.7028L12.0521 23.7039C13.0094 23.707 13.9286 23.3266 14.6042 22.6476L14.7867 22.453C15.1362 22.0512 15.391 21.5753 15.5316 21.0611C15.5512 20.9753 15.6275 20.9145 15.7155 20.9146L16.6953 20.9157C17.1468 20.9157 17.5129 20.5496 17.5129 20.0981L17.5022 19.9654C17.4388 19.577 17.1016 19.2804 16.6953 19.2804L15.775 19.2795C15.6489 19.2794 15.5389 19.1939 15.5076 19.0718C15.4105 18.7555 15.2725 18.4533 15.097 18.173C15.0835 18.1538 15.0972 18.1273 15.1207 18.1273L16.6949 18.1274C17.1465 18.1274 17.5126 17.7614 17.5126 17.3098C17.5126 16.8583 17.1465 16.4922 16.6949 16.4922Z" fill="url(#paint0_linear_1197_1888)"/>
<path d="M23.9405 22.9325C24.1147 21.3065 25.4869 20.0734 27.1223 20.0734H54.1733C55.8086 20.0734 57.1808 21.3065 57.355 22.9325L57.9245 28.2479C58.1272 30.1393 56.645 31.7888 54.7428 31.7888H26.5528C24.6506 31.7888 23.1683 30.1393 23.371 28.2479L23.9405 22.9325Z" stroke="#3D4159" stroke-width="1.6"/>
<path d="M25.9219 19.2776L29.6104 11.9005C30.1186 10.8842 31.1574 10.2422 32.2937 10.2422H48.6015C49.7153 10.2422 50.7375 10.8593 51.2563 11.8449L55.1682 19.2776" stroke="#3D4159" stroke-width="1.6" stroke-linecap="round"/>
<path d="M23.7744 19.5198H21.6833C21.1311 19.5198 20.6833 19.072 20.6833 18.5198V16.9531C20.6833 16.4008 21.1311 15.9531 21.6833 15.9531H23.7744C24.6937 15.9531 25.4389 16.6983 25.4389 17.6176V17.6176" stroke="#3D4159" stroke-width="1.6" stroke-linecap="round"/>
<path d="M23.5271 33.4375V36.193C23.5271 37.2976 24.4225 38.193 25.5271 38.193H29.6115C30.716 38.193 31.6115 37.2976 31.6115 36.193V34.4387" stroke="#3D4159" stroke-width="1.6" stroke-linecap="round"/>
<path d="M57.7712 33.4375V36.193C57.7712 37.2976 56.8758 38.193 55.7712 38.193H51.6869C50.5823 38.193 49.6869 37.2976 49.6869 36.193V34.4387" stroke="#3D4159" stroke-width="1.6" stroke-linecap="round"/>
<path d="M47.4529 13.3906V13.3906C48.1805 13.3906 48.8446 13.8049 49.1645 14.4584L50.5957 17.3822" stroke="#3D4159" stroke-width="1.6" stroke-linecap="round"/>
<path d="M57.9067 19.7575H59.9978C60.5501 19.7575 60.9978 19.3098 60.9978 18.7575V16.9531C60.9978 16.4008 60.5501 15.9531 59.9978 15.9531H58.0177C57.0372 15.9531 56.2423 16.748 56.2423 17.7285V17.7285" stroke="#3D4159" stroke-width="1.6" stroke-linecap="round"/>
<circle cx="29.3036" cy="26.4073" r="2.29872" stroke="#46BE88" stroke-width="1.6"/>
<circle cx="52.3114" cy="26.4073" r="2.29872" stroke="#46BE88" stroke-width="1.6"/>
<path d="M35.2516 25.7108C35.1411 25.269 35.4753 24.841 35.9307 24.841H45.4038C45.8592 24.841 46.1933 25.269 46.0829 25.7108L45.8818 26.5152C45.8039 26.8268 45.5239 27.0454 45.2027 27.0454H36.1318C35.8106 27.0454 35.5306 26.8268 35.4527 26.5152L35.2516 25.7108Z" stroke="#3D4159" stroke-width="1.6"/>
<defs>
<linearGradient id="paint0_linear_1197_1888" x1="17.1907" y1="19.3288" x2="8.44657" y2="24.0184" gradientUnits="userSpaceOnUse">
<stop stop-color="#46BE88"/>
<stop offset="1" stop-color="#92D153"/>
</linearGradient>
</defs>
</svg>
