<svg width="142" height="90" viewBox="0 0 142 90" fill="none" xmlns="http://www.w3.org/2000/svg">
<rect y="28" width="142" height="34" rx="2" fill="white"/>
<rect x="42" y="35.998" width="87" height="8" rx="2" fill="#46BE88"/>
<rect x="42" y="47.998" width="59" height="6" rx="2" fill="#46BE88"/>
<rect x="8" y="36" width="28" height="18" rx="2" fill="#46BE88"/>
<path d="M17 42.944C17 43.556 17.18 44.036 17.54 44.384C17.888 44.732 18.344 44.9 18.908 44.9C19.472 44.9 19.928 44.732 20.288 44.384C20.636 44.036 20.816 43.556 20.816 42.944C20.816 42.332 20.636 41.864 20.288 41.516C19.928 41.168 19.472 41 18.908 41C18.344 41 17.888 41.168 17.54 41.516C17.18 41.864 17 42.332 17 42.944ZM23.06 41.144L18.356 49.544H19.988L24.704 41.144H23.06ZM18.896 42.008C19.352 42.008 19.58 42.32 19.58 42.944C19.58 43.268 19.52 43.496 19.4 43.652C19.28 43.808 19.112 43.892 18.896 43.892C18.452 43.892 18.236 43.58 18.236 42.944C18.236 42.32 18.452 42.008 18.896 42.008ZM22.268 47.732C22.268 48.344 22.448 48.824 22.796 49.172C23.144 49.52 23.612 49.688 24.176 49.688C24.74 49.688 25.196 49.52 25.544 49.172C25.892 48.824 26.06 48.344 26.06 47.732C26.06 47.12 25.892 46.64 25.544 46.292C25.196 45.956 24.74 45.788 24.176 45.788C23.612 45.788 23.156 45.956 22.808 46.292C22.448 46.64 22.268 47.12 22.268 47.732ZM24.164 46.796C24.608 46.796 24.836 47.108 24.836 47.732C24.836 48.368 24.608 48.68 24.164 48.68C23.708 48.68 23.48 48.368 23.48 47.732C23.48 47.108 23.708 46.796 24.164 46.796Z" fill="white"/>
<g opacity="0.3">
<rect x="18" width="106" height="25" rx="2" fill="white"/>
<rect x="51" y="6" width="65" height="6" rx="2" fill="#5367FF"/>
<rect x="51" y="15" width="44" height="4" rx="2" fill="#5367FF"/>
<rect x="24" y="6" width="21" height="13" rx="2" fill="#5367FF"/>
<path d="M31 10.4969C31 10.9682 31.1386 11.3378 31.4158 11.6058C31.6838 11.8737 32.0349 12.0031 32.4692 12.0031C32.9035 12.0031 33.2546 11.8737 33.5319 11.6058C33.7998 11.3378 33.9384 10.9682 33.9384 10.4969C33.9384 10.0257 33.7998 9.6653 33.5319 9.39733C33.2546 9.12936 32.9035 9 32.4692 9C32.0349 9 31.6838 9.12936 31.4158 9.39733C31.1386 9.6653 31 10.0257 31 10.4969ZM35.6664 9.11088L32.0442 15.5791H33.3008L36.9323 9.11088H35.6664ZM32.46 9.77619C32.8111 9.77619 32.9867 10.0164 32.9867 10.4969C32.9867 10.7464 32.9405 10.922 32.8481 11.0421C32.7557 11.1622 32.6263 11.2269 32.46 11.2269C32.1181 11.2269 31.9518 10.9867 31.9518 10.4969C31.9518 10.0164 32.1181 9.77619 32.46 9.77619ZM35.0565 14.1838C35.0565 14.6551 35.1951 15.0247 35.4631 15.2927C35.7311 15.5606 36.0914 15.69 36.5257 15.69C36.96 15.69 37.3111 15.5606 37.5791 15.2927C37.8471 15.0247 37.9765 14.6551 37.9765 14.1838C37.9765 13.7126 37.8471 13.343 37.5791 13.075C37.3111 12.8163 36.96 12.6869 36.5257 12.6869C36.0914 12.6869 35.7403 12.8163 35.4723 13.075C35.1951 13.343 35.0565 13.7126 35.0565 14.1838ZM36.5165 13.4631C36.8584 13.4631 37.0339 13.7033 37.0339 14.1838C37.0339 14.6736 36.8584 14.9138 36.5165 14.9138C36.1653 14.9138 35.9898 14.6736 35.9898 14.1838C35.9898 13.7033 36.1653 13.4631 36.5165 13.4631Z" fill="white"/>
</g>
<g opacity="0.3">
<rect x="18" y="65" width="106" height="25" rx="2" fill="white"/>
<rect x="50" y="71" width="65" height="6" rx="2" fill="#5367FF"/>
<rect x="50" y="80" width="44" height="4" rx="2" fill="#5367FF"/>
<rect x="24" y="71" width="21" height="13" rx="2" fill="#5367FF"/>
<path d="M31 75.4969C31 75.9682 31.1386 76.3378 31.4158 76.6058C31.6838 76.8737 32.0349 77.0031 32.4692 77.0031C32.9035 77.0031 33.2546 76.8737 33.5319 76.6058C33.7998 76.3378 33.9384 75.9682 33.9384 75.4969C33.9384 75.0257 33.7998 74.6653 33.5319 74.3973C33.2546 74.1294 32.9035 74 32.4692 74C32.0349 74 31.6838 74.1294 31.4158 74.3973C31.1386 74.6653 31 75.0257 31 75.4969ZM35.6664 74.1109L32.0442 80.5791H33.3008L36.9323 74.1109H35.6664ZM32.46 74.7762C32.8111 74.7762 32.9867 75.0164 32.9867 75.4969C32.9867 75.7464 32.9405 75.922 32.8481 76.0421C32.7557 76.1622 32.6263 76.2269 32.46 76.2269C32.1181 76.2269 31.9518 75.9867 31.9518 75.4969C31.9518 75.0164 32.1181 74.7762 32.46 74.7762ZM35.0565 79.1838C35.0565 79.6551 35.1951 80.0247 35.4631 80.2927C35.7311 80.5606 36.0914 80.69 36.5257 80.69C36.96 80.69 37.3111 80.5606 37.5791 80.2927C37.8471 80.0247 37.9765 79.6551 37.9765 79.1838C37.9765 78.7126 37.8471 78.343 37.5791 78.075C37.3111 77.8163 36.96 77.6869 36.5257 77.6869C36.0914 77.6869 35.7403 77.8163 35.4723 78.075C35.1951 78.343 35.0565 78.7126 35.0565 79.1838ZM36.5165 78.4631C36.8584 78.4631 37.0339 78.7033 37.0339 79.1838C37.0339 79.6736 36.8584 79.9138 36.5165 79.9138C36.1653 79.9138 35.9898 79.6736 35.9898 79.1838C35.9898 78.7033 36.1653 78.4631 36.5165 78.4631Z" fill="white"/>
</g>
</svg>
