<svg width="50" height="48" viewBox="0 0 50 48" fill="none" xmlns="http://www.w3.org/2000/svg">
<path d="M41.4197 0.956417C41.5412 0.627882 42.0059 0.627882 42.1275 0.956417L42.7326 2.59164C42.7708 2.69493 42.8522 2.77637 42.9555 2.81459L44.5908 3.41968C44.9193 3.54125 44.9193 4.00592 44.5908 4.12749L42.9555 4.73258C42.8522 4.7708 42.7708 4.85224 42.7326 4.95553L42.1275 6.59075C42.0059 6.91929 41.5412 6.91929 41.4197 6.59075L40.8146 4.95553C40.7764 4.85224 40.6949 4.7708 40.5916 4.73258L38.9564 4.12749C38.6279 4.00592 38.6279 3.54125 38.9564 3.41968L40.5916 2.81459C40.6949 2.77637 40.7764 2.69493 40.8146 2.59164L41.4197 0.956417Z" fill="url(#paint0_linear_1197_1820)"/>
<path d="M4.80273 27.415C4.97695 25.7889 6.34917 24.5559 7.98452 24.5559H41.567C43.2023 24.5559 44.5745 25.7889 44.7487 27.415L45.5904 35.2704C45.793 37.1618 44.3108 38.8113 42.4086 38.8113H7.14287C5.24065 38.8113 3.75843 37.1618 3.96108 35.2704L4.80273 27.415Z" stroke="#3D4159" stroke-width="1.6"/>
<path d="M19.8 9.55C19.8 7.75507 21.2551 6.3 23.05 6.3H23.5C25.5435 6.3 27.2 7.95655 27.2 10V12.8H23.05C21.2551 12.8 19.8 11.3449 19.8 9.55Z" stroke="#46BE88" stroke-width="1.6"/>
<path d="M28.8 10C28.8 7.95654 30.4565 6.3 32.5 6.3H32.95C34.7449 6.3 36.2 7.75507 36.2 9.55C36.2 11.3449 34.7449 12.8 32.95 12.8H28.8V10Z" stroke="#46BE88" stroke-width="1.6"/>
<path d="M7.23047 23.759L11.7808 14.6584C12.289 13.642 13.3278 13 14.4641 13H34.5819C35.6958 13 36.7179 13.6171 37.2367 14.6028L42.0558 23.759" stroke="#3D4159" stroke-width="1.6" stroke-linecap="round"/>
<path d="M4.68072 24.0419H2C1.44771 24.0419 1 23.5942 1 23.0419V20.7949C1 20.2426 1.44772 19.7949 2 19.7949H4.68073C5.77531 19.7949 6.66265 20.6823 6.66265 21.7768V21.7768" stroke="#3D4159" stroke-width="1.6" stroke-linecap="round"/>
<path d="M4.39648 40.6152V44.2779C4.39648 45.3825 5.29191 46.2779 6.39648 46.2779H12.023C13.1276 46.2779 14.023 45.3825 14.023 44.2779V41.8074" stroke="#3D4159" stroke-width="1.6" stroke-linecap="round"/>
<path d="M45.166 40.6152V44.2779C45.166 45.3825 44.2706 46.2779 43.166 46.2779H37.5395C36.4349 46.2779 35.5395 45.3825 35.5395 44.2779V41.8074" stroke="#3D4159" stroke-width="1.6" stroke-linecap="round"/>
<path d="M33.5645 16.2695V16.2695C34.4299 16.2695 35.219 16.7652 35.5947 17.5448L37.5 21.4984" stroke="#3D4159" stroke-width="1.6" stroke-linecap="round"/>
<path d="M45.3193 24.325H48C48.5523 24.325 49 23.8773 49 23.325V20.7949C49 20.2426 48.5523 19.7949 48 19.7949H45.3373C44.2328 19.7949 43.3373 20.6904 43.3373 21.7949V21.909" stroke="#3D4159" stroke-width="1.6" stroke-linecap="round"/>
<circle cx="10.3505" cy="31.4013" r="3.44699" stroke="#46BE88" stroke-width="1.6"/>
<circle cx="39.2216" cy="31.4013" r="3.44699" stroke="#46BE88" stroke-width="1.6"/>
<path d="M18.1014 31.0936C17.991 30.6518 18.3251 30.2238 18.7805 30.2238H30.7936C31.249 30.2238 31.5832 30.6518 31.4727 31.0936L31.0902 32.6237C31.0123 32.9353 30.7323 33.1539 30.4111 33.1539H19.1631C18.8419 33.1539 18.5619 32.9353 18.484 32.6237L18.1014 31.0936Z" stroke="#3D4159" stroke-width="1.6"/>
<path fill-rule="evenodd" clip-rule="evenodd" d="M7.01397 11.014V12.027H8.01397V11.014H9.02703V10.014H8.01397V9H7.01397V10.014H6V11.014H7.01397Z" fill="url(#paint1_linear_1197_1820)"/>
<defs>
<linearGradient id="paint0_linear_1197_1820" x1="45.2485" y1="1.84255" x2="38.6664" y2="6.88138" gradientUnits="userSpaceOnUse">
<stop stop-color="#46BE88"/>
<stop offset="1" stop-color="#92D153"/>
</linearGradient>
<linearGradient id="paint1_linear_1197_1820" x1="8.90722" y1="9.73901" x2="6.26729" y2="11.76" gradientUnits="userSpaceOnUse">
<stop stop-color="#46BE88"/>
<stop offset="1" stop-color="#92D153"/>
</linearGradient>
</defs>
</svg>
