<svg width="60" height="60" viewBox="0 0 60 60" fill="none" xmlns="http://www.w3.org/2000/svg">
<g clip-path="url(#clip0_1197_2331)">
<path d="M41.1465 50.355C41.3008 50.0072 41.3872 49.6229 41.3872 49.2185C41.3872 47.6678 40.1254 46.406 38.5747 46.406H21.425C19.8742 46.406 18.6125 47.6678 18.6125 49.2185C18.6125 49.6228 18.699 50.0072 18.8532 50.355C14.5336 50.9364 11.1914 54.6445 11.1914 59.1208C11.1914 59.6062 11.5848 59.9997 12.0703 59.9997H38.4691C39.6055 59.9997 39.6055 58.2419 38.4691 58.2419H13.0033C13.4374 54.7457 16.4272 52.031 20.0389 52.031H39.9607C43.5724 52.031 46.5621 54.7457 46.9962 58.2419H43.1151C41.9787 58.2419 41.9787 59.9997 43.1151 59.9997H47.9294C48.4149 59.9997 48.8083 59.6062 48.8083 59.1208C48.8084 54.6445 45.4661 50.9364 41.1465 50.355ZM38.5747 50.2732H21.425C20.8434 50.2732 20.3703 49.8 20.3703 49.2185C20.3703 48.637 20.8434 48.1638 21.425 48.1638H38.5748C39.1564 48.1638 39.6295 48.637 39.6295 49.2185C39.6295 49.8 39.1563 50.2732 38.5747 50.2732Z" fill="#24272C"/>
<path d="M19.2195 45.1758C19.8671 45.1758 20.3205 44.355 19.9458 43.8031L1.60611 16.7915C1.33341 16.3899 0.786735 16.2855 0.385253 16.5581C-0.0163463 16.8308 -0.12076 17.3773 0.151817 17.7789L18.4916 44.7905C18.6617 45.0409 18.9382 45.1758 19.2195 45.1758Z" fill="#24272C"/>
<path d="M59.6151 16.5581C59.2136 16.2855 58.6669 16.3899 58.3942 16.7915L40.0545 43.8031C39.4307 44.722 40.8862 45.7072 41.5088 44.7905L59.8485 17.7789C60.1212 17.3773 60.0167 16.8308 59.6151 16.5581Z" fill="#24272C"/>
<path d="M35.1938 38.2859L33.9222 41.6838C33.5348 42.7196 35.1688 43.3681 35.5686 42.2998L36.8402 38.902C37.0102 38.4474 36.7796 37.9409 36.325 37.7708C35.8704 37.6007 35.3641 37.8314 35.1938 38.2859Z" fill="#24272C"/>
<path d="M46.3286 7.58043C46.7544 7.72187 47.2968 7.45375 47.4397 7.02367L49.3901 1.15632C49.5432 0.69566 49.2939 0.198199 48.8332 0.0450348C48.3723 -0.107895 47.8751 0.141246 47.722 0.601793L45.7717 6.46914C45.6185 6.9298 45.8679 7.42726 46.3286 7.58043Z" fill="#24272C"/>
<path d="M23.7723 37.7708C23.3177 37.941 23.0871 38.4473 23.2571 38.902L24.5287 42.2999C24.9193 43.3434 26.5729 42.7475 26.1751 41.6838L24.9035 38.286C24.7332 37.8313 24.227 37.6008 23.7723 37.7708Z" fill="#24272C"/>
<path d="M12.6595 7.02361C13.0115 8.08228 14.6863 7.54825 14.3276 6.46919L12.3772 0.601849C12.224 0.141185 11.7266 -0.107956 11.266 0.045091C10.8053 0.198255 10.556 0.695716 10.7092 1.15638L12.6595 7.02361Z" fill="#24272C"/>
<path d="M11.5789 13.3794C11.1596 14.671 12.0586 15.9339 12.9282 17.1553C14.2294 18.9834 14.2563 19.7067 12.9282 21.5724C10.7378 24.6492 11.4949 26.5156 14.9766 27.6752C17.0413 28.3627 17.443 28.8871 17.4625 31.1103C17.4951 34.7886 19.0491 36.0541 22.6693 34.918C24.7383 34.2688 25.3867 34.4126 26.6987 36.1925C28.9475 39.2439 31.0457 39.2504 33.2993 36.1925C34.5858 34.4472 35.2131 34.2539 37.3287 34.9181C40.931 36.0484 42.5028 34.7915 42.5355 31.1103C42.5546 28.9341 42.9138 28.377 45.0213 27.6752C48.5007 26.5164 49.2709 24.6642 47.07 21.5724C45.7686 19.7444 45.7418 19.0209 47.0699 17.1552C49.2602 14.0785 48.5032 12.212 45.0214 11.0525C42.9566 10.365 42.5549 9.84063 42.5354 7.61748C42.5028 3.9391 40.9488 2.67348 37.3286 3.80961C35.2598 4.45894 34.6113 4.31504 33.2992 2.53508C31.0504 -0.516225 28.9522 -0.522788 26.6986 2.53508C25.412 4.28047 24.7849 4.47371 22.6692 3.80961C19.067 2.67899 17.4951 3.93641 17.4624 7.61736C17.4433 9.79364 17.084 10.3507 14.9765 11.0526C13.5201 11.5376 12.0141 12.0392 11.5789 13.3794ZM13.2509 13.9222C13.4118 13.4264 14.5874 13.0349 15.5321 12.7204C18.2952 11.8002 19.1943 10.5718 19.2204 7.63283C19.2427 5.10991 19.7339 4.73093 22.143 5.48679C24.9395 6.36452 26.372 5.94135 28.1136 3.57805C29.6534 1.48872 30.3446 1.48872 31.8844 3.57805C33.6261 5.94135 35.0587 6.36463 37.855 5.48679C40.2642 4.73081 40.7555 5.11015 40.7776 7.63295C40.8038 10.5713 41.7375 11.8116 44.4658 12.7203C46.8478 13.5134 47.0992 14.0827 45.6378 16.1358C43.893 18.5868 43.8929 20.141 45.6379 22.5918C47.0994 24.6448 46.8478 25.2143 44.4658 26.0074C41.7028 26.9276 40.8038 28.1559 40.7776 31.0948C40.7554 33.6176 40.2642 33.9971 37.8551 33.241C35.0586 32.3633 33.6262 32.7863 31.8844 35.1497C30.3446 37.239 29.6534 37.239 28.1136 35.1497C26.3758 32.7917 24.931 32.3659 22.143 33.241C19.7337 33.9969 19.2426 33.6177 19.2204 31.0949C19.1943 28.1565 18.2606 26.9162 15.5322 26.0075C13.1502 25.2144 12.8989 24.6451 14.3602 22.592C16.105 20.141 16.105 18.5869 14.3602 16.1359C13.8303 15.3917 13.1047 14.3724 13.2509 13.9222Z" fill="#24272C"/>
<path d="M15.9967 23.9361C16.0825 24.1983 16.2865 24.405 16.5475 24.4943C19.5626 25.5258 20.9176 27.3964 20.9722 30.5857C21.0762 31.2378 21.4544 31.5131 22.1069 31.4115C25.2016 30.4695 27.3648 31.2021 29.2944 33.7901C29.764 34.2616 30.2338 34.2616 30.7035 33.7901C32.6297 31.2065 34.7932 30.4687 37.8909 31.4114C38.5434 31.5131 38.9217 31.2378 39.0257 30.5857C39.0802 27.4006 40.4314 25.5268 43.4504 24.4943C44.0393 24.1948 44.1848 23.75 43.887 23.1602C42.063 20.5423 42.0608 18.1886 43.887 15.5675C44.1848 14.9777 44.0393 14.5331 43.4504 14.2334C40.4352 13.202 39.0803 11.3312 39.0257 8.14204C38.9217 7.48978 38.5436 7.21462 37.8909 7.31634C34.7963 8.25805 32.6332 7.52587 30.7035 4.93757C30.2338 4.46612 29.764 4.46612 29.2944 4.93757C27.3683 7.52095 25.2046 8.25923 22.107 7.31634C21.4544 7.21462 21.0762 7.48978 20.9722 8.14204C20.9574 9.00301 20.9053 9.91965 20.6258 10.7902C20.4773 11.2524 20.7317 11.7473 21.1939 11.8958C21.6561 12.044 22.151 11.7897 22.2995 11.3275C22.5187 10.6446 22.6257 9.95164 22.6792 9.29633C25.5302 9.97179 28.1208 9.11082 29.999 6.88861C30.7341 7.75837 31.8036 8.77438 33.2848 9.25531C34.5972 9.68164 35.9924 9.61051 37.319 9.29621C37.5544 12.2126 39.123 14.3811 41.8283 15.503C40.3103 18.0096 40.3093 20.7167 41.8283 23.2247C39.1247 24.346 37.5545 26.5134 37.319 29.4315C34.4679 28.756 31.8773 29.6169 29.999 31.8391C28.111 29.6054 25.531 28.7558 22.679 29.4315C22.4436 26.5151 20.8749 24.3466 18.1697 23.2247C19.6876 20.7184 19.6887 18.0116 18.1703 15.5038C18.4371 15.3931 18.7117 15.2685 18.9865 15.1265C19.4177 14.9037 19.5866 14.3734 19.3638 13.9422C19.1408 13.5108 18.6101 13.342 18.1795 13.565C17.6229 13.8527 17.0422 14.0643 16.5477 14.2335C15.9588 14.5331 15.8133 14.9778 16.1111 15.5676C17.9352 18.1855 17.9373 20.5392 16.1111 23.1603C15.9532 23.3866 15.9109 23.674 15.9967 23.9361Z" fill="#24272C"/>
<path d="M6.71942 14.3474C7.22485 15.3303 8.80114 14.5515 8.2827 13.5435L6.74872 10.5611C6.52653 10.1293 5.99649 9.95948 5.56501 10.1816C5.13329 10.4036 4.96337 10.9335 5.18544 11.3651L6.71942 14.3474Z" fill="#24272C"/>
<path d="M3.10419 7.24115C3.60236 8.22857 5.18404 7.46158 4.67369 6.44943L1.66384 0.483182C1.44517 0.0498225 0.916538 -0.124201 0.483296 0.0943538C0.0498196 0.313026 -0.124204 0.841541 0.0943509 1.2749L3.10419 7.24115Z" fill="#24272C"/>
<path d="M52.0982 14.727C52.5061 14.9368 53.0709 14.7576 53.2819 14.3474L54.8159 11.365C55.038 10.9334 54.8679 10.4035 54.4363 10.1814C54.0047 9.95957 53.4748 10.1294 53.2526 10.561L51.7186 13.5434C51.4966 13.975 51.6665 14.5049 52.0982 14.727Z" fill="#24272C"/>
<path d="M55.7157 7.62998C56.1246 7.83635 56.6887 7.6526 56.8962 7.24115L59.906 1.2749C60.1246 0.841541 59.9506 0.313026 59.5172 0.0943538C59.084 -0.124201 58.5553 0.0498225 58.3367 0.483182L55.3268 6.44943C55.1082 6.88279 55.2823 7.41142 55.7157 7.62998Z" fill="#24272C"/>
<path d="M34.8235 12.7347C34.4309 12.4491 33.8812 12.5357 33.5956 12.9282L24.9828 24.7634C24.6971 25.1559 24.7838 25.7056 25.1763 25.9913C25.3324 26.1049 25.5134 26.1596 25.6927 26.1596C25.9643 26.1596 26.2321 26.0342 26.4041 25.7978L35.0169 13.9626C35.3027 13.57 35.216 13.0203 34.8235 12.7347Z" fill="#46BE88"/>
<path d="M26.2793 12.5674C24.8255 12.5674 23.6426 13.7502 23.6426 15.2041C23.6426 16.658 24.8255 17.8408 26.2793 17.8408C27.7331 17.8408 28.916 16.658 28.916 15.2041C28.916 13.7502 27.7332 12.5674 26.2793 12.5674ZM26.2793 16.083C25.7946 16.083 25.4004 15.6888 25.4004 15.2041C25.4004 14.7194 25.7946 14.3252 26.2793 14.3252C26.764 14.3252 27.1582 14.7194 27.1582 15.2041C27.1582 15.6888 26.764 16.083 26.2793 16.083Z" fill="#46BE88"/>
<path d="M31.084 23.5234C31.084 24.9774 32.2669 26.1602 33.7207 26.1602C35.1745 26.1602 36.3574 24.9774 36.3574 23.5234C36.3574 22.0695 35.1745 20.8867 33.7207 20.8867C32.2669 20.8867 31.084 22.0696 31.084 23.5234ZM34.5996 23.5234C34.5996 24.0081 34.2054 24.4023 33.7207 24.4023C33.236 24.4023 32.8418 24.0081 32.8418 23.5234C32.8418 23.0387 33.236 22.6445 33.7207 22.6445C34.2054 22.6445 34.5996 23.0389 34.5996 23.5234Z" fill="#46BE88"/>
</g>
<defs>
<clipPath id="clip0_1197_2331">
<rect width="60" height="60" fill="white"/>
</clipPath>
</defs>
</svg>
