<svg width="36" height="60" viewBox="0 0 36 60" fill="none" xmlns="http://www.w3.org/2000/svg">
<rect x="0.9" y="0.9" width="34.2" height="58.2" rx="5.1" stroke="#3D4159" stroke-width="1.8"/>
<circle cx="18" cy="52" r="3" fill="#3D4159"/>
<path fill-rule="evenodd" clip-rule="evenodd" d="M26.9983 19C28.1029 19 28.9983 19.8954 28.9983 21V23.998H28.2504V20.9989C28.2504 20.3361 27.7347 19.7939 27.0826 19.7515L27.0004 19.7489H24.0002V19H26.9983ZM12.5002 19H9.49829C8.39372 19 7.49829 19.8954 7.49829 21V39C7.49829 40.1046 8.39372 41 9.49829 41H12.5002V40.2489H9.50043L9.41824 40.2462C8.7662 40.2039 8.25043 39.6616 8.25043 38.9989V35.498H7.50024V23.998H8.25043V20.9989L8.25309 20.9167C8.29541 20.2647 8.83769 19.7489 9.50043 19.7489H12.5002V19ZM24.0002 40.2489V41H26.9983C28.1029 41 28.9983 40.1046 28.9983 39V35.498H28.2504V38.9989L28.2478 39.0811C28.2055 39.7331 27.6632 40.2489 27.0004 40.2489H24.0002Z" fill="#3D4159"/>
<path d="M17.8726 29.6707C19.0638 29.6707 20.0952 29.2434 20.938 28.4005C21.7808 27.5577 22.208 26.5265 22.208 25.3352C22.208 24.1443 21.7808 23.1129 20.9379 22.2699C20.095 21.4272 19.0636 21 17.8726 21C16.6812 21 15.65 21.4272 14.8073 22.27C13.9645 23.1128 13.5371 24.1441 13.5371 25.3352C13.5371 26.5265 13.9645 27.5579 14.8074 28.4006C15.6503 29.2433 16.6817 29.6707 17.8726 29.6707V29.6707Z" fill="#3D4159"/>
<path d="M25.4576 34.8407C25.4333 34.49 25.3841 34.1074 25.3118 33.7034C25.2387 33.2963 25.1446 32.9115 25.032 32.5598C24.9157 32.1963 24.7575 31.8373 24.5619 31.4933C24.359 31.1363 24.1206 30.8254 23.8531 30.5695C23.5733 30.3019 23.2308 30.0867 22.8348 29.9297C22.4401 29.7736 22.0027 29.6945 21.5348 29.6945C21.3511 29.6945 21.1734 29.7699 20.8302 29.9933C20.619 30.131 20.3719 30.2903 20.0962 30.4665C19.8604 30.6168 19.5409 30.7575 19.1464 30.885C18.7615 31.0095 18.3706 31.0727 17.9849 31.0727C17.5991 31.0727 17.2084 31.0095 16.8231 30.885C16.4289 30.7577 16.1095 30.6169 15.874 30.4667C15.6008 30.2921 15.3536 30.1328 15.1393 29.9932C14.7965 29.7697 14.6187 29.6943 14.4349 29.6943C13.9669 29.6943 13.5297 29.7736 13.1351 29.9299C12.7393 30.0865 12.3967 30.3017 12.1167 30.5697C11.8493 30.8256 11.6108 31.1364 11.4081 31.4933C11.2126 31.8373 11.0544 32.1962 10.938 32.56C10.8255 32.9117 10.7314 33.2963 10.6584 33.7034C10.586 34.1068 10.5368 34.4896 10.5125 34.8411C10.4886 35.1856 10.4766 35.543 10.4766 35.9041C10.4766 36.8437 10.7753 37.6043 11.3643 38.1653C11.946 38.7189 12.7157 38.9997 13.6517 38.9997H22.3188C23.2548 38.9997 24.0243 38.719 24.6062 38.1653C25.1953 37.6047 25.494 36.8439 25.494 35.9039C25.4939 35.5412 25.4816 35.1835 25.4576 34.8407V34.8407Z" fill="#3D4159"/>
<path d="M7 27.083H29.1938" stroke="#59BD88" stroke-width="2" stroke-linecap="round"/>
<path d="M15.5996 5.40078H21.5996" stroke="#3D4159" stroke-width="1.8" stroke-linecap="round"/>
</svg>
