<svg width="26" height="46" viewBox="0 0 26 46" fill="none" xmlns="http://www.w3.org/2000/svg">
<path d="M8.19751 38.0355L2.28711 34.9049V18.0117C2.28711 13.7106 5.77376 10.2241 10.0747 10.2241H15.0613C19.3622 10.2241 22.849 13.7106 22.849 18.0117V34.9049L17.3141 38.2344" stroke="#3D4159" stroke-width="1.6" stroke-miterlimit="10"/>
<path d="M12.56 45.002C10.1463 45.002 8.18945 43.0452 8.18945 40.6314V29.1789C8.18945 26.7652 10.1463 24.8085 12.56 24.8085C14.9737 24.8085 16.9304 26.7652 16.9304 29.1789V40.6314C16.9304 43.0452 14.9737 45.002 12.56 45.002Z" stroke="#3D4159" stroke-width="1.6" stroke-miterlimit="10"/>
<path d="M7.95174 5.61328H0" stroke="#3D4159" stroke-width="1.6" stroke-miterlimit="10"/>
<path d="M17.1758 5.61328H25.1275" stroke="#3D4159" stroke-width="1.6" stroke-miterlimit="10"/>
<path d="M17.1774 5.61254C17.1774 8.15972 15.1125 10.2246 12.5653 10.2246C10.018 10.2246 7.95312 8.15972 7.95312 5.61254C7.95312 3.06536 10.018 1.00046 12.5653 1.00046C15.1125 1.00046 17.1774 3.06536 17.1774 5.61254Z" stroke="#46BE88" stroke-width="1.6" stroke-miterlimit="10"/>
</svg>
