<svg width="50" height="36" viewBox="0 0 50 36" fill="none" xmlns="http://www.w3.org/2000/svg">
<path d="M4.80273 15.415C4.97695 13.7889 6.34917 12.5559 7.98452 12.5559H41.567C43.2023 12.5559 44.5745 13.7889 44.7487 15.415L45.5904 23.2704C45.793 25.1618 44.3108 26.8113 42.4086 26.8113H7.14287C5.24065 26.8113 3.75843 25.1618 3.96108 23.2704L4.80273 15.415Z" stroke="#3D4159" stroke-width="1.6"/>
<path d="M7.23047 11.759L11.7808 2.65836C12.289 1.64201 13.3278 1 14.4641 1H34.5819C35.6958 1 36.7179 1.61711 37.2367 2.60276L42.0558 11.759" stroke="#3D4159" stroke-width="1.6" stroke-linecap="round"/>
<path d="M4.68072 12.0419H2C1.44771 12.0419 1 11.5942 1 11.0419V8.79492C1 8.24264 1.44772 7.79492 2 7.79492H4.68073C5.77531 7.79492 6.66265 8.68226 6.66265 9.77685V9.77685" stroke="#3D4159" stroke-width="1.6" stroke-linecap="round"/>
<path d="M4.39648 28.6152V32.2779C4.39648 33.3825 5.29191 34.2779 6.39648 34.2779H12.023C13.1276 34.2779 14.023 33.3825 14.023 32.2779V29.8074" stroke="#3D4159" stroke-width="1.6" stroke-linecap="round"/>
<path d="M45.166 28.6152V32.2779C45.166 33.3825 44.2706 34.2779 43.166 34.2779H37.5395C36.4349 34.2779 35.5395 33.3825 35.5395 32.2779V29.8074" stroke="#3D4159" stroke-width="1.6" stroke-linecap="round"/>
<path d="M33.5645 4.26953V4.26953C34.4299 4.26953 35.219 4.76516 35.5947 5.54483L37.5 9.49845" stroke="#3D4159" stroke-width="1.6" stroke-linecap="round"/>
<path d="M45.3193 12.325H48C48.5523 12.325 49 11.8773 49 11.325V8.79492C49 8.24264 48.5523 7.79492 48 7.79492H45.3373C44.2328 7.79492 43.3373 8.69035 43.3373 9.79492V9.90898" stroke="#3D4159" stroke-width="1.6" stroke-linecap="round"/>
<circle cx="10.3505" cy="19.4013" r="3.44699" stroke="#46BE88" stroke-width="1.6"/>
<circle cx="39.2216" cy="19.4013" r="3.44699" stroke="#46BE88" stroke-width="1.6"/>
<path d="M18.1014 19.0936C17.991 18.6518 18.3251 18.2238 18.7805 18.2238H30.7936C31.249 18.2238 31.5832 18.6518 31.4727 19.0936L31.0902 20.6237C31.0123 20.9353 30.7323 21.1539 30.4111 21.1539H19.1631C18.8419 21.1539 18.5619 20.9353 18.484 20.6237L18.1014 19.0936Z" stroke="#3D4159" stroke-width="1.6"/>
</svg>
