<svg width="130" height="40" viewBox="0 0 130 40" fill="none" xmlns="http://www.w3.org/2000/svg">
<path d="M110.523 23.9335L110.576 23.7721L112.028 23.7503C112.177 23.7198 112.456 23.6282 112.87 23.4755C113.054 23.4144 113.272 23.3621 113.52 23.3141L117.953 23.1309C117.909 23.6194 117.796 24.0731 117.621 24.5006L113.355 24.3872C113.128 24.3872 112.779 24.2825 112.303 24.0688C112.168 24.0077 112.072 23.9772 112.02 23.9772L110.523 23.9335Z" fill="black"/>
<path d="M109.426 15.312L109.496 15.1419H110.529C110.796 15.1419 111.454 15.0328 112.506 14.8191C113.936 14.5311 115.21 14.3828 116.327 14.3828C117.549 14.3828 118.792 14.5311 119.765 14.9107L119.245 15.8922L112.397 15.8747C112.117 15.8747 111.904 15.7613 111.751 15.7003L111.201 15.4778C110.97 15.3818 110.73 15.3338 110.477 15.3338L109.426 15.312Z" fill="black"/>
<path d="M110.359 22.5632L110.412 22.4279L111.864 22.3625C111.904 22.3625 111.969 22.3538 112.065 22.3407L112.885 22.0658C113.055 22.0048 113.212 21.9742 113.356 21.9742L117.928 21.791C117.972 22.1269 117.994 22.3232 117.994 22.3843C118.002 22.5981 117.989 22.8511 117.954 23.139L113.369 23.0474C113.064 23.0474 112.654 22.934 112.139 22.7028C112.004 22.6417 111.891 22.6111 111.795 22.6111L110.359 22.5632Z" fill="black"/>
<path d="M108.391 21.0546L108.443 20.8932L109.595 20.8452C109.848 20.8278 110.075 20.7929 110.284 20.7318L111.008 20.505C111.139 20.457 111.257 20.4352 111.361 20.4352L117.342 20.252C117.626 20.662 117.809 21.1113 117.888 21.5999L111.392 21.5083C111.1 21.5083 110.764 21.4254 110.384 21.2553C110.249 21.1942 110.04 21.1332 109.76 21.0721L108.391 21.0546Z" fill="black"/>
<path d="M107.484 16.8283L107.537 16.645L108.968 16.6014C109.02 16.6014 109.12 16.584 109.264 16.5578L110.106 16.2612C110.224 16.2175 110.377 16.1914 110.56 16.1914L119.267 15.9863L118.665 17.4739L118.259 17.3081C117.592 17.0377 116.89 16.9024 116.148 16.9024C115.428 16.9024 114.887 17.0551 114.517 17.3605L110.909 17.2689C110.311 17.2558 109.892 17.1947 109.648 17.0856C109.269 16.9155 109.024 16.8326 108.92 16.8326H107.484V16.8283Z" fill="black"/>
<path d="M107.285 19.6367L107.338 19.4753L108.712 19.4534C108.843 19.4404 109.148 19.3487 109.632 19.1786C109.933 19.0739 110.16 19.0172 110.321 19.0172L115.587 18.834C116.403 19.2179 116.97 19.6628 117.284 20.182L110.212 20.0904C109.985 20.0904 109.732 20.0293 109.449 19.9071C109.109 19.7544 108.834 19.6803 108.624 19.6803L107.285 19.6367Z" fill="black"/>
<path d="M107.176 18.2671L107.25 18.1057L108.524 18.0838C108.681 18.0838 108.977 18.0097 109.409 17.857C109.802 17.7174 110.051 17.652 110.155 17.652L114.448 17.4688C114.387 17.604 114.361 17.7261 114.365 17.8308C114.378 18.1362 114.644 18.4241 115.163 18.6989C115.242 18.7295 115.342 18.7731 115.447 18.8342L110.544 18.7208C109.985 18.7077 109.435 18.5899 108.895 18.3805C108.786 18.3369 108.698 18.3107 108.633 18.3107L107.176 18.2671Z" fill="black"/>
<path d="M104.617 25.3245L104.67 25.1893L106.039 25.1413C106.161 25.1413 106.262 25.1195 106.353 25.0715L107.256 24.7748C107.387 24.7268 107.531 24.705 107.693 24.705L117.617 24.5C117.43 24.9537 117.176 25.4205 116.867 25.8916L107.427 25.7782C107.256 25.7782 106.894 25.6735 106.358 25.4597C106.209 25.3987 106.1 25.3681 106.035 25.3681L104.617 25.3245Z" fill="black"/>
<path d="M104.754 26.7477L104.806 26.6124L106.237 26.5644C106.372 26.5644 106.678 26.4728 107.158 26.2896C107.354 26.2155 107.568 26.0933 107.808 26.0889L116.82 25.9668C116.066 26.5295 115.263 26.9265 114.412 27.1577C113.562 27.3846 112.449 27.498 111.084 27.498C109.622 27.498 108.475 27.3846 107.642 27.1577L106.473 26.8349C106.377 26.8044 106.25 26.7869 106.093 26.7869L104.754 26.7477Z" fill="black"/>
<path d="M99.4531 15.3913L99.5229 15.2081L100.993 15.1644C101.137 15.1644 101.359 15.1034 101.66 14.9812C102.036 14.8285 102.315 14.7544 102.502 14.7544L106.058 14.6191L105.508 15.9671L102.219 15.8319C101.953 15.8188 101.599 15.701 101.168 15.4916C101.045 15.4436 100.958 15.4218 100.901 15.4218L99.4531 15.3913Z" fill="black"/>
<path d="M98.8867 16.8285L98.9609 16.667L100.431 16.6452C100.444 16.6452 100.558 16.6147 100.763 16.5536C100.815 16.5362 100.92 16.5013 101.077 16.4402L101.386 16.3268C101.53 16.2657 101.679 16.2352 101.84 16.2352L105.496 16.0781L104.946 17.4261L101.753 17.2865C101.565 17.2734 101.408 17.2429 101.273 17.1949L100.562 16.9201C100.51 16.8895 100.44 16.8764 100.361 16.8764L98.8867 16.8285Z" fill="black"/>
<path d="M98.3164 18.196L98.3862 18.0346L99.6775 18.0127C99.7167 18.0127 99.7647 18.004 99.8171 17.9909C99.8694 17.9909 99.9043 17.9909 99.9174 17.9909L100.777 17.7161C101.039 17.6419 101.436 17.5852 101.963 17.5591L104.904 17.4238L104.354 18.7718L101.501 18.6802C101.139 18.6627 100.659 18.545 100.048 18.3138C99.9392 18.2701 99.8345 18.244 99.7255 18.244L98.3164 18.196Z" fill="black"/>
<path d="M97.7266 19.5923L97.7789 19.4527L99.2708 19.4308C99.3363 19.4134 99.4628 19.3785 99.6416 19.3174C100.152 19.1342 100.492 19.0339 100.662 19.0208L104.318 18.8594L103.768 20.2073L101.836 20.1376C100.867 20.107 100.283 20.0547 100.095 19.9805L99.4279 19.7275C99.3057 19.6795 99.2272 19.6577 99.188 19.6577L97.7266 19.5923Z" fill="black"/>
<path d="M97.1445 21.077L97.1751 20.9417L98.7063 20.8981C98.7455 20.8981 98.8197 20.8763 98.92 20.8283C99.4391 20.6145 99.8536 20.5011 100.159 20.4837L103.732 20.3223L103.16 21.6921L99.8667 21.5306C99.775 21.5306 99.6529 21.5001 99.5046 21.439C98.9636 21.2253 98.6539 21.1206 98.571 21.1206L97.1445 21.077Z" fill="black"/>
<path d="M96.5547 22.4461C96.5678 22.3981 96.5896 22.3458 96.6288 22.2847L98.0815 22.2629C98.1339 22.2629 98.2037 22.2411 98.2953 22.1931L98.9409 21.988C99.2157 21.8964 99.4033 21.8528 99.5124 21.8528L103.146 21.6914L102.597 23.0394L99.8657 22.926C99.3466 22.9085 99.0063 22.8649 98.8449 22.7907L98.3564 22.5857C98.1819 22.5115 98.0074 22.4723 97.8329 22.4723L96.5547 22.4461Z" fill="black"/>
<path d="M95.9648 23.8641L96.0346 23.7027L97.5048 23.6808C97.5179 23.6808 97.5658 23.6678 97.64 23.6329L98.2289 23.4278L98.4645 23.358C98.6346 23.31 98.8135 23.2751 98.9967 23.2446L102.556 23.1094L102.007 24.4573L99.2148 24.3439C98.8658 24.3308 98.639 24.309 98.5256 24.2872C98.4121 24.2654 98.1329 24.1607 97.6836 23.9819C97.5353 23.9164 97.4219 23.8902 97.339 23.8902L95.9648 23.8641Z" fill="black"/>
<path d="M95.375 25.2805L95.4492 25.1191L96.88 25.0711C96.9324 25.0711 97.0109 25.0537 97.1156 25.0232L98.0186 24.7265L98.3763 24.6567L101.993 24.5215H106.63L106.08 25.8433L99.3666 25.7517C98.4636 25.7342 97.9095 25.6906 97.7089 25.6121L97.0589 25.3591C96.9498 25.3111 96.8582 25.2893 96.7753 25.2893L95.375 25.2805Z" fill="black"/>
<path d="M94.793 26.6949L94.8453 26.5335L96.3154 26.4899C96.3809 26.4899 96.4638 26.4724 96.5554 26.4419L97.3973 26.1671C97.5805 26.106 97.7594 26.0755 97.9295 26.0755L106.044 25.9141L105.472 27.262L97.803 27.1486C97.5107 27.1312 97.2839 27.0963 97.1225 27.0352L96.5554 26.804C96.4463 26.7604 96.3242 26.7342 96.1933 26.7342L94.793 26.6949Z" fill="black"/>
<path d="M87.0156 15.4355L87.0636 15.2523L88.4988 15.2305C88.5512 15.2305 88.6515 15.2086 88.7955 15.1607L89.7159 14.864C89.8424 14.816 89.9864 14.7942 90.1304 14.7942L98.6806 14.6328L98.1092 16.0026L89.8424 15.8674C89.62 15.8674 89.3757 15.8063 89.1183 15.6841C88.7824 15.5315 88.5425 15.4529 88.4116 15.4529L87.0156 15.4355Z" fill="black"/>
<path d="M86.4414 16.7843L86.4938 16.6229L87.9464 16.6011C88.025 16.6011 88.1515 16.5706 88.3216 16.5095C88.6095 16.4004 89.0239 16.287 89.5605 16.1649L98.0933 16.0078L97.5437 17.3558H89.6608C89.4209 17.3558 89.1897 17.3122 88.9541 17.2206L88.2038 16.9239C88.0817 16.8803 87.9464 16.841 87.8025 16.8105L86.4414 16.7843Z" fill="black"/>
<path d="M85.8594 18.1985L85.9117 18.0633L87.3818 18.0153C87.4342 18.0153 87.5214 17.9935 87.6392 17.9455C88.2281 17.7317 88.6295 17.6183 88.8563 17.6009L92.4509 17.4395L91.9013 18.7874L88.6295 18.6522C88.5073 18.6522 88.3983 18.6304 88.2892 18.5824L87.5563 18.3076C87.4909 18.277 87.3949 18.2465 87.2771 18.216L85.8594 18.1985Z" fill="black"/>
<path d="M85.2695 19.7054L85.3437 19.544L86.7789 19.5222C86.8836 19.5222 87.1017 19.4568 87.4245 19.3302C87.7517 19.1994 88.0266 19.1296 88.249 19.1121L91.7259 18.9551H96.9215L96.3718 20.3031L89.1608 20.1896C88.9601 20.1896 88.6809 20.1809 88.3232 20.1678C88.044 20.1547 87.8564 20.1373 87.7648 20.1242L86.9142 19.8057C86.8182 19.7752 86.5564 19.7534 86.1333 19.7359L85.2695 19.7054Z" fill="black"/>
<path d="M84.6797 21.0404L84.7495 20.8703H86.0015C86.176 20.8703 86.4639 20.7961 86.8783 20.6565C87.2884 20.5169 87.5894 20.4472 87.7726 20.4472L96.3447 20.2988L95.7732 21.6686L87.428 21.5247C87.332 21.5247 87.2142 21.4898 87.0659 21.4243C86.5511 21.1975 86.2327 21.0841 86.1149 21.0841L84.6797 21.0404Z" fill="black"/>
<path d="M84.1094 22.4706L84.1399 22.3092L85.61 22.2613C85.6493 22.2613 85.7627 22.2307 85.9459 22.1696L86.2993 22.0562C86.705 21.921 87.0322 21.8512 87.2808 21.8512L95.7526 21.668L95.1986 23.0378H86.9362C86.7792 23.0378 86.5392 22.9374 86.2251 22.7411C85.9634 22.5753 85.7409 22.4925 85.5533 22.4925L84.1094 22.4706Z" fill="black"/>
<path d="M83.5273 23.9536L83.5797 23.7922L85.0542 23.7704C85.2243 23.7224 85.4773 23.6395 85.8176 23.5173C86.0793 23.4126 86.2931 23.3603 86.4676 23.3603L90.1233 23.2207L89.5518 24.5687L86.3193 24.4116C86.1448 24.3942 85.9223 24.3331 85.6562 24.2284L85.2679 24.067C85.172 24.019 85.0673 23.9972 84.9451 23.9972L83.5273 23.9536Z" fill="black"/>
<path d="M82.9375 25.3381L82.968 25.2029L84.0804 25.1549C84.2549 25.1549 84.4469 25.1374 84.6563 25.1112L85.4197 24.8626C85.6291 24.7841 85.7992 24.7492 85.9345 24.7492L89.4898 24.5703H94.5894L94.0354 25.9183L85.6683 25.7831C85.5637 25.7831 85.4546 25.7612 85.3455 25.7133L84.7348 25.4646C84.5865 25.4035 84.2593 25.3643 83.7533 25.3512L82.9375 25.3381Z" fill="black"/>
<path d="M82.3477 26.6964L82.4044 26.5612L83.8527 26.5176C83.9574 26.5176 84.1929 26.4434 84.5507 26.2995C84.9084 26.1555 85.2007 26.0813 85.4231 26.0813L94.0127 25.9199L93.463 27.2679L84.7731 27.0847C84.7208 27.0672 84.6335 27.0367 84.5114 26.9931C84.1188 26.8273 83.8789 26.7401 83.7829 26.7401L82.3477 26.6964Z" fill="black"/>
<path d="M74.5703 15.4355L74.6227 15.2523L76.0535 15.2305C76.1059 15.2305 76.2062 15.2086 76.3502 15.1607L77.2706 14.864C77.4015 14.816 77.5411 14.7942 77.6851 14.7942L86.2353 14.6328L85.6682 16.0026L77.4015 15.8674C77.1747 15.8674 76.9347 15.8063 76.6773 15.6841C76.3371 15.5315 76.1015 15.4529 75.9706 15.4529L74.5703 15.4355Z" fill="black"/>
<path d="M74 16.7843L74.0524 16.6229L75.505 16.6011C75.5835 16.6011 75.7101 16.5706 75.8802 16.5095C76.1681 16.4004 76.5782 16.287 77.1191 16.1649L85.6519 16.0078L85.0979 17.3558H77.2151C76.9752 17.3558 76.7396 17.3122 76.5127 17.2206L75.7624 16.9239C75.6403 16.8803 75.505 16.841 75.3567 16.8105L74 16.7843Z" fill="black"/>
<path d="M73.4102 18.1985L73.4625 18.0633L74.9326 18.0153C74.985 18.0153 75.0722 17.9935 75.1856 17.9455C75.7746 17.7317 76.1803 17.6183 76.4028 17.6009L79.9974 17.4395L79.4477 18.7874L76.1803 18.6522C76.0581 18.6522 75.9447 18.6304 75.8356 18.5824L75.1071 18.3076C75.0373 18.277 74.9457 18.2465 74.8236 18.216L73.4102 18.1985Z" fill="black"/>
<path d="M72.8281 19.7054L72.8979 19.544L74.3288 19.5222C74.4335 19.5222 74.6516 19.4568 74.9788 19.3302C75.3016 19.1994 75.5808 19.1296 75.8033 19.1121L79.2801 18.9551H84.4757L83.9217 20.3031L76.7106 20.1896C76.5143 20.1896 76.2308 20.1809 75.8731 20.1678C75.5939 20.1547 75.4107 20.1373 75.3147 20.1242L74.464 19.8057C74.368 19.7752 74.1107 19.7534 73.6831 19.7359L72.8281 19.7054Z" fill="black"/>
<path d="M72.2344 21.0404L72.3042 20.8703H73.5605C73.735 20.8703 74.023 20.7961 74.4374 20.6565C74.8474 20.5169 75.1441 20.4472 75.3317 20.4472L83.9038 20.2988L83.3323 21.6686L74.9827 21.5247C74.8911 21.5247 74.7689 21.4898 74.6206 21.4243C74.1058 21.1975 73.7874 21.0841 73.6696 21.0841L72.2344 21.0404Z" fill="black"/>
<path d="M71.668 22.4706L71.7029 22.3092L73.173 22.2613C73.2123 22.2613 73.3213 22.2307 73.5089 22.1696L73.8622 22.0562C74.2679 21.921 74.5951 21.8512 74.8481 21.8512L83.3199 21.668L82.7702 23.0378H74.5079C74.3465 23.0378 74.1109 22.9374 73.7968 22.7411C73.5351 22.5753 73.3126 22.4925 73.125 22.4925L71.668 22.4706Z" fill="black"/>
<path d="M71.0859 23.9536L71.1383 23.7922L72.6084 23.7704C72.7785 23.7224 73.0316 23.6395 73.3718 23.5173C73.6336 23.4126 73.8517 23.3603 74.0218 23.3603L77.6775 23.2207L77.106 24.5687L73.8735 24.4116C73.699 24.3942 73.4765 24.3331 73.2061 24.2284L72.8222 24.067C72.7262 24.019 72.6215 23.9972 72.4993 23.9972L71.0859 23.9536Z" fill="black"/>
<path d="M70.4961 25.3381L70.531 25.2029L71.6434 25.1549C71.8135 25.1549 72.0055 25.1374 72.2149 25.1112L72.9783 24.8626C73.1877 24.7841 73.3578 24.7492 73.4887 24.7492L77.044 24.5703H82.1393L81.5896 25.9183L73.2226 25.7831C73.1135 25.7831 73.0088 25.7612 72.8998 25.7133L72.289 25.4646C72.1407 25.4035 71.8135 25.3643 71.3075 25.3512L70.4961 25.3381Z" fill="black"/>
<path d="M69.9102 26.6964L69.9625 26.5612L71.4108 26.5176C71.5199 26.5176 71.7511 26.4434 72.1088 26.2995C72.4665 26.1555 72.7588 26.0813 72.9856 26.0813L81.5795 25.9199L81.0299 27.2679L72.34 27.0847C72.2833 27.0672 72.196 27.0367 72.0739 26.9931C71.6813 26.8273 71.437 26.7401 71.3454 26.7401L69.9102 26.6964Z" fill="black"/>
<path d="M67.1836 15.3913L67.2578 15.2081L68.7453 15.1644C68.8631 15.1644 69.1205 15.0903 69.5131 14.9376C69.7487 14.846 69.9842 14.7849 70.2198 14.7544L73.797 14.6191L73.2473 15.9671L70.0366 15.8057C69.8097 15.7926 69.5698 15.7403 69.3124 15.6443C69.0289 15.4916 68.8238 15.4175 68.7061 15.4175L67.1836 15.3913Z" fill="black"/>
<path d="M66.6523 16.784L66.7047 16.6226L68.0963 16.5746C68.1617 16.5746 68.2621 16.5571 68.3929 16.531L69.2959 16.2343C69.4006 16.2038 69.5708 16.182 69.8107 16.1645L73.2308 16.0293L72.6812 17.3773L69.6319 17.242C69.3788 17.229 69.1825 17.1941 69.0473 17.1504L68.4409 16.9236C68.2359 16.8494 68.0701 16.8102 67.9349 16.8102L66.6523 16.784Z" fill="black"/>
<path d="M66.0469 18.1985L66.1167 18.0371L67.5868 17.9935C67.613 17.9935 67.7046 17.976 67.8616 17.9455L68.5683 17.6925C68.7254 17.6314 68.8693 17.6009 69.0046 17.6009L72.6384 17.4395L72.067 18.7874L69.0962 18.674C68.8563 18.6566 68.564 18.5911 68.2106 18.469L67.7657 18.3076C67.6566 18.2465 67.5519 18.216 67.4603 18.216L66.0469 18.1985Z" fill="black"/>
<path d="M63.6992 23.9129L63.7516 23.7515L65.2435 23.7297C65.261 23.7166 65.2959 23.6991 65.3613 23.6861L65.911 23.5246L66.225 23.4112C66.369 23.3501 66.5173 23.3196 66.6787 23.3196L70.3126 23.1582L69.7411 24.5062L66.4911 24.3666C66.4781 24.3666 66.4519 24.3579 66.4083 24.3448L66.1291 24.2968L65.5009 24.0481C65.4442 24.0176 65.261 23.9871 64.9381 23.9565L63.6992 23.9129Z" fill="black"/>
<path d="M63.1094 25.28L63.1617 25.1185L64.1738 25.0967C64.5446 25.0793 64.802 25.0487 64.9459 25.0051L65.5916 24.7783C65.7879 24.7041 65.9667 24.6649 66.1238 24.6649L69.7228 24.5078L69.1687 25.8558L66.3986 25.7642C65.9318 25.7467 65.6265 25.7118 65.4782 25.6508L64.8674 25.3977C64.8543 25.3977 64.7278 25.3672 64.4835 25.3061L63.1094 25.28Z" fill="black"/>
<path d="M62.5234 26.7215L62.5758 26.5863L64.0677 26.5383C64.1332 26.5383 64.4167 26.4467 64.914 26.2634C65.0056 26.2329 65.2019 26.1893 65.5029 26.1238L69.1586 25.9668L68.5871 27.3366L65.3154 27.2014C65.2238 27.1839 65.0885 27.1534 64.914 27.1097L64.2248 26.8349C64.1157 26.7869 64.0154 26.7651 63.9194 26.7651L62.5234 26.7215Z" fill="black"/>
<path d="M59.4375 15.3438L59.5073 15.1823L60.9818 15.1605C61.0472 15.1605 61.2959 15.0864 61.7234 14.9337C62.0506 14.8115 62.2861 14.7505 62.4301 14.7505L66.0247 14.6152L65.475 15.9632L62.2207 15.828C61.9546 15.8149 61.7278 15.7582 61.5358 15.6666C61.165 15.4833 60.96 15.3917 60.9033 15.3917L59.4375 15.3438Z" fill="black"/>
<path d="M58.8516 16.7617L58.9039 16.6265L60.2563 16.5785C60.3086 16.5785 60.3609 16.5698 60.4133 16.5567C60.4656 16.5567 60.4962 16.5567 60.5136 16.5567L61.4341 16.26C61.5519 16.2164 61.722 16.1859 61.9489 16.1684L65.4475 16.0332L64.8935 17.3812L61.6435 17.2459C61.4995 17.2459 61.1549 17.1325 60.614 16.9013C60.5442 16.8708 60.4569 16.8402 60.3479 16.8097L58.8516 16.7617Z" fill="black"/>
<path d="M58.2656 18.1889L58.3354 18.0275L59.7837 18.0057L59.8623 17.9838L60.0804 17.9402C60.0804 17.9402 60.2243 17.8879 60.521 17.7744C60.8133 17.6697 61.0663 17.6087 61.28 17.5912L64.8746 17.4473L64.2508 18.9348L61.171 18.6775C60.8787 18.6469 60.5079 18.5379 60.0629 18.3546C59.8841 18.2761 59.7619 18.2369 59.6965 18.2369L58.2656 18.1889Z" fill="black"/>
<path d="M57.6797 19.6844L57.7495 19.523L59.2414 19.475C59.2545 19.475 59.2807 19.4663 59.3199 19.4532L60.1226 19.1783C60.2797 19.1478 60.4847 19.1085 60.7334 19.0649L72.0537 18.9297L71.5041 20.2995L60.5065 20.1381C60.3756 20.1381 60.2142 20.0988 60.0223 20.0246L59.3723 19.7716C59.2632 19.728 59.1498 19.7018 59.032 19.7018L57.6797 19.6844Z" fill="black"/>
<path d="M57.0859 21.0322L57.1208 20.8926L58.5735 20.8446C58.6695 20.8446 58.7524 20.8271 58.8309 20.7966L59.4591 20.5916C59.7732 20.4825 60.0349 20.4302 60.2487 20.4302L71.4905 20.2949L70.9191 21.6647L59.8822 21.5033C59.8037 21.5033 59.6597 21.464 59.4591 21.3899L58.8527 21.163C58.7175 21.1194 58.5299 21.0889 58.29 21.0714L57.0859 21.0322Z" fill="black"/>
<path d="M56.5 22.4449L56.5523 22.2617L57.9047 22.2399C57.9832 22.2399 58.2799 22.1614 58.7903 22.0087C59.1174 21.8865 59.4402 21.8255 59.7543 21.8255L70.8959 21.6641L70.3288 23.0339L59.4315 22.8986C59.2178 22.8986 59.0389 22.8681 58.8906 22.807L58.1403 22.5104C58.1141 22.4973 58.0181 22.4886 57.8611 22.4886L56.5 22.4449Z" fill="black"/>
<path d="M55.8945 23.8766L55.9687 23.737L57.3996 23.6891C57.5566 23.6891 57.7398 23.6411 57.9492 23.5495C58.3244 23.3924 58.6079 23.3095 58.7912 23.2921L62.5384 23.0391L61.9321 24.5005L58.8828 24.3609C58.573 24.3434 58.1499 24.2213 57.6089 23.9901C57.4999 23.9421 57.4214 23.9203 57.369 23.9203L55.8945 23.8766Z" fill="black"/>
<path d="M55.3047 25.3323L55.3745 25.136L56.8272 25.1142C56.8795 25.1142 57.1456 25.0269 57.6298 24.8481C57.8 24.7826 58.0094 24.7259 58.258 24.6779L61.9137 24.5078L61.3684 25.9692L58.4325 25.8209C58.0748 25.8034 57.8174 25.7642 57.6691 25.6987L57.0191 25.4283C56.91 25.3803 56.801 25.3541 56.6963 25.3541L55.3047 25.3323Z" fill="black"/>
<path d="M54.7188 26.7215L54.7929 26.5863L56.2238 26.5383C56.3285 26.5383 56.612 26.4554 57.0701 26.2853C57.3318 26.1936 57.5979 26.1413 57.8771 26.1238L61.3321 25.9668L60.765 27.3366L57.4322 27.1752C57.4191 27.1752 57.3798 27.1665 57.31 27.1534L57.1268 27.1097C57.0308 27.0923 56.8214 27.0094 56.4986 26.8567C56.3634 26.7957 56.2543 26.7651 56.1758 26.7651L54.7188 26.7215Z" fill="black"/>
<path d="M52.1172 15.4575L52.1695 15.3004L53.6222 15.2525C53.6877 15.2525 53.7923 15.2306 53.9363 15.1827L54.739 14.934C54.9222 14.8729 55.0662 14.8424 55.1752 14.8424L59.5638 14.7246L58.6564 16.0726L55.0443 15.9112C54.7128 15.8937 54.4031 15.8283 54.1195 15.7061C53.7662 15.5535 53.4652 15.4793 53.2121 15.4793L52.1172 15.4575Z" fill="black"/>
<path d="M44.3906 15.4003L44.4648 15.2302L45.2587 15.2084H45.7561C45.9698 15.2084 46.2054 15.1691 46.4671 15.0819C46.9775 14.9161 47.3352 14.8332 47.549 14.8332L51.6453 14.7285L51.4141 16.0765L47.2829 15.9064C47.0822 15.8889 46.8597 15.8322 46.6154 15.7362C46.3711 15.6403 46.1181 15.5443 45.8433 15.4483L44.3906 15.4003Z" fill="black"/>
<path d="M43.7852 26.6927L43.855 26.5575L44.9892 26.5357C45.2684 26.5357 45.4908 26.5051 45.661 26.4441C46.1714 26.2739 46.4898 26.1779 46.612 26.1474C46.7385 26.1169 46.9566 26.0994 47.2751 26.0994L51.9515 26.0078L51.0616 27.3558L46.6949 27.1726C46.4942 27.1551 46.2325 27.0853 45.9053 26.9544C45.5825 26.8236 45.3512 26.7581 45.2204 26.7581L43.7852 26.6927Z" fill="black"/>
<path d="M37.2891 16.7615L37.3589 16.5783H38.275C38.6458 16.5783 38.925 16.5478 39.1082 16.4823L39.8716 16.2162C39.9894 16.1857 40.1421 16.1595 40.3253 16.1421L43.6843 16.0723L43.5927 16.6219L45.0236 16.6045C45.1195 16.6045 45.2111 16.5914 45.3028 16.5609L45.9484 16.3733C46.2232 16.2904 46.4326 16.2468 46.5809 16.2468L51.397 16.1421L51.2836 16.6699L52.0645 16.6917C52.1692 16.6917 52.3218 16.683 52.5181 16.6699L52.9718 16.6263L53.7178 16.3733C53.9272 16.2947 54.1061 16.2598 54.25 16.2598L58.6037 16.1464L57.7137 17.4944L54.0014 17.3112C53.9185 17.3112 53.5651 17.189 52.9282 16.9447L52.745 16.8968H52.6839L51.2487 16.8531L51.1614 17.4944L47.3705 17.3504C46.5591 17.3155 46.0575 17.2588 45.8699 17.1803L45.2591 16.9098C45.1239 16.8444 44.9276 16.8095 44.6746 16.8095L43.5578 16.7877L43.4487 17.381L40.0548 17.2196C39.7276 17.0843 39.3045 16.9447 38.781 16.8095L37.2891 16.7615Z" fill="black"/>
<path d="M37.0977 18.1533L37.1893 17.9919H38.1054L38.3235 17.9701L38.6812 17.9483C38.7903 17.9483 38.8819 17.9265 38.956 17.8785L39.606 17.6735C39.7107 17.6429 39.8547 17.6037 40.0379 17.56L43.4406 17.4902L43.3446 18.0137H43.8637C44.1124 18.0137 44.3349 17.9788 44.5137 17.909L45.2553 17.6298C45.3862 17.5818 45.552 17.5557 45.7483 17.5557H51.1445L51.0137 18.1053L51.3932 18.0835L51.9298 18.0617C52.0475 18.0137 52.3355 17.9178 52.7892 17.7651C52.9462 17.704 53.1163 17.6735 53.2995 17.6735L57.6532 17.56L56.7633 18.8862L54.2506 18.7728C53.8143 18.7553 53.2777 18.703 52.6496 18.6114L51.921 18.3365C51.8949 18.3191 51.8251 18.3147 51.7204 18.3147L51.2405 18.2929H51.0006L50.8697 18.8862L45.9838 18.6943C45.504 18.6812 45.2248 18.655 45.1419 18.6245L44.3305 18.3147C44.1691 18.2493 44.0338 18.2188 43.9248 18.2188H43.2879L43.1788 18.7902L39.846 18.607C39.702 18.5896 39.4882 18.5241 39.209 18.402C38.9299 18.2798 38.7205 18.2188 38.5721 18.2188L37.0977 18.1533Z" fill="black"/>
<path d="M36.8711 19.5522L36.9409 19.4083L37.8177 19.3864C38.3063 19.3734 38.5855 19.3472 38.6509 19.3123L39.5147 19.0244C39.6063 18.9938 39.8244 18.9676 40.1691 18.9546L43.1922 18.8848L43.1006 19.4126C43.2576 19.4126 43.4321 19.3864 43.6153 19.3297C44.1781 19.1509 44.5969 19.0593 44.8761 19.0593L50.8831 18.9589L50.7915 19.4824C51.027 19.4693 51.2452 19.4213 51.4415 19.3472C51.9082 19.164 52.2529 19.0723 52.4623 19.0723L56.7156 18.9589L55.8256 20.2851L52.375 20.1455C52.1089 20.1324 51.8297 20.0626 51.5374 19.9405C51.2452 19.8183 50.979 19.7398 50.7391 19.7093L50.6475 20.2807L45.068 20.1106C44.6012 20.0975 44.2959 20.0582 44.1432 19.9928L43.4103 19.6831C43.4103 19.6831 43.2925 19.6656 43.0482 19.6351L42.9392 20.2764L40.1211 20.1062C39.6674 20.0713 39.1919 19.9492 38.6902 19.718C38.6335 19.7005 38.5157 19.6656 38.3238 19.6002L36.8711 19.5522Z" fill="black"/>
<path d="M36.6602 20.9758L36.7125 20.8318L38.1041 20.81C38.1957 20.81 38.3091 20.7882 38.44 20.7402C39.1031 20.4916 39.6048 20.3694 39.9363 20.3694L42.9158 20.2778L42.8591 20.6879C42.99 20.6661 43.0772 20.6399 43.1121 20.605L43.5047 20.4741C43.688 20.3999 43.845 20.365 43.9759 20.365L47.1997 20.2734L46.9205 20.7097C47.0252 20.6835 47.0906 20.6617 47.1168 20.6486L47.5094 20.5483C47.6403 20.5221 47.7886 20.5003 47.9456 20.4872L50.6285 20.365L50.5674 20.7315C50.9164 20.5483 51.2305 20.4567 51.5097 20.4567L55.7674 20.365L54.8557 21.6912L51.3265 21.5298C51.1389 21.5167 50.9164 21.46 50.6634 21.3728C50.6067 21.3728 50.5413 21.3509 50.4584 21.303L50.3624 21.7566L48.1245 21.5691C47.6839 21.5385 47.2695 21.4426 46.8769 21.2855C46.8376 21.255 46.7547 21.2201 46.6326 21.1895L46.3185 21.6912L43.9235 21.5167C43.6312 21.4993 43.2474 21.3902 42.7719 21.1895L42.6977 21.6912L39.7618 21.4818C39.391 21.4513 39.0682 21.3815 38.7934 21.2724C38.6058 21.1983 38.3571 21.111 38.0474 21.0194L36.6602 20.9758Z" fill="black"/>
<path d="M36.4492 22.3676L36.5016 22.2018L37.9542 22.18C38.0502 22.18 38.2901 22.1102 38.6828 21.9706C39.0754 21.831 39.3633 21.7612 39.5465 21.7612L46.2951 21.6914L45.981 22.2411C46.1294 22.2411 46.4609 22.1582 46.9844 21.988C47.2548 21.8964 47.4817 21.8528 47.6562 21.8528L54.8192 21.7612L53.9075 23.1092L47.4686 22.926C47.3116 22.926 47.0803 22.8649 46.7837 22.7427C46.4042 22.5901 46.0857 22.5072 45.8371 22.4941L45.4837 23.0437L39.263 22.8562C39.1016 22.8562 38.866 22.7864 38.5475 22.638C38.2291 22.4897 37.9979 22.4156 37.8495 22.4156L36.4492 22.3676Z" fill="black"/>
<path d="M36.2227 23.7851L36.275 23.6193L37.7233 23.5975C37.8062 23.5975 37.9283 23.567 38.0985 23.5059C38.6874 23.2878 39.1236 23.1787 39.4159 23.1787L45.4622 23.1133L45.1306 23.6586H45.7283C45.8766 23.6586 46.0555 23.6193 46.2779 23.5452C46.8145 23.3619 47.2071 23.2747 47.4602 23.2747L53.8641 23.1831L52.9524 24.5092L47.0108 24.326L46.7098 24.2344L46.0424 23.9814C45.881 23.916 45.6454 23.8898 45.34 23.8898H45.0041L44.6333 24.4394L39.1324 24.2737C39.0669 24.2737 38.6699 24.1515 37.9414 23.9029C37.8585 23.8723 37.7539 23.8418 37.6186 23.8113L36.2227 23.7851Z" fill="black"/>
<path d="M35.9883 25.1888L36.0799 25.0274L37.4148 25.0492C37.4802 25.0492 37.6154 25.0143 37.8292 24.9489C38.4574 24.7569 38.9547 24.661 39.3255 24.661H39.6658L44.6171 24.5039L44.2855 25.0754H45.3587C45.5332 25.0754 45.6291 25.0667 45.6553 25.0579L46.4624 24.8529C46.6063 24.7787 46.8157 24.7438 47.0949 24.7438L52.923 24.6697L51.9939 26.0177L47.6838 25.8388C47.0164 25.8039 46.6369 25.769 46.5452 25.7341L45.7949 25.42L45.5114 25.3153C45.5244 25.3153 45.4983 25.3022 45.4328 25.2891L44.159 25.263L43.81 25.8562L38.946 25.6948C38.7453 25.6948 38.5403 25.6512 38.3222 25.5552L37.694 25.3066C37.6809 25.3066 37.5675 25.2848 37.3537 25.2412L35.9883 25.1888Z" fill="black"/>
<path d="M37.5 15.3442L37.5698 15.161H39.0835L39.1577 15.113L39.5111 15.017C39.5372 14.9996 39.607 14.9734 39.7248 14.9429C39.9211 14.8774 40.1785 14.8076 40.4926 14.7248L43.9302 14.6113L43.6946 15.9593L40.4621 15.7979C40.1829 15.7848 39.9211 15.7237 39.6768 15.6147C39.3366 15.462 39.101 15.3878 38.9658 15.3878L37.5 15.3442Z" fill="black"/>
<path d="M35.7617 26.6163L35.8141 26.4592L37.3235 26.4374C37.3802 26.4374 37.45 26.4243 37.5416 26.3894C38.052 26.2237 38.4097 26.1233 38.6104 26.0884C38.8154 26.0535 39.2211 26.0274 39.8318 26.0099L43.7667 25.8965L42.9553 27.2445L38.7499 27.1136C38.5929 27.1136 38.1872 26.9914 37.5372 26.7515C37.3758 26.6948 37.2449 26.6643 37.1533 26.6643L35.7617 26.6163Z" fill="black"/>
<path d="M5 27.0791L5.71979 24.4835L14.2744 17.1329H8.13219L8.86507 14.5547H18.3969L17.4939 17.8221L9.68084 24.4835H16.4818L15.762 27.0791H5Z" fill="#ED1C24"/>
<path d="M17.2773 27.0791L20.8632 14.5547H24.4098L20.9636 27.0791H17.2773Z" fill="#ED1C24"/>
<path d="M23.8882 22.0137C24.1238 19.5795 25.0748 17.6339 26.7325 16.1812C28.3902 14.7285 30.4492 14 32.9052 14C33.1714 14 33.4549 14.0044 33.7516 14.0174C34.0482 14.0305 34.3536 14.0524 34.6633 14.0872C35.4267 14.1789 36.1247 14.4232 36.7485 14.8158C37.3723 15.2084 37.6515 15.8976 37.5817 16.8923C37.573 17.0406 37.5512 17.2064 37.5207 17.3852C37.4901 17.5641 37.4465 17.7517 37.3854 17.948L33.9784 17.9305C33.9522 17.4681 33.8126 17.1104 33.5509 16.8486C33.2935 16.5869 32.7875 16.456 32.0371 16.456C31.0207 16.456 30.0872 16.9359 29.2365 17.8912C28.3858 18.851 27.8492 19.911 27.6311 21.0758C27.618 21.1238 27.605 21.1761 27.6006 21.2416C27.5962 21.3026 27.5919 21.3681 27.5875 21.4379C27.5744 21.5993 27.5744 21.7694 27.5831 21.9483C27.5962 22.1271 27.618 22.3103 27.6486 22.4936C27.7533 23.0258 27.9932 23.51 28.3727 23.955C28.7523 24.3956 29.3325 24.618 30.1177 24.618C30.314 24.618 30.5888 24.6006 30.9378 24.5657C31.2868 24.5308 31.7012 24.413 32.1898 24.2036L32.7308 22.1446H30.2878L31.0032 19.5664H37.0059L35.1693 26.3674C33.9304 26.5898 32.8006 26.7556 31.7754 26.8778C30.7502 26.9999 29.8647 27.061 29.1143 27.061C29.0838 27.061 29.0489 27.061 29.0184 27.061C28.9878 27.061 28.966 27.061 28.9398 27.061C28.918 27.061 28.8919 27.061 28.8613 27.061C28.8351 27.061 28.8002 27.061 28.7697 27.061C26.8546 27.0741 25.5328 26.6029 24.8087 25.6519C24.0845 24.7009 23.7704 23.4925 23.8751 22.0268L23.8882 22.0137Z" fill="#ED1C24"/>
<path d="M124.978 26.7639C124.978 26.8528 124.945 26.9292 124.879 26.9929C124.813 27.0566 124.734 27.0884 124.642 27.0884C124.55 27.0884 124.471 27.0566 124.405 26.9929C124.339 26.9292 124.306 26.8528 124.306 26.7639C124.306 26.675 124.339 26.5986 124.405 26.5349C124.471 26.4712 124.55 26.4394 124.642 26.4394C124.703 26.4394 124.759 26.4544 124.81 26.4845C124.861 26.5133 124.902 26.5524 124.933 26.6016C124.963 26.6497 124.978 26.7038 124.978 26.7639Z" fill="black"/>
<path d="M122.321 22.6471V23.0942C122.188 23.1207 122.071 23.167 121.97 23.2331C121.869 23.298 121.785 23.3773 121.716 23.471C121.646 23.5636 121.594 23.6663 121.559 23.7793C121.525 23.8923 121.507 24.0101 121.507 24.1327C121.507 24.3562 121.566 24.5587 121.683 24.7402C121.799 24.9205 121.972 25.0641 122.199 25.1711C122.427 25.2769 122.706 25.3298 123.037 25.3298C123.368 25.3298 123.647 25.2769 123.875 25.1711C124.103 25.0641 124.275 24.9205 124.392 24.7402C124.509 24.5587 124.567 24.3562 124.567 24.1327C124.567 24.0101 124.55 23.8923 124.515 23.7793C124.48 23.6663 124.429 23.5636 124.36 23.471C124.291 23.3773 124.205 23.298 124.105 23.2331C124.003 23.167 123.886 23.1207 123.754 23.0942V22.6471C123.949 22.6808 124.124 22.7421 124.278 22.831C124.432 22.92 124.564 23.0305 124.672 23.1627C124.779 23.295 124.86 23.4434 124.916 23.608C124.972 23.7715 125 23.9464 125 24.1327C125 24.4476 124.921 24.7276 124.762 24.9728C124.602 25.218 124.376 25.4109 124.082 25.5515C123.789 25.6921 123.44 25.7624 123.037 25.7624C122.634 25.7624 122.286 25.6921 121.992 25.5515C121.699 25.4109 121.472 25.218 121.313 24.9728C121.154 24.7276 121.074 24.4476 121.074 24.1327C121.074 23.9464 121.102 23.7715 121.158 23.608C121.214 23.4434 121.296 23.295 121.405 23.1627C121.511 23.0305 121.642 22.92 121.796 22.831C121.949 22.7421 122.124 22.6808 122.321 22.6471Z" fill="black"/>
<path d="M123.037 18.8094C123.44 18.8094 123.789 18.8797 124.082 19.0203C124.376 19.1609 124.602 19.3538 124.762 19.599C124.921 19.8442 125 20.1242 125 20.4391C125 20.754 124.921 21.0341 124.762 21.2792C124.602 21.5244 124.376 21.7173 124.082 21.858C123.789 21.9986 123.44 22.0689 123.037 22.0689C122.634 22.0689 122.286 21.9986 121.992 21.858C121.699 21.7173 121.472 21.5244 121.313 21.2792C121.154 21.0341 121.074 20.754 121.074 20.4391C121.074 20.1242 121.154 19.8442 121.313 19.599C121.472 19.3538 121.699 19.1609 121.992 19.0203C122.286 18.8797 122.634 18.8094 123.037 18.8094ZM123.037 19.242C122.706 19.242 122.427 19.2955 122.199 19.4025C121.972 19.5083 121.799 19.6519 121.683 19.8334C121.566 20.0137 121.507 20.2156 121.507 20.4391C121.507 20.6627 121.566 20.8652 121.683 21.0467C121.799 21.227 121.972 21.3706 122.199 21.4776C122.427 21.5833 122.706 21.6362 123.037 21.6362C123.368 21.6362 123.647 21.5833 123.875 21.4776C124.103 21.3706 124.275 21.227 124.392 21.0467C124.509 20.8652 124.567 20.6627 124.567 20.4391C124.567 20.2156 124.509 20.0137 124.392 19.8334C124.275 19.6519 124.103 19.5083 123.875 19.4025C123.647 19.2955 123.368 19.242 123.037 19.242Z" fill="black"/>
<path d="M121.126 18.0576V17.5239L124.299 16.2692V16.2259L121.126 14.9711V14.4375H124.948V14.8558H122.045V14.8918L124.948 16.0456V16.4495L122.045 17.6033V17.6393H124.948V18.0576H121.126Z" fill="black"/>
</svg>
